<svg width="24" height="24" viewBox="0 0 24 24" fill="none" xmlns="http://www.w3.org/2000/svg">
<rect width="24" height="24" fill="#4FBA6F"/>
<g clip-path="url(#clip0_646_3)">
<path d="M17.8625 11.6682C17.8624 11.6681 17.8623 11.6679 17.8621 11.6677L15.4128 9.23025C15.2293 9.04765 14.9325 9.04833 14.7499 9.23184C14.5672 9.41533 14.5679 9.71212 14.7514 9.89475L16.3959 11.5312H6.46875C6.20986 11.5312 6 11.7411 6 12C6 12.2589 6.20986 12.4687 6.46875 12.4687H16.3959L14.7514 14.1052C14.568 14.2879 14.5673 14.5847 14.7499 14.7681C14.9325 14.9517 15.2293 14.9523 15.4128 14.7697L17.8621 12.3322C17.8623 12.3321 17.8624 12.3319 17.8625 12.3318C18.0461 12.1486 18.0455 11.8508 17.8625 11.6682Z" fill="white"/>
</g>
<defs>
<clipPath id="clip0_646_3">
<rect width="12" height="12" fill="white" transform="translate(6 6)"/>
</clipPath>
</defs>
</svg>
