<svg width="95" height="80" viewBox="0 0 95 80" fill="none" xmlns="http://www.w3.org/2000/svg">
<g clip-path="url(#clip0_625_217)">
<path fill-rule="evenodd" clip-rule="evenodd" d="M94.6225 52.7196C76.0857 40.0664 59.9165 35.89 54.9811 38.3349C54.223 38.6819 54.1808 39.8044 54.6768 40.4966L71.7343 64.8594C72.3675 65.8561 72.8916 65.7995 73.6497 65.4525L94.1124 54.4245C94.2637 54.3555 94.2636 54.3555 94.4167 54.2846C95.1044 53.7854 95.2011 53.1905 94.6225 52.7196Z" fill="#4FBA6F"/>
<path d="M9.74022 37.7154L9.4975 37.5348C9.04019 37.1648 8.96632 36.5097 9.32161 36.0246L9.50454 35.7732C9.87917 35.297 10.5212 35.2049 10.9873 35.5572L11.23 35.7378C11.6873 36.1078 11.7612 36.7629 11.4059 37.248L11.223 37.4994C10.8501 37.9756 10.1905 38.0588 9.74022 37.7154Z" fill="#4FBA6F"/>
<path d="M5.65984 23.8104C5.71613 23.2297 5.74603 22.6366 5.74251 22.0364C5.73723 21.1105 5.6915 20.2146 5.50682 19.2604C5.07942 20.119 4.798 21.0007 4.55 21.8877C4.41632 22.456 4.302 23.0261 4.19647 23.5979C3.6477 23.543 3.10245 23.5129 2.53609 23.4988C1.6936 23.4793 0.875722 23.5359 -0.00195312 23.7325C0.73853 24.1804 1.54233 24.4548 2.35141 24.692C2.89138 24.8496 3.4208 24.9718 3.95902 25.0744C3.87107 25.7932 3.82534 26.5386 3.82886 27.291C3.83414 28.2169 3.87987 29.1128 4.06455 30.067C4.4902 29.2084 4.77337 28.3267 5.01962 27.4397C5.21485 26.7369 5.34325 26.0216 5.45581 25.3064C6.04679 25.3701 6.6325 25.402 7.24282 25.4161C8.08532 25.4356 8.9032 25.379 9.78087 25.1824C9.03511 24.7699 8.23658 24.4601 7.42751 24.2229C6.83301 24.0511 6.25258 23.9201 5.65984 23.8104Z" fill="#4FBA6F"/>
<path d="M20.1582 33.5194C20.2866 33.4061 20.4291 33.3176 20.5698 33.229C20.7105 33.1405 20.8547 33.0591 21.0007 32.9812C21.2909 32.8254 21.5864 32.6855 21.8854 32.5545C22.4834 32.2942 23.092 32.0712 23.7094 31.88C24.3267 31.6888 24.9546 31.5277 25.5931 31.4055C25.9132 31.3453 26.2351 31.2922 26.5622 31.255C26.7258 31.2373 26.8876 31.2214 27.06 31.2161H27.0952H27.1163H27.1374L27.1567 31.2178C27.1796 31.2196 27.2025 31.232 27.2183 31.2462C27.2781 31.2462 27.2359 31.4462 27.2148 31.4126L27.2042 31.4197C27.1778 31.4338 27.1796 31.4303 27.1708 31.4338L27.1532 31.4374L27.1198 31.4427L26.9949 31.4568C26.9105 31.4622 26.8278 31.4692 26.7434 31.471C26.812 31.4214 26.8824 31.3772 26.951 31.3311L27.0547 31.2656L27.0793 31.2497L27.0899 31.2426C27.0899 31.2426 27.1005 31.2338 27.0829 31.2426L27.0758 31.2479C27.0565 31.2125 27.0143 31.4108 27.0741 31.4108C27.0881 31.425 27.111 31.4356 27.1321 31.4391L27.1479 31.4409C27.1532 31.4409 27.1567 31.4409 27.1532 31.4427C27.1532 31.4444 27.1479 31.4462 27.1444 31.448L27.1198 31.4604C26.9791 31.5347 26.8296 31.6073 26.6836 31.6799C26.3899 31.8215 26.0926 31.9543 25.7936 32.0783C25.1938 32.3261 24.587 32.5421 23.9697 32.7315C23.3541 32.921 22.7297 33.0856 22.0965 33.2202C21.4598 33.353 20.8178 33.445 20.1582 33.5194Z" fill="#181818"/>
<path d="M72.299 73.3362H22.166L25.6838 13.4092H68.2484L72.299 73.3362Z" fill="white"/>
<path d="M72.3317 73.3663L59.8948 73.5168L47.3646 73.6407C43.1732 73.6673 38.9783 73.7027 34.7746 73.7133L28.4708 73.7328L22.167 73.7275H21.752L21.7783 73.3132C22.0879 68.3206 22.4309 63.3298 22.7686 58.3372L23.2769 50.8501L23.5302 47.1074L23.7711 43.363L24.232 35.8741L24.6523 28.3817C24.9425 23.3873 25.1835 18.3912 25.4421 13.3951L25.4544 13.1684L25.683 13.1667L36.3242 13.064L46.9653 13.0003L57.6065 12.9595L62.9271 12.9383L68.2476 12.9365H68.6856L68.7155 13.3774C69.0638 18.4 69.3733 23.4263 69.697 28.4472L70.6081 43.4922C70.9176 48.5043 71.1902 53.4933 71.4822 58.477L72.3317 73.3663ZM72.2667 73.3061L71.0882 58.231L69.9379 43.2532L68.8246 28.3356C68.4745 23.3696 68.1087 18.4071 67.7816 13.4429L68.2494 13.8837L62.9288 13.8819L57.6083 13.8607L46.9671 13.82L36.3259 13.7562L25.6848 13.6535L25.9257 13.4252C25.5986 18.4177 25.2539 23.4086 24.9566 28.4011L24.4975 35.8918L24.0789 43.3842L23.8802 47.1304L23.6937 50.8784L23.3226 58.3726C23.0746 63.3687 22.8319 68.3666 22.554 73.361L22.1653 72.9467L28.3952 72.9414L34.6251 72.9609C38.7778 72.9697 42.9375 73.0069 47.1008 73.0334L59.6362 73.1574L72.2667 73.3061Z" fill="#181818"/>
<path d="M60.1545 24.6089C59.7799 30.384 61.1501 36.2635 64.0381 41.2685C64.5711 42.1927 65.1884 43.1204 66.1066 43.6568C67.2639 44.3331 68.6939 44.2729 70.0253 44.1277C73.1491 43.786 76.2324 43.0832 79.1978 42.0386C79.678 41.8705 80.1863 41.6686 80.4712 41.2437C80.7052 40.8967 80.7474 40.4594 80.7826 40.0416C81.1607 35.4367 81.2698 30.8089 81.1097 26.1916C81.0816 25.3666 81.0323 24.5009 80.612 23.7927C79.7343 22.3144 77.7081 22.1373 75.9967 22.1745C71.4535 22.2719 66.9192 22.6862 62.4323 23.412C61.537 23.5572 60.5362 23.7856 60.0684 24.5681" fill="white"/>
<path d="M60.1544 24.6088C60.0541 27.7266 60.4182 30.8443 61.2449 33.8274C61.6547 35.3199 62.1753 36.7787 62.8085 38.1844L63.3028 39.229C63.4822 39.5707 63.6545 39.9141 63.8375 40.2523C64.0292 40.5851 64.2139 40.925 64.4091 41.2543C64.6061 41.5819 64.8119 41.8988 65.037 42.1927C65.4855 42.7822 66.0237 43.2726 66.6745 43.5293C67.3253 43.7914 68.0605 43.8586 68.8027 43.8321C69.545 43.8055 70.3101 43.6993 71.0699 43.5948C71.8298 43.4851 72.5843 43.3541 73.3371 43.2036C74.8409 42.8991 76.3289 42.522 77.7906 42.0546C78.1564 41.9377 78.5205 41.8173 78.8811 41.6899C79.2469 41.5642 79.5881 41.442 79.8344 41.2703C80.0841 41.095 80.202 40.9038 80.2723 40.5834C80.3374 40.2735 80.3515 39.8663 80.3849 39.4821C80.6329 36.3857 80.7542 33.2786 80.763 30.1733C80.7683 29.3961 80.763 28.6206 80.7525 27.8434L80.7296 26.6785C80.7191 26.289 80.7138 25.8995 80.6874 25.5295C80.6593 25.1577 80.6083 24.8 80.5027 24.4725C80.399 24.1432 80.2301 23.8546 80.005 23.6068C79.5565 23.1075 78.8758 22.8207 78.1617 22.6702C77.4423 22.518 76.6842 22.4932 75.9209 22.5003C75.1487 22.5091 74.3766 22.5286 73.6044 22.5498C72.0602 22.5976 70.5176 22.6808 68.9769 22.8012C67.4343 22.9128 65.8953 23.0686 64.3598 23.2492C63.593 23.3412 62.8208 23.435 62.0592 23.5501C61.6793 23.6121 61.3047 23.7006 60.9511 23.8529C60.6011 24.0069 60.2793 24.2424 60.0664 24.5717C60.2582 24.23 60.573 23.9697 60.923 23.7927C61.2748 23.6156 61.6529 23.5041 62.0329 23.4191C62.7962 23.2633 63.5578 23.1358 64.3247 23.0048C65.8549 22.7499 67.3939 22.5428 68.9364 22.3675C70.4789 22.1958 72.0267 22.0665 73.5781 21.9691C74.3537 21.9196 75.1294 21.8877 75.9068 21.8594C76.6895 21.8346 77.4915 21.8399 78.2936 21.9904C78.6946 22.0665 79.0956 22.178 79.4826 22.3551C79.8678 22.5304 80.2389 22.7747 80.5432 23.0969C80.8492 23.4156 81.0814 23.8157 81.2168 24.2282C81.3558 24.6407 81.4191 25.0585 81.4543 25.464C81.4895 25.8711 81.4983 26.2606 81.5141 26.6519L81.5528 27.8239C81.5721 28.6065 81.5897 29.3872 81.5932 30.1697C81.6108 33.2981 81.4947 36.4282 81.259 39.5494L81.2116 40.1354C81.194 40.3355 81.1729 40.5479 81.1236 40.771C81.0744 40.9941 80.9935 41.2331 80.8527 41.4544C80.712 41.6775 80.5203 41.8545 80.3251 41.9891C79.9293 42.2582 79.523 42.3839 79.1607 42.5113C78.7914 42.6388 78.4185 42.761 78.0456 42.8778C76.5506 43.3452 75.0327 43.7329 73.4936 44.0215C72.725 44.1667 71.9529 44.2888 71.1772 44.3898C70.4015 44.4854 69.6294 44.5845 68.8221 44.604C68.0218 44.6199 67.1793 44.5456 66.3913 44.2109C66.0026 44.041 65.6315 43.8091 65.3184 43.5276C65.0001 43.2496 64.731 42.9327 64.49 42.6052C64.249 42.2759 64.0397 41.9342 63.8427 41.5907C63.6475 41.2473 63.4681 40.8985 63.2799 40.5515C63.1005 40.2009 62.9316 39.8451 62.7575 39.4928C62.5974 39.1334 62.4374 38.774 62.2826 38.4128C61.6811 36.9593 61.1939 35.4598 60.828 33.9336C60.1069 30.8814 59.8607 27.7159 60.1544 24.6088Z" fill="#181818"/>
<path d="M66.1391 31.533C65.9052 30.7646 65.6695 29.998 65.4355 29.2297C68.0299 28.6277 70.626 28.0258 73.2203 27.4256C73.9379 27.2592 74.7136 27.0981 75.3872 27.3955C76.0609 27.693 76.4724 28.6631 75.9641 29.1996" fill="white"/>
<path d="M66.1389 31.533C66.051 31.3507 65.9648 31.1665 65.8839 30.9824C65.803 30.7965 65.7185 30.6142 65.6429 30.4265C65.4881 30.0547 65.3316 29.6829 65.1891 29.3076L65.0977 29.0668L65.3773 28.9765C66.3623 28.6614 67.356 28.3852 68.3551 28.125C69.3541 27.8665 70.3567 27.6292 71.3645 27.4115C71.8675 27.3017 72.3741 27.199 72.8807 27.1017C73.3802 27.0078 73.9149 26.8927 74.4847 26.9158C74.7679 26.9264 75.0599 26.9848 75.3325 27.0981C75.4627 27.1565 75.6069 27.2274 75.723 27.3265C75.8408 27.4221 75.9411 27.5354 76.0202 27.6558C76.1856 27.8966 76.2841 28.1781 76.2893 28.4631C76.2893 28.6065 76.2665 28.7481 76.212 28.8774C76.1539 29.0049 76.0677 29.1128 75.9675 29.1961C76.0378 29.0845 76.0871 28.9677 76.1047 28.8455C76.117 28.7234 76.1117 28.603 76.0836 28.4879C76.0202 28.2595 75.8971 28.0506 75.7335 27.893C75.6544 27.8116 75.5612 27.7479 75.468 27.6947C75.3765 27.6381 75.2798 27.6098 75.1689 27.5797C74.9526 27.5266 74.7257 27.5212 74.4935 27.5407C74.0292 27.5814 73.5578 27.7284 73.0548 27.8629C72.557 27.9993 72.0575 28.1285 71.558 28.2524C70.5572 28.5003 69.5529 28.7287 68.5415 28.9358C67.5319 29.1412 66.5171 29.3288 65.4934 29.4811L65.6816 29.1518C65.7731 29.5431 65.8522 29.9396 65.9314 30.3344C65.9718 30.5327 66.0052 30.731 66.0422 30.9311C66.0791 31.1311 66.1108 31.333 66.1389 31.533Z" fill="#181818"/>
<path d="M70.9297 28.201C70.9245 31.6658 71.4398 35.1322 72.4529 38.4429Z" fill="white"/>
<path d="M70.9294 28.201C71.1106 29.0668 71.2355 29.9219 71.3656 30.7717L71.7438 33.314L72.1237 35.8563C72.2468 36.7079 72.3752 37.5613 72.4544 38.4429C72.0252 37.6693 71.7086 36.8478 71.4501 36.0104C71.195 35.1712 71.0033 34.3125 70.8749 33.445C70.7465 32.5775 70.6797 31.7012 70.6797 30.823C70.6832 29.9449 70.7448 29.0668 70.9294 28.201Z" fill="#181818"/>
<path d="M70.0527 39.0448C71.2347 38.8182 72.4167 38.5934 73.5986 38.3668Z" fill="white"/>
<path d="M70.0527 39.0448C70.3148 38.8076 70.5927 38.6589 70.8741 38.535C71.1573 38.4146 71.4475 38.3278 71.743 38.2712C72.0385 38.2145 72.3393 38.1879 72.6471 38.195C72.9549 38.2057 73.2679 38.2428 73.5986 38.3668C73.3365 38.604 73.0604 38.7545 72.7772 38.8784C72.494 38.9988 72.2038 39.0856 71.9083 39.1404C71.6128 39.1971 71.3121 39.2236 71.0043 39.2166C70.6947 39.2059 70.3816 39.1688 70.0527 39.0448Z" fill="#181818"/>
<path d="M74.5946 67.908C73.9966 68.0762 73.3985 68.1559 72.8005 68.209C72.5015 68.2338 72.2025 68.2515 71.9035 68.2586C71.6045 68.2692 71.3055 68.2621 71.0065 68.2338C70.4085 68.1771 69.8104 68.0337 69.2124 68.0072C68.6144 67.9753 68.0164 68.0231 67.4184 68.1063C67.1194 68.1435 66.8204 68.1913 66.5214 68.2196C66.2223 68.2497 65.9233 68.2657 65.6243 68.2834C65.0263 68.3152 64.4283 68.3524 63.8303 68.3383C63.2323 68.3223 62.6343 68.2834 62.0362 68.2143C61.4382 68.1453 60.8402 68.0603 60.2422 67.9098V67.8213C60.8402 67.6708 61.4382 67.5876 62.0362 67.5168C62.6343 67.4477 63.2323 67.4088 63.8303 67.3929C64.4283 67.3787 65.0263 67.4141 65.6243 67.4477C65.9233 67.4637 66.2223 67.4796 66.5214 67.5115C66.8204 67.538 67.1194 67.5876 67.4184 67.6248C68.0164 67.708 68.6144 67.7558 69.2124 67.7239C69.8104 67.6974 70.4085 67.5557 71.0065 67.4973C71.3055 67.469 71.6045 67.4619 71.9035 67.4725C72.2025 67.4796 72.5015 67.4955 72.8005 67.5221C73.3985 67.5752 73.9966 67.6549 74.5946 67.8231V67.908Z" fill="#181818"/>
<path d="M67.1073 79.6228C74.1499 79.6228 79.8591 78.0772 79.8591 76.1705C79.8591 74.2639 74.1499 72.7182 67.1073 72.7182C60.0646 72.7182 54.3555 74.2639 54.3555 76.1705C54.3555 78.0772 60.0646 79.6228 67.1073 79.6228Z" fill="white"/>
<path d="M79.902 76.1706C79.9003 76.4769 79.7525 76.7601 79.5626 76.9814C79.3726 77.2081 79.1404 77.3904 78.9012 77.5568C78.4158 77.8826 77.8846 78.1234 77.3499 78.3482C76.2717 78.7784 75.1531 79.1042 74.0186 79.3573C73.4505 79.4795 72.8806 79.5946 72.3072 79.676C71.7338 79.7645 71.1569 79.8371 70.58 79.8849C69.4244 79.9858 68.2653 80.0142 67.1062 79.9912C64.7898 79.931 62.4875 79.6353 60.2168 79.221C59.0823 79.0103 57.9531 78.7554 56.8503 78.3818C56.5759 78.2862 56.3015 78.1836 56.0342 78.0649C55.7633 77.9516 55.4995 77.8171 55.2409 77.6666C54.9859 77.509 54.7361 77.3284 54.5216 77.093C54.3087 76.8593 54.1258 76.5424 54.1135 76.1724C54.1065 75.8023 54.2753 75.466 54.4793 75.2146C54.6869 74.9596 54.9296 74.7596 55.1811 74.5825C55.6877 74.2373 56.2312 73.9823 56.7817 73.7681C57.8863 73.3415 59.026 73.0688 60.171 72.851C62.4628 72.4208 64.7863 72.2456 67.1062 72.2473C67.6867 72.2562 68.2653 72.2686 68.8458 72.2987C69.4244 72.3252 70.0049 72.3624 70.5818 72.4226C70.8702 72.4492 71.1587 72.4828 71.4471 72.5164C71.7356 72.5572 72.0223 72.5961 72.309 72.6439C72.8824 72.7307 73.4522 72.8493 74.0204 72.975C75.1531 73.2281 76.2735 73.5557 77.3517 73.9877C77.8863 74.2125 78.4193 74.4533 78.903 74.7808C79.1422 74.9472 79.3761 75.1278 79.5661 75.3562C79.756 75.5793 79.902 75.8643 79.902 76.1706ZM79.8141 76.1706C79.807 75.8926 79.6698 75.6341 79.4869 75.4252C79.3005 75.2163 79.0753 75.0393 78.8344 74.8906C78.3454 74.6038 77.816 74.3807 77.2725 74.2143C76.1838 73.8726 75.0528 73.6885 73.9236 73.5486C72.7927 73.414 71.6564 73.3361 70.5202 73.2706C69.384 73.2122 68.246 73.1768 67.108 73.1892C64.8338 73.2034 62.5543 73.3255 60.3135 73.6725C59.1949 73.8496 58.085 74.0868 57.0209 74.4338C56.4915 74.6108 55.9744 74.8198 55.5065 75.0889C55.2761 75.227 55.0615 75.3845 54.8927 75.5669C54.7238 75.7492 54.6095 75.9564 54.5972 76.1706C54.5919 76.3848 54.6904 76.6097 54.8505 76.8097C55.0123 77.0098 55.2216 77.1868 55.4467 77.3444C55.904 77.656 56.4211 77.8985 56.9523 78.0986C58.0164 78.4987 59.1386 78.7536 60.266 78.9378C62.5279 79.3007 64.8285 79.3042 67.1062 79.2547C68.246 79.2246 69.384 79.1803 70.5202 79.1042C71.6564 79.0316 72.7927 78.9448 73.9219 78.8032C75.0511 78.6616 76.1838 78.4774 77.2725 78.1358C77.8178 77.9676 78.3454 77.7445 78.8361 77.4559C79.0789 77.3072 79.304 77.1319 79.4904 76.9212C79.6751 76.7106 79.8088 76.4485 79.8141 76.1706Z" fill="#181818"/>
<path d="M60.248 64.677V70.5247C60.248 74.3754 63.3489 77.4966 67.1745 77.4966H67.6687C71.4943 77.4966 74.5952 74.3754 74.5952 70.5247V64.677" fill="white"/>
<path d="M60.2909 64.6771C60.458 66.0969 60.5336 67.5186 60.5881 68.9385L60.6216 70.0043L60.6303 70.5372L60.6638 71.04C60.6655 71.2081 60.7077 71.371 60.7288 71.5374C60.7535 71.7039 60.7746 71.8685 60.8203 72.0314L60.9381 72.52L61.0947 72.998C61.3233 73.6301 61.6259 74.2409 62.0181 74.8056C62.4209 75.3598 62.9186 75.852 63.485 76.2521L63.9247 76.53C64.0777 76.6097 64.2343 76.6841 64.3908 76.7584C64.5438 76.8399 64.7127 76.8859 64.8745 76.9478L65.119 77.0346C65.2016 77.0629 65.2878 77.0753 65.3705 77.0966C65.5393 77.132 65.7064 77.1798 65.8753 77.2063L66.3889 77.263C66.5595 77.2842 66.7319 77.2701 66.9042 77.2736L67.161 77.2718L67.4249 77.2577L67.6887 77.2417L67.942 77.2134C68.1108 77.1904 68.2797 77.1869 68.445 77.1479L68.9392 77.0417C69.1028 77.0045 69.2611 76.9443 69.4229 76.8983C70.0561 76.6823 70.67 76.4096 71.2135 76.0202C71.7569 75.636 72.2442 75.181 72.6628 74.6658C73.0638 74.1382 73.4015 73.5663 73.6565 72.9573C73.9186 72.3483 74.0611 71.695 74.1455 71.0346L74.1877 70.5354L74.2053 70.0025L74.251 68.9367C74.3196 67.5168 74.404 66.0952 74.5535 64.6753H74.6415C74.791 66.0952 74.8737 67.5168 74.944 68.9367L74.9897 70.0025L75.0056 70.5354L74.995 71.1002C74.9985 71.2896 74.9669 71.4755 74.944 71.6631C74.9194 71.8508 74.9 72.0385 74.849 72.2226C74.8051 72.4067 74.7664 72.5926 74.7136 72.775L74.5254 73.3114C74.2422 74.0143 73.8535 74.6746 73.3681 75.2536C72.8738 75.8254 72.2987 76.3193 71.6637 76.7195L71.1783 77.001C71.0094 77.0824 70.8388 77.1585 70.6682 77.2347C70.5011 77.3179 70.3199 77.3657 70.1441 77.4276L69.8785 77.5162C69.7905 77.5445 69.6973 77.5586 69.6076 77.5799C69.4247 77.6153 69.2453 77.6631 69.0624 77.6897L68.5101 77.7445C68.3272 77.7658 68.1425 77.7498 67.9596 77.7534L67.6852 77.7516L67.4196 77.7375C65.9738 77.6897 64.5438 77.2541 63.3267 76.4875C62.7164 76.1034 62.15 75.6448 61.6399 75.1137C61.1457 74.5719 60.7236 73.9505 60.4122 73.2707C60.0992 72.5891 59.9356 71.8437 59.8846 71.0966L59.8652 70.5354L59.8723 70.0025L59.9057 68.9367C59.9602 67.5168 60.0341 66.0952 60.2029 64.6753H60.2909V64.6771Z" fill="#181818"/>
<path d="M67.6052 67.538C71.4645 67.538 74.5932 66.3118 74.5932 64.7991C74.5932 63.2865 71.4645 62.0603 67.6052 62.0603C63.7458 62.0603 60.6172 63.2865 60.6172 64.7991C60.6172 66.3118 63.7458 67.538 67.6052 67.538Z" fill="#181818"/>
<path d="M74.5702 68.5047C74.514 68.2622 74.5667 67.9824 74.7057 67.7523C74.8393 67.5168 75.0522 67.3274 75.3019 67.1964C75.8278 66.9273 76.4733 67.0406 76.9517 67.3362C77.1962 67.4832 77.4108 67.6779 77.5884 67.9045C77.7643 68.1276 77.8962 68.379 78 68.6339C78.2023 69.1491 78.2797 69.6714 78.3096 70.1937C78.3324 70.7195 78.2797 71.2772 78.0581 71.8065C78 71.9375 77.9367 72.0668 77.8576 72.1872C77.8224 72.2491 77.7731 72.3076 77.7292 72.366C77.6834 72.4244 77.6395 72.4846 77.5849 72.5324C77.3862 72.7519 77.1364 72.9042 76.8849 73.0263C76.3713 73.2583 75.8067 73.3025 75.2879 73.1857C75.0293 73.1202 74.7831 73.0175 74.5667 72.8776C74.3521 72.7307 74.171 72.543 74.0391 72.3341C74.2431 72.4775 74.4524 72.5873 74.6722 72.6581C74.8956 72.7201 75.1172 72.759 75.3406 72.7555C75.7839 72.7519 76.2165 72.6333 76.563 72.4102C76.6088 72.3872 76.6475 72.3518 76.6879 72.3235C76.7284 72.2916 76.7706 72.2651 76.804 72.2279L76.913 72.127L77.0063 72.0137C77.0397 71.9783 77.0625 71.9358 77.0889 71.895C77.1118 71.8526 77.1435 71.8189 77.1646 71.7729C77.2138 71.6861 77.249 71.5923 77.2842 71.4967C77.4161 71.1143 77.4548 70.6788 77.4337 70.2326C77.4126 69.7829 77.3528 69.3262 77.2226 68.9243C77.0924 68.5171 76.8814 68.1648 76.5665 67.9098C76.2587 67.6567 75.8489 67.5062 75.4585 67.6018C75.0592 67.6921 74.6582 68.0108 74.5702 68.5047Z" fill="#181818"/>
<path d="M63.9963 60.1448C63.247 59.3322 62.4837 58.5001 62.0369 57.4856C61.5902 56.4712 61.511 55.2248 62.1126 54.2953C62.605 53.534 63.4722 53.0879 63.9875 52.3426C64.6664 51.3582 64.6049 50.0056 64.1353 48.9044C63.6639 47.805 62.8425 46.9003 62.0352 46.0204" fill="white"/>
<path d="M63.9642 60.1749C63.667 59.9819 63.3926 59.7659 63.1288 59.534C62.8632 59.3038 62.6152 59.0489 62.3865 58.7709C62.1579 58.4929 61.9521 58.1902 61.7815 57.8609C61.6091 57.5352 61.4825 57.1687 61.4262 56.7987C61.3154 56.0498 61.4719 55.2814 61.778 54.6281C62.084 53.9589 62.6328 53.465 63.0831 52.9551C63.3117 52.7019 63.514 52.4416 63.667 52.1814C63.8183 51.9229 63.9255 51.645 63.9836 51.3528C64.0416 51.0607 64.0557 50.7562 64.0311 50.4535C64.0012 50.1507 63.9484 49.848 63.8675 49.5506C63.7145 48.9575 63.426 48.3732 63.0918 47.7978C62.7577 47.2207 62.3584 46.6595 62.0049 46.0487L62.0699 45.9885C62.6433 46.3939 63.1745 46.8489 63.6512 47.3853C63.8886 47.6544 64.1085 47.9448 64.3002 48.2599C64.4954 48.5715 64.6555 48.9185 64.7698 49.2832C64.9967 50.0091 65.0196 50.8129 64.7892 51.5653C64.6766 51.9389 64.4954 52.3018 64.2386 52.5992C63.9889 52.8984 63.6863 53.1144 63.4032 53.318C63.1182 53.5216 62.8333 53.7075 62.5923 53.9377C62.3496 54.1643 62.1526 54.4334 62.04 54.7414C61.9275 55.0495 61.8993 55.3806 61.931 55.7028C61.9644 56.025 62.0418 56.3366 62.1421 56.634C62.2423 56.935 62.3514 57.2218 62.4833 57.5121C62.6187 57.8007 62.7735 58.0858 62.9441 58.369C63.1147 58.6523 63.2994 58.9338 63.4841 59.2224C63.6705 59.5092 63.8605 59.8013 64.0311 60.1129L63.9642 60.1749Z" fill="#181818"/>
<path d="M67.5192 60.0881C67.7531 59.079 67.4031 57.953 66.638 57.259C66.4059 57.0483 66.1368 56.8713 65.9749 56.6022C65.0779 55.1044 68.36 53.5854 67.6265 52.0009" fill="white"/>
<path d="M67.4762 60.0775C67.4322 59.8721 67.3988 59.688 67.3549 59.5092C67.3091 59.3303 67.2616 59.1621 67.2089 58.9975C67.1526 58.8346 67.0928 58.6753 67.0277 58.5213C66.9556 58.369 66.8905 58.2167 66.8272 58.0592C66.7604 57.9034 66.7006 57.7352 66.6126 57.5758C66.5264 57.4165 66.4121 57.2696 66.2696 57.1315C65.9882 56.8677 65.6558 56.5384 65.5802 56.048C65.5397 55.8107 65.5643 55.5629 65.6312 55.3469C65.6927 55.1274 65.7965 54.9344 65.8985 54.7538C66.1078 54.3909 66.3365 54.0704 66.5792 53.7836C66.8237 53.4986 67.0699 53.2401 67.2652 52.9728C67.4639 52.7037 67.6064 52.4275 67.5888 52.0203L67.6679 51.9831C67.821 52.13 67.9247 52.3478 67.9564 52.5797C67.9916 52.8116 67.9564 53.0489 67.8966 53.2649C67.7699 53.6986 67.5448 54.0563 67.3126 54.3749C67.0787 54.6936 66.8078 54.9574 66.581 55.23C66.4666 55.3664 66.3681 55.5045 66.2749 55.6355C66.1852 55.77 66.1008 55.9028 66.0603 56.0515C66.0199 56.1985 66.0269 56.3684 66.1008 56.5242C66.1711 56.6765 66.2995 56.8075 66.4526 56.9155C66.6056 57.0235 66.785 57.1209 66.9644 57.2412C67.1403 57.3616 67.3109 57.5015 67.4498 57.6715C67.726 58.0131 67.8526 58.4522 67.8825 58.8806C67.9054 59.3109 67.8122 59.7535 67.5624 60.0987L67.4762 60.0775Z" fill="#181818"/>
<path d="M18.2 36.6477C16.413 32.0464 15.0464 27.2716 14.1089 22.4082C13.6481 19.9757 13.2717 17.5236 13.0202 15.0557C12.9621 14.4378 12.9023 13.8217 12.8513 13.2038L12.781 12.2761L12.7458 11.8122C12.737 11.6564 12.7229 11.4759 12.7511 11.2652C12.7739 11.0598 12.8777 10.8031 13.0465 10.6296C13.2119 10.4543 13.4001 10.3552 13.5654 10.2808C13.736 10.2065 13.8855 10.1604 14.028 10.1109L14.4624 9.96039L16.2055 9.3673L23.1776 6.99847L30.1586 4.65798L37.1501 2.35112L44.1539 0.0814394L44.4036 0L44.5004 0.237236C45.313 2.24312 46.1238 4.24724 46.9241 6.25844L48.1201 9.27523L49.3003 12.2991L47.953 9.34782L46.6216 6.38945C45.7351 4.41543 44.8609 2.43787 43.9868 0.458539L44.3333 0.614336L37.3858 3.05752L30.4259 5.46352L23.4555 7.83588L16.4746 10.1781L14.7298 10.7624L14.2936 10.9058C14.1458 10.9554 14.0034 10.9996 13.8908 11.0474C13.7765 11.0952 13.6885 11.1483 13.6428 11.1979C13.5971 11.2475 13.5742 11.2882 13.5566 11.3873C13.525 11.575 13.5672 11.9256 13.5795 12.2248L13.6358 13.1454C13.678 13.7579 13.729 14.3705 13.7782 14.9831C14.0016 17.4316 14.2989 19.873 14.7069 22.3002C15.5002 27.1565 16.698 31.9472 18.2 36.6477Z" fill="#181818"/>
<path d="M29.3321 9.57969C29.4464 9.64342 29.5748 9.67706 29.7049 9.67883C29.7718 9.6806 29.8386 9.67175 29.9037 9.65582C29.9301 9.64873 29.9565 9.64165 29.9828 9.63103C30.0092 9.62041 30.0339 9.61156 30.0497 9.585C30.0602 9.56552 30.062 9.54251 30.0638 9.52126C30.0778 9.32652 29.8843 9.1902 29.7102 9.17603C29.6012 9.16718 29.5009 9.21498 29.4376 9.3035C29.4094 9.34245 29.4306 9.40265 29.4693 9.42389C29.5132 9.45045 29.5607 9.43097 29.5889 9.39202C29.5765 9.40973 29.5871 9.39379 29.5906 9.39025C29.5941 9.38494 29.5994 9.3814 29.6029 9.37786C29.6152 9.36547 29.5889 9.38494 29.6029 9.37786C29.6082 9.37432 29.6135 9.37078 29.6205 9.36724C29.6223 9.36547 29.6416 9.35662 29.6276 9.3637C29.6135 9.36901 29.6328 9.36193 29.6363 9.36016C29.6416 9.35839 29.6469 9.35662 29.6539 9.35484C29.6575 9.35484 29.6768 9.34953 29.6627 9.35307C29.6469 9.35485 29.668 9.35307 29.6715 9.35307C29.6786 9.35307 29.6856 9.35307 29.6926 9.35307C29.6979 9.35307 29.7049 9.35307 29.7102 9.35307C29.7173 9.35307 29.7348 9.35839 29.7102 9.35307C29.7348 9.35839 29.7577 9.3637 29.7806 9.37255C29.7595 9.3637 29.7771 9.37078 29.7823 9.37432C29.7876 9.37786 29.7929 9.37963 29.7982 9.38317C29.8087 9.38848 29.8193 9.39733 29.8281 9.40265C29.8105 9.39202 29.8245 9.3991 29.8298 9.40442C29.8351 9.40796 29.8386 9.41327 29.8439 9.41681C29.8474 9.42035 29.8527 9.42566 29.8562 9.4292C29.865 9.43805 29.865 9.43982 29.858 9.4292C29.865 9.43805 29.8703 9.44868 29.8773 9.4593C29.8843 9.46992 29.8826 9.47169 29.8773 9.4593C29.8791 9.46461 29.8808 9.46992 29.8826 9.47523C29.8843 9.48231 29.8843 9.4894 29.8879 9.49471C29.8896 9.50002 29.8879 9.47523 29.8879 9.49471C29.8879 9.50002 29.8879 9.5071 29.8879 9.51241C29.8879 9.51772 29.8843 9.54074 29.8879 9.51595C29.909 9.49471 29.9283 9.47523 29.9494 9.45399C29.7735 9.52481 29.5818 9.51595 29.42 9.42566C29.3778 9.40265 29.3233 9.41504 29.3004 9.45753C29.2775 9.50002 29.2898 9.55667 29.3321 9.57969Z" fill="#181818"/>
<path d="M17.418 22.2914C18.0582 21.9833 18.6931 21.7213 19.3387 21.4823C19.9842 21.245 20.6332 21.0291 21.291 20.8361C21.9471 20.6413 22.6101 20.4696 23.2803 20.3209C23.9522 20.1722 24.6258 20.0482 25.3311 19.9597C24.7612 20.3917 24.128 20.7033 23.4931 20.983C22.8546 21.2574 22.2003 21.4894 21.5372 21.6841C20.8741 21.8789 20.1987 22.0364 19.5145 22.1515C18.8286 22.2613 18.1303 22.3409 17.418 22.2914Z" fill="#181818"/>
<path d="M18.6426 27.8487C19.0999 27.4681 19.6205 27.2131 20.1341 26.9794C20.6512 26.751 21.1789 26.5581 21.7118 26.3917C22.2447 26.2235 22.783 26.0818 23.3264 25.9614C23.5991 25.9012 23.8717 25.8464 24.1461 25.7933C24.424 25.7419 24.6948 25.6941 24.9833 25.6268C24.9376 25.6835 24.8848 25.7348 24.8338 25.7915C24.781 25.8464 24.723 25.8871 24.6667 25.9367C24.5524 26.0358 24.431 26.1137 24.3097 26.1951C24.0652 26.3545 23.8119 26.4908 23.5551 26.6165C23.0398 26.8644 22.5121 27.0662 21.9739 27.2344C21.4374 27.4026 20.8922 27.5371 20.3381 27.6398C19.7806 27.7443 19.2265 27.8115 18.6426 27.8487Z" fill="#181818"/>
<path d="M16.1091 48.3785C20.9512 51.1262 26.7362 51.4484 32.2871 51.7052C31.7401 56.9173 31.1069 62.1188 30.3876 67.3096C30.3489 67.5929 30.2943 67.9045 30.078 68.0904C29.9391 68.2108 29.7561 68.2586 29.5785 68.3011C24.024 69.6271 17.9488 68.579 13.1507 65.4666C12.9449 65.3321 12.7303 65.1834 12.6318 64.9568C12.5263 64.7124 12.5773 64.4309 12.6318 64.1689C13.6854 59.0701 14.9975 54.0262 16.5611 49.0619" fill="#4FBA6F"/>
<path d="M22.7162 52.9143C22.5087 52.9781 22.5544 53.3481 22.7672 53.3906C22.9801 53.4331 23.1718 53.1781 23.1102 52.9692C23.0469 52.7603 22.7989 52.6452 22.5878 52.6877" stroke="white" stroke-width="3" stroke-miterlimit="10"/>
<path d="M19.0075 55.8444C18.304 56.6056 17.7904 57.5139 17.523 58.4805C17.458 58.7213 17.3982 58.9638 17.363 59.2099C17.3278 59.456 17.2926 59.7092 17.3208 59.911C17.3471 60.1164 17.4281 60.2403 17.5564 60.3076C17.6866 60.3766 17.8871 60.3855 18.0824 60.3395C18.2829 60.2952 18.457 60.2014 18.6505 60.0633C18.8387 59.9323 19.0216 59.7747 19.208 59.603C19.3945 59.433 19.5844 59.2507 19.799 59.0754C20.0153 58.8966 20.2563 58.7319 20.5254 58.6009C20.7945 58.4717 21.097 58.3708 21.4312 58.3601C21.5966 58.3531 21.7672 58.369 21.9343 58.4097C22.0222 58.4327 22.1348 58.4646 22.2632 58.5584C22.3951 58.6487 22.5059 58.8346 22.5288 58.9851C22.5569 59.1373 22.5393 59.2542 22.5217 59.348C22.5024 59.4454 22.4778 59.5144 22.4602 59.5764C22.4197 59.7057 22.3793 59.8349 22.3335 59.9641C22.2438 60.2208 22.1418 60.4722 22.031 60.7201C21.9202 60.9644 21.7918 61.2141 21.6652 61.4407C21.5473 61.6531 21.4523 61.8603 21.44 61.9983C21.426 62.1294 21.4629 62.186 21.528 62.2285C21.6018 62.2781 21.79 62.2887 21.9677 62.2409C22.0574 62.2179 22.1471 62.1825 22.2262 62.1364C22.2966 62.0975 22.3916 62.0249 22.4813 61.9505C22.6642 61.7983 22.8542 61.6142 23.0881 61.4389C23.3238 61.2654 23.6087 61.0954 23.9675 61.0547C24.3281 61.0087 24.6711 61.1362 24.9349 61.3185C25.204 61.5026 25.4063 61.7576 25.5347 62.0532C25.6613 62.3453 25.7088 62.6994 25.5962 63.0234C25.5452 63.1969 25.4643 63.3085 25.4291 63.397C25.3887 63.4855 25.394 63.5174 25.4028 63.5581C25.4063 63.5846 25.452 63.6271 25.547 63.6555C25.6402 63.682 25.7563 63.6926 25.8741 63.698C25.9937 63.7033 26.1204 63.7015 26.2505 63.6997C26.3191 63.7015 26.3948 63.7033 26.4651 63.7086C26.5355 63.7192 26.6076 63.7245 26.6762 63.7422C26.9541 63.8042 27.2109 63.9263 27.429 64.0945C27.8652 64.4256 28.1554 64.9408 28.1712 65.4648C28.0569 64.9549 27.7157 64.5354 27.2935 64.2981C27.0825 64.1813 26.8521 64.1016 26.6217 64.0804C26.5636 64.0715 26.5056 64.0768 26.4493 64.0733C26.3912 64.0768 26.3367 64.0821 26.2787 64.0874C26.152 64.1051 26.0201 64.1229 25.8829 64.1335C25.7457 64.1423 25.6015 64.1441 25.4432 64.1175C25.3623 64.0998 25.2779 64.0786 25.1899 64.029C25.1038 63.9848 25.0158 63.9016 24.9595 63.8042C24.9314 63.7546 24.9085 63.7033 24.898 63.6519C24.8821 63.6023 24.8751 63.5457 24.8733 63.4926C24.8716 63.3846 24.8944 63.2908 24.9208 63.2129C24.9718 63.0571 25.0334 62.9473 25.0422 62.8659C25.1284 62.5188 24.8927 62.0904 24.5603 61.8992C24.2138 61.6956 23.913 61.7682 23.5612 62.0603C23.3889 62.2019 23.2147 62.3861 23.0054 62.572C22.8999 62.664 22.7944 62.7579 22.6431 62.8517C22.5006 62.9402 22.3511 63.0057 22.1928 63.0517C22.0345 63.0978 21.8674 63.1279 21.6898 63.1243C21.5121 63.1208 21.3169 63.0889 21.127 62.9898C20.9352 62.8924 20.7681 62.7154 20.6767 62.5189C20.5817 62.3223 20.5553 62.0957 20.5764 61.9081C20.6222 61.5274 20.7752 61.2636 20.8983 61.0228C21.0232 60.7962 21.1287 60.5838 21.2325 60.3572C21.3345 60.1323 21.4277 59.9039 21.5121 59.672C21.5544 59.5569 21.5931 59.4383 21.63 59.3215C21.6493 59.2595 21.6652 59.2064 21.6722 59.1763C21.6792 59.1444 21.6757 59.1285 21.681 59.1533C21.681 59.1763 21.7214 59.2418 21.7496 59.2577C21.7742 59.2737 21.7619 59.2613 21.7267 59.2524C21.6423 59.2312 21.5544 59.2206 21.4629 59.2223C21.28 59.2241 21.0795 59.2808 20.8825 59.3657C20.6837 59.4543 20.4902 59.5746 20.3038 59.718C20.1138 59.8632 19.9221 60.0296 19.7181 60.1978C19.5141 60.366 19.2995 60.5395 19.055 60.69C18.8193 60.8369 18.5221 60.9768 18.2125 61.0211C17.9082 61.0671 17.56 61.0565 17.2399 60.8617C17.0816 60.7644 16.9496 60.6174 16.8687 60.4528C16.7861 60.2881 16.7597 60.1128 16.7544 59.9571C16.7474 59.6384 16.816 59.3781 16.8758 59.1161C16.9391 58.8523 17.0235 58.5974 17.122 58.346C17.5178 57.3439 18.1721 56.4622 19.0075 55.8444Z" fill="white"/>
<path d="M43.1484 14.5688C42.2056 17.4846 41.7079 20.5475 41.678 23.6138C41.6762 23.8882 41.6815 24.1786 41.8239 24.4123C41.9981 24.6973 42.3358 24.8319 42.6524 24.9363C46.6907 26.2695 51.0668 25.8516 55.2951 25.4197C55.4393 25.4055 55.5976 25.3843 55.6979 25.2763C55.7876 25.1807 55.8069 25.039 55.821 24.908C56.1798 21.6097 56.4683 18.3043 56.6846 14.9954C56.6969 14.8131 56.7022 14.6095 56.5843 14.4678C56.5087 14.3758 56.3926 14.3297 56.2818 14.2873C53.0473 13.0391 49.577 12.4124 46.1138 12.4496" fill="white"/>
<path d="M43.1479 14.5688C42.8982 15.4947 42.6889 16.4295 42.513 17.3678C42.3441 18.3079 42.2069 19.2533 42.1208 20.2005C42.0311 21.1477 41.9801 22.0984 41.9765 23.0491L41.9818 23.7555C41.9871 23.9768 42.024 24.1591 42.1067 24.2654C42.1876 24.3787 42.3459 24.4725 42.5446 24.5451C42.7399 24.6195 42.9808 24.6761 43.2007 24.7416C45 25.232 46.8732 25.4303 48.7517 25.4179C50.6319 25.4179 52.5174 25.2603 54.4065 25.0638L55.117 24.9948L55.2894 24.9771C55.3387 24.9718 55.3738 24.9647 55.3914 24.9594C55.409 24.9541 55.4055 24.9523 55.3879 24.9665C55.3703 24.9806 55.3598 25.0036 55.365 24.9966C55.3738 24.9877 55.3879 24.8762 55.4002 24.7522L55.4407 24.3964L55.5181 23.6829L55.81 20.8272C56.0088 18.924 56.1653 17.0155 56.3324 15.1088C56.343 14.9866 56.3553 14.8697 56.3518 14.7936C56.3483 14.7104 56.3324 14.6874 56.3289 14.6803C56.3219 14.6644 56.248 14.6237 56.1337 14.5812L55.8048 14.4519C55.3668 14.2784 54.9218 14.1226 54.4768 13.9686C53.5833 13.6641 52.674 13.4091 51.7506 13.1985C49.9073 12.7683 48.0182 12.531 46.1134 12.4514C48.0182 12.3345 49.9407 12.4567 51.835 12.7736C52.7813 12.9364 53.7205 13.1507 54.6474 13.4145C55.11 13.5455 55.5708 13.6924 56.0246 13.8518L56.3658 13.9721C56.4731 14.0146 56.6314 14.0554 56.795 14.2094C56.8742 14.2873 56.9357 14.39 56.9691 14.4838C57.0043 14.5794 57.0166 14.6697 57.0237 14.7494C57.0342 14.914 57.0219 15.0362 57.0166 15.153C56.9304 17.0721 56.7897 18.9877 56.6385 20.9033C56.5611 21.8611 56.4679 22.8172 56.3729 23.7732L56.3008 24.4902L56.2638 24.8478L56.2427 25.0373C56.2322 25.1116 56.2181 25.2019 56.1794 25.3081C56.1425 25.4126 56.0651 25.5401 55.9578 25.6321C55.8505 25.7242 55.7362 25.7738 55.6394 25.8021C55.5427 25.8304 55.46 25.841 55.3914 25.8499L55.2085 25.8694L54.4962 25.9437C52.5966 26.1243 50.6794 26.2836 48.7464 26.2535C46.8187 26.2181 44.8664 25.9951 43.009 25.402C42.7751 25.3241 42.5517 25.2639 42.3037 25.1612C42.0627 25.0603 41.7813 24.9133 41.5878 24.6283C41.4911 24.4884 41.4383 24.3273 41.4084 24.1804C41.3803 24.0317 41.375 23.8936 41.375 23.7643C41.3768 23.5094 41.3943 23.2775 41.4031 23.0332C41.4559 22.0665 41.5526 21.1034 41.6951 20.1474C41.9906 18.2389 42.4673 16.3622 43.1479 14.5688Z" fill="#181818"/>
<path d="M35.9374 7.84115C34.9947 10.757 34.4969 13.8199 34.467 16.8862C34.4653 17.1606 34.4705 17.451 34.613 17.6847C34.7871 17.9697 35.1248 18.1043 35.4414 18.2087C39.4798 19.5419 43.8559 19.124 48.0842 18.6921C48.2284 18.6779 48.3867 18.6567 48.487 18.5487C48.5767 18.4531 48.596 18.3114 48.6101 18.1804C48.9689 14.8821 49.2573 11.5767 49.4737 8.26783C49.486 8.08547 49.4913 7.88187 49.3734 7.74024C49.2978 7.64818 49.1817 7.60215 49.0709 7.55966C45.8363 6.31151 42.3661 5.68478 38.9029 5.72196" fill="white"/>
<path d="M35.937 7.84117C35.6872 8.7671 35.4779 9.70189 35.3021 10.6402C35.1332 11.5803 34.996 12.5257 34.9098 13.4729C34.8201 14.4201 34.7691 15.3708 34.7656 16.3215L34.7709 17.0279C34.7761 17.2492 34.8131 17.4315 34.8958 17.5378C34.9767 17.6511 35.135 17.7449 35.3337 17.8175C35.5289 17.8919 35.7699 17.9485 35.9898 18.014C37.7891 18.5044 39.6623 18.7027 41.5408 18.6903C43.421 18.6903 45.3065 18.5327 47.1955 18.3362L47.9061 18.2672L48.0785 18.2495C48.1277 18.2442 48.1629 18.2371 48.1805 18.2318C48.1981 18.2265 48.1946 18.2247 48.177 18.2389C48.1594 18.253 48.1488 18.276 48.1541 18.269C48.1629 18.2601 48.177 18.1486 48.1893 18.0246L48.2297 17.6688L48.3071 16.9553L48.5991 14.0996C48.7979 12.1964 48.9544 10.2879 49.1215 8.38115C49.1321 8.25899 49.1444 8.14215 49.1408 8.06602C49.1373 7.98281 49.1215 7.95979 49.118 7.95271C49.1109 7.93678 49.0371 7.89606 48.9227 7.85357L48.5938 7.72433C48.1559 7.55082 47.7109 7.39503 47.2659 7.241C46.3724 6.93649 45.463 6.68155 44.5396 6.47087C42.6963 6.04066 40.8073 5.80342 38.9025 5.72375C40.8073 5.6069 42.7298 5.72906 44.6241 6.04597C45.5703 6.20885 46.5096 6.42307 47.4365 6.68686C47.8991 6.81787 48.3599 6.96482 48.8137 7.12415L49.1549 7.24454C49.2622 7.28703 49.4205 7.32775 49.5841 7.48178C49.6632 7.55968 49.7248 7.66236 49.7582 7.75619C49.7934 7.8518 49.8057 7.94209 49.8127 8.02176C49.8233 8.18641 49.811 8.30856 49.8057 8.42541C49.7195 10.3445 49.5788 12.2601 49.4275 14.1757C49.3501 15.1335 49.2569 16.0896 49.162 17.0456L49.0898 17.7626L49.0529 18.1202L49.0318 18.3097C49.0212 18.384 49.0072 18.4743 48.9685 18.5805C48.9315 18.685 48.8541 18.8125 48.7469 18.9045C48.6396 18.9966 48.5252 19.0462 48.4285 19.0745C48.3318 19.1028 48.2491 19.1134 48.1805 19.1223L47.9976 19.1418L47.2852 19.2161C45.3857 19.3967 43.4685 19.556 41.5355 19.5259C39.6078 19.4905 37.6554 19.2675 35.7981 18.6744C35.5641 18.5965 35.3407 18.5363 35.0927 18.4336C34.8518 18.3327 34.5704 18.1857 34.3769 17.9007C34.2801 17.7608 34.2274 17.5997 34.1975 17.4528C34.1693 17.3041 34.1641 17.166 34.1641 17.0367C34.1658 16.7818 34.1834 16.5499 34.1922 16.3056C34.245 15.3389 34.3417 14.3758 34.4842 13.4198C34.7797 11.5113 35.2563 9.63461 35.937 7.84117Z" fill="#181818"/>
<path d="M52.9648 11.5325C53.1126 10.8191 53.401 10.1481 53.7599 9.51958C54.1204 8.89285 54.5601 8.31038 55.0614 7.78634C55.5609 7.26229 56.1238 6.79844 56.7323 6.41072C57.3427 6.02654 57.997 5.7114 58.7005 5.53613C58.1746 6.03539 57.654 6.49216 57.1527 6.96309C56.6497 7.43225 56.166 7.9085 55.6964 8.40067C55.2267 8.89108 54.7712 9.39742 54.3244 9.92146C53.8724 10.442 53.4397 10.9837 52.9648 11.5325Z" fill="#181818"/>
<path d="M55.2734 4.76246C55.9559 4.42962 56.6893 4.23133 57.4351 4.11271C58.1808 3.9994 58.9424 3.97462 59.697 4.03304C60.0734 4.06491 60.4498 4.11625 60.8209 4.18707L61.0988 4.24726C61.1815 4.26674 61.3028 4.28267 61.4611 4.36057C61.5385 4.39952 61.637 4.46325 61.7162 4.5801C61.7953 4.69341 61.8252 4.85275 61.8059 4.96782C61.79 5.0829 61.7513 5.15726 61.7232 5.21391C61.6915 5.27057 61.6722 5.30066 61.6476 5.34315C61.2589 5.97519 60.8455 6.59484 60.3548 7.17554C60.5184 6.43019 60.7629 5.72556 61.0302 5.03156C61.046 4.99084 61.0671 4.9395 61.0759 4.91294C61.0847 4.88638 61.0812 4.87045 61.0742 4.89347C61.0654 4.91648 61.0742 4.97845 61.0988 5.0174C61.1252 5.05812 61.1445 5.06697 61.1375 5.06874L60.6978 5.01917C60.3425 4.98199 59.9854 4.94658 59.6301 4.91825C58.9178 4.8616 58.2037 4.82619 57.4826 4.80849L56.3921 4.78901C56.021 4.77662 55.6534 4.7837 55.2734 4.76246Z" fill="#181818"/>
<path d="M31.0281 50.6092C31.1846 49.2248 31.4044 47.8509 31.6648 46.4824C31.7949 45.799 31.9409 45.1174 32.0869 44.4375C32.2399 43.7577 32.4052 43.0814 32.5723 42.4069C32.9206 41.0596 33.2917 39.7158 33.7226 38.3916C34.1518 37.0673 34.6355 35.7589 35.1614 34.4719L35.2511 34.2523L35.4622 34.2895C36.6635 34.5002 37.8507 34.7746 39.0309 35.0703C39.6184 35.226 40.2076 35.3765 40.7898 35.5483C41.3719 35.72 41.9559 35.8882 42.5328 36.0812L42.6524 36.1219L42.6243 36.2494L42.2655 37.864L41.926 39.4839L41.2471 42.7256C40.7898 44.8855 40.2621 47.0294 39.7256 49.1716L39.3123 50.7757C39.1734 51.3103 39.0221 51.8414 38.8761 52.3743L38.4206 53.9677L37.9351 55.5522C37.2791 57.6626 36.5544 59.7535 35.7612 61.816L35.6679 62.0585L35.4323 62.0231C34.4596 61.8797 33.501 61.6584 32.5653 61.3699C32.0974 61.2229 31.6384 61.0583 31.1846 60.8777C30.7308 60.6989 30.284 60.5006 29.8496 60.2828L29.883 60.2014C30.3421 60.3572 30.8029 60.5023 31.2655 60.6351C31.7298 60.7661 32.1977 60.8794 32.6673 60.9786C33.6065 61.1822 34.5546 61.322 35.5061 61.4017L35.1772 61.6089C35.8368 59.5091 36.4594 57.4006 37.0715 55.2885L38.8726 48.938L40.6227 42.5662C40.9199 41.504 41.2224 40.4435 41.5091 39.3795L41.9436 37.7825L42.3552 36.1803L42.4466 36.3467C41.875 36.1538 41.3016 35.9661 40.7194 35.8085C40.1372 35.6492 39.5533 35.4987 38.9623 35.3783C37.7839 35.1251 36.5878 34.9605 35.39 34.8454L35.6908 34.6631L34.4719 38.6306C34.0691 39.9531 33.6593 41.272 33.2829 42.6034L32.998 43.6001L32.7148 44.5969L32.4387 45.5972L32.1696 46.5992L31.1142 50.6252L31.0281 50.6092Z" fill="#181818"/>
<path d="M39.0282 50.4074C40.1803 48.9929 41.401 47.6456 42.6339 46.3107L43.5644 45.3157L44.5071 44.3331C45.1315 43.6745 45.777 43.0354 46.4313 42.4051C46.7585 42.0918 47.0909 41.782 47.4233 41.4721L47.9246 41.01L48.1796 40.7764C48.2729 40.6931 48.3889 40.5993 48.5437 40.5409C48.6968 40.4842 48.8674 40.4825 49.0098 40.5161C49.1523 40.5515 49.2772 40.6099 49.3862 40.679C49.6078 40.8171 49.7714 40.987 49.9368 41.1446C50.2709 41.465 50.5823 41.805 50.876 42.1608C51.4617 42.8725 51.9682 43.6462 52.3798 44.4712C52.5839 44.8855 52.765 45.3122 52.9233 45.7477C53.0025 45.9655 53.0693 46.1885 53.1397 46.4098C53.203 46.6329 53.2716 46.8949 53.2206 47.187C53.1678 47.4739 53.0218 47.704 52.8899 47.8988L52.4871 48.4635C52.211 48.8335 51.9243 49.1965 51.6182 49.5417C51.0132 50.2392 50.3589 50.889 49.68 51.5086C48.3256 52.7497 46.8957 53.8828 45.4604 54.9893C44.0199 56.0923 42.5653 57.1758 41.0932 58.238C39.6192 59.2985 38.1383 60.3484 36.6151 61.3433L36.5605 61.2725C37.899 60.0368 39.2798 58.8559 40.6675 57.6856C42.057 56.5172 43.4641 55.3699 44.8835 54.2404C46.3064 53.1109 47.7645 52.0433 49.1294 50.8801C49.8136 50.2994 50.4697 49.6904 51.0994 49.0566C51.416 48.7415 51.7185 48.4122 52.0193 48.0811L52.4537 47.5712C52.5909 47.4048 52.7035 47.2437 52.7474 47.0826C52.7932 46.9268 52.7703 46.7267 52.7263 46.5107C52.6788 46.293 52.6296 46.0752 52.5663 45.861C52.4467 45.4308 52.2919 45.0077 52.109 44.5987C51.7378 43.7825 51.2506 43.0159 50.6579 42.3432C50.3589 42.0103 50.037 41.6987 49.694 41.4119C49.5199 41.2703 49.351 41.1269 49.1752 41.0419C48.9993 40.9481 48.8304 40.9286 48.7214 40.9888C48.6669 41.0171 48.6053 41.072 48.5367 41.1464L48.3133 41.396L47.8613 41.9059C47.5588 42.244 47.2545 42.5822 46.9467 42.9168C46.3293 43.5842 45.7014 44.2393 45.0559 44.8766L44.0903 45.838L43.1123 46.7869C41.802 48.0439 40.4758 49.2868 39.0845 50.4641L39.0282 50.4074Z" fill="#181818"/>
<path d="M37.9395 62.7136C39.4591 62.6782 40.9682 62.602 42.4703 62.4462L43.5942 62.3188L44.7129 62.1647L45.828 61.9877L46.9361 61.7788L48.0389 61.5504L49.1346 61.2919L50.2234 61.0051L51.3069 60.6988L52.3815 60.3625L53.4456 59.996C53.7957 59.8632 54.1509 59.7375 54.5027 59.6083L55.5492 59.194L55.2889 59.6543L55.048 57.9033L54.8246 56.1506C54.7525 55.5664 54.6716 54.9821 54.6047 54.3961L54.501 53.518C54.4939 53.4472 54.4851 53.3941 54.4763 53.3622C54.4658 53.3286 54.464 53.3303 54.4728 53.3356C54.4816 53.3392 54.4781 53.3303 54.4429 53.3268C54.4077 53.3215 54.3532 53.3232 54.2899 53.3303C53.713 53.3976 53.1273 53.4578 52.5451 53.518C51.9629 53.5782 51.3807 53.6419 50.7968 53.6933C49.6307 53.8048 48.4628 53.9075 47.2914 53.9889C48.4399 53.7446 49.5902 53.5233 50.744 53.3109C51.3192 53.2011 51.8978 53.1019 52.4747 52.9993C53.0534 52.8983 53.6268 52.7939 54.209 52.7001C54.2899 52.6877 54.3814 52.6753 54.4939 52.6806C54.603 52.6859 54.7472 52.7178 54.8738 52.8134C55.0005 52.9072 55.0744 53.0435 55.1113 53.148C55.1482 53.256 55.1641 53.348 55.1764 53.4242L55.3241 54.2952C55.4244 54.8759 55.5105 55.4584 55.6055 56.0408L55.8834 57.7865L56.1437 59.5339L56.193 59.8685L55.8834 59.9942L54.8193 60.428C54.4605 60.5625 54.1017 60.7006 53.7411 60.8298L52.6506 61.1928L51.5496 61.5256L50.4415 61.8266L49.3228 62.0868L48.1972 62.3152L47.0662 62.51L45.93 62.664L44.7902 62.7862L43.647 62.8694L42.5037 62.9172C40.9735 62.9526 39.4486 62.8977 37.9395 62.7136Z" fill="#181818"/>
<path d="M33.4439 46.5993C33.1519 47.5358 32.9672 48.5078 32.9004 49.4886C34.0823 49.6497 35.2643 49.8108 36.4463 49.9719C36.5835 49.9914 36.733 50.0056 36.849 49.9312C36.9739 49.8498 37.0179 49.6904 37.0496 49.5435C37.1832 48.9079 37.2395 48.2582 37.2184 47.6084C37.2149 47.5217 37.2079 47.4296 37.1516 47.3641C37.1006 47.3057 37.0197 47.2844 36.944 47.2667C35.7849 46.987 34.6258 46.7073 33.4667 46.4276" fill="#181818"/>
<path d="M34.8638 41.5996C34.5718 42.5361 34.3889 43.5081 34.3203 44.4889C35.5023 44.65 36.4468 45.2874 37.6287 45.4485C37.7659 45.468 37.9154 45.4821 38.0315 45.4078C38.1564 45.3263 38.2004 45.167 38.232 45.02C38.3657 44.3845 38.6577 43.2585 38.6366 42.6087C38.6331 42.522 38.626 42.4299 38.5697 42.3644C38.5187 42.306 38.4378 42.2847 38.3622 42.267C37.2031 41.9873 36.044 41.7076 34.8849 41.4279" fill="#181818"/>
<path d="M36.2818 36.839C35.9898 37.7755 35.8051 38.7475 35.7383 39.7283C36.9202 39.8894 37.8648 40.5268 39.0467 40.6879C39.1839 40.7073 39.3334 40.7215 39.4495 40.6471C39.5744 40.5657 39.6183 40.4064 39.65 40.2594C39.7837 39.6238 40.0756 38.4979 40.0545 37.8481C40.051 37.7614 40.044 37.6693 39.9877 37.6038C39.9367 37.5454 39.8558 37.5241 39.7802 37.5064C38.6211 37.2267 37.462 36.947 36.3029 36.6672" fill="#181818"/>
<path d="M41.408 50.4358C40.6658 51.0749 39.9992 51.8007 39.4258 52.5957C40.3439 53.3623 41.2603 54.1306 42.1784 54.8972C42.2839 54.9857 42.4035 55.0796 42.5407 55.0778C42.6885 55.076 42.8116 54.9645 42.9136 54.8565C43.3604 54.3891 43.7508 53.8668 44.0745 53.3056C44.1167 53.2312 44.1607 53.148 44.1466 53.0631C44.1343 52.9869 44.0762 52.925 44.0217 52.8701C43.1862 52.015 42.3508 51.1581 41.5153 50.303" fill="#4FBA6F"/>
<path d="M45.242 46.9516C44.4998 47.5907 43.8332 48.3166 43.2598 49.1115C44.1779 49.8781 44.644 50.9226 45.5604 51.691C45.6659 51.7795 45.7855 51.8733 45.9227 51.8716C46.0704 51.8698 46.1936 51.7583 46.2956 51.6503C46.7423 51.1829 47.5848 50.3826 47.9067 49.8214C47.9489 49.7471 47.9929 49.6639 47.9788 49.5789C47.9665 49.5027 47.9085 49.4408 47.8539 49.3859C47.0185 48.5308 46.183 47.6739 45.3475 46.8188" fill="#4FBA6F"/>
<path d="M48.951 43.671C48.2087 44.3101 47.5421 45.036 46.9688 45.8309C47.8869 46.5975 48.353 47.642 49.2693 48.4104C49.3749 48.4989 49.4945 48.5928 49.6317 48.591C49.7794 48.5892 49.9025 48.4777 50.0045 48.3697C50.4513 47.9023 51.2938 47.1021 51.6157 46.5408C51.6579 46.4665 51.7019 46.3833 51.6878 46.2983C51.6755 46.2222 51.6174 46.1602 51.5629 46.1053C50.7274 45.2502 49.892 44.3933 49.0565 43.5382" fill="#4FBA6F"/>
<path d="M50.8775 55.3309C51.4826 55.1786 52.0876 55.0264 52.6927 54.8741C52.7666 54.8564 52.8528 54.8405 52.9108 54.883C52.9495 54.9131 52.96 54.9609 52.9671 55.0034C53.1518 56.0143 53.3188 57.0269 53.4684 58.0414C53.4947 58.2167 53.5123 58.4132 53.3822 58.5495C53.3118 58.6239 53.2063 58.6681 53.1043 58.7071C52.2512 59.0346 51.3296 59.2276 50.3974 59.2772C50.3428 59.2807 50.2813 59.2807 50.2408 59.2471C50.2092 59.2223 50.2004 59.1833 50.1933 59.1461C50.0544 58.4716 49.9154 57.7989 49.7765 57.1243C49.678 56.6481 49.5865 56.1329 49.8381 55.7009C49.8556 55.6708 49.8732 55.6301 49.8433 55.6071C49.8152 55.5841 49.7747 55.6496 49.8134 55.6442" fill="white"/>
<path d="M50.8721 55.3061C51.3681 55.0759 51.8782 54.9024 52.3918 54.7396L52.5852 54.6811C52.645 54.6652 52.7207 54.628 52.8543 54.6333C52.9194 54.6369 53.0179 54.6634 53.09 54.7396C53.1621 54.8175 53.1797 54.8971 53.1903 54.9414L53.229 55.145C53.2817 55.4105 53.3187 55.6796 53.3468 55.9487C53.4031 56.4887 53.4066 57.0376 53.4787 57.5722C53.4963 57.7068 53.5157 57.8396 53.5403 57.9741C53.5632 58.1051 53.5896 58.2503 53.5597 58.4114C53.5438 58.4911 53.5034 58.5725 53.4418 58.6345C53.382 58.6964 53.3134 58.7389 53.2501 58.7726C53.1199 58.8363 53.0003 58.893 52.8737 58.9478C52.3742 59.1762 51.843 59.3426 51.2995 59.44C51.0286 59.4914 50.7543 59.5285 50.4781 59.5516C50.4412 59.5551 50.4165 59.5586 50.362 59.5604C50.311 59.5604 50.2407 59.564 50.1386 59.5162C50.0894 59.4931 50.0331 59.4489 49.9979 59.3975C49.961 59.348 49.9434 59.3002 49.9329 59.2665C49.9135 59.1957 49.9135 59.1833 49.9047 59.1444L49.8238 58.7478C49.7236 58.2167 49.6374 57.682 49.5688 57.1438C49.5336 56.8729 49.5019 56.5843 49.5424 56.294C49.5617 56.1488 49.6022 56.0054 49.6655 55.8726C49.6972 55.8071 49.7376 55.7452 49.7798 55.6885C49.8027 55.6619 49.8115 55.6389 49.8168 55.646C49.8115 55.646 49.8432 55.6478 49.8344 55.6425C49.8326 55.6425 49.8291 55.646 49.8291 55.6425C49.8291 55.6425 49.8291 55.6301 49.8185 55.6248C49.8097 55.6212 49.8097 55.623 49.8097 55.623L49.8168 55.6761C49.6884 55.623 49.8484 55.5185 49.8906 55.6035C49.9258 55.6743 49.8889 55.7186 49.8819 55.7487C49.859 55.8089 49.8414 55.8709 49.8308 55.9328C49.8062 56.0567 49.8045 56.1824 49.8115 56.3064C49.8326 56.556 49.9012 56.8056 49.9751 57.0623C50.1228 57.5829 50.2565 58.1069 50.3761 58.6345L50.4588 59.0311L50.4728 59.1072C50.4711 59.1054 50.4676 59.0895 50.4517 59.0665C50.4359 59.0435 50.406 59.0204 50.3866 59.0134C50.3444 58.9956 50.3444 59.0045 50.3603 59.0045C50.3743 59.0063 50.4148 59.0045 50.4465 59.0027C50.7068 58.9939 50.9671 58.9762 51.2274 58.9478C51.4877 58.9195 51.7463 58.877 52.0048 58.8328C52.2634 58.7867 52.5237 58.7407 52.7805 58.6752C52.9071 58.6433 53.0425 58.6097 53.1586 58.569C53.2765 58.5283 53.3556 58.4734 53.3855 58.3689C53.4189 58.2645 53.4014 58.1335 53.382 58.0007C53.3627 57.8679 53.338 57.7351 53.3116 57.6023C53.2079 57.0712 53.0355 56.5525 52.9159 56.0266C52.8561 55.7629 52.8051 55.4991 52.7699 55.2317L52.7418 55.037C52.7383 55.0157 52.7365 55.0281 52.7611 55.0565C52.7875 55.083 52.8174 55.0866 52.8156 55.0848C52.8139 55.0795 52.7576 55.0866 52.689 55.1025L52.492 55.1414C51.9626 55.2406 51.4314 55.3273 50.8862 55.361L50.8721 55.3061Z" fill="#181818"/>
<path d="M45.8285 56.0214C46.5391 55.9665 47.2514 55.9099 47.962 55.855C48.006 55.8515 48.0517 55.8479 48.0904 55.8656C48.1678 55.901 48.1784 55.9931 48.1784 56.071C48.1731 57.027 48.1678 57.9848 48.1625 58.9409C48.1608 59.194 48.1432 59.4791 47.9286 59.6455C47.8002 59.7446 47.6278 59.78 47.4607 59.8084C46.6393 59.9518 45.8039 60.0314 44.9667 60.0438C44.9315 59.1338 44.8946 58.2238 44.8594 57.3121" fill="white"/>
<path d="M45.8271 55.9949C46.2 55.8869 46.5764 55.8143 46.9528 55.7523C47.141 55.7187 47.3292 55.6957 47.5191 55.6709C47.6141 55.6567 47.7073 55.6479 47.8023 55.6372L47.9448 55.6231C47.9923 55.6213 48.0873 55.5983 48.2174 55.6656C48.2772 55.6974 48.33 55.7541 48.3599 55.8072C48.3898 55.8603 48.4003 55.9099 48.4091 55.9506C48.4162 55.9931 48.4179 56.0285 48.4179 56.0604L48.4162 56.1347C48.4144 56.2303 48.4091 56.3259 48.4039 56.4215C48.3951 56.6127 48.374 56.8039 48.3511 56.9951C48.3054 57.3776 48.2614 57.76 48.2491 58.1441C48.2438 58.3354 48.2473 58.5266 48.2526 58.7178C48.2561 58.909 48.2825 59.0984 48.2561 59.3162C48.242 59.4242 48.2104 59.5392 48.1418 59.6437C48.0749 59.7499 47.9694 59.8349 47.8656 59.888C47.7601 59.9411 47.6563 59.9748 47.5596 59.9995C47.4629 60.0243 47.3714 60.0491 47.2764 60.0686C46.5201 60.2226 45.748 60.3342 44.9741 60.3235L44.6962 60.32L44.6926 60.0562C44.6874 59.6012 44.6997 59.1444 44.7173 58.6877C44.7419 58.2309 44.77 57.7741 44.8351 57.3156L44.8879 57.3138C44.9899 57.7653 45.0532 58.2185 45.113 58.6717C45.1675 59.125 45.2133 59.58 45.2449 60.035L44.9635 59.7676C45.7093 59.7304 46.4585 59.711 47.2043 59.6242C47.3907 59.603 47.586 59.5959 47.7267 59.5587C47.8656 59.5233 47.9606 59.4312 48.0116 59.2666C48.0626 59.1073 48.0644 58.9107 48.0767 58.7195C48.0837 58.5283 48.089 58.3371 48.0855 58.1459C48.0785 57.7635 48.038 57.3793 47.9958 56.9969C47.9765 56.8057 47.9571 56.6145 47.9501 56.4215C47.9448 56.3259 47.9413 56.2303 47.9413 56.1347V56.0657C47.9413 56.0497 47.9395 56.0373 47.9395 56.032C47.9395 56.0267 47.9378 56.0285 47.9448 56.0409C47.9501 56.0515 47.9694 56.0728 47.9888 56.0816C48.0345 56.1011 48.0292 56.0851 47.9817 56.0905L47.8393 56.0975C47.7443 56.1028 47.6493 56.1082 47.5543 56.1099C47.3644 56.1135 47.1744 56.1206 46.9827 56.117C46.601 56.1152 46.2176 56.1011 45.8324 56.0515L45.8271 55.9949Z" fill="#181818"/>
<path d="M43.2584 57.7051C43.0386 58.4699 42.9612 59.2666 43.0298 60.0527C43.0386 60.1536 43.0474 60.2633 42.9805 60.3448C42.9401 60.3944 42.8785 60.4244 42.817 60.451C41.9199 60.8281 40.8716 60.49 39.957 60.1536C40.096 59.7588 40.2349 59.364 40.3739 58.9692" fill="white"/>
<path d="M43.2862 57.7122C43.3002 57.9689 43.2914 58.2097 43.2827 58.4469C43.2774 58.6859 43.2651 58.9196 43.2545 59.1533C43.2457 59.387 43.2035 59.6207 43.1683 59.8597C43.1472 59.9801 43.156 60.0916 43.1226 60.2492C43.105 60.3253 43.0522 60.4067 42.9872 60.4492C42.9238 60.4935 42.864 60.5165 42.806 60.5395C42.5738 60.6369 42.3329 60.7183 42.0778 60.7715C41.8228 60.8281 41.5607 60.8316 41.3074 60.8015C41.0542 60.7732 40.8027 60.7272 40.5634 60.6581C40.3225 60.5873 40.0938 60.4935 39.874 60.3855L39.6348 60.2687L39.7245 60.0668C39.8107 59.8756 39.9056 59.688 40.0076 59.5021C40.1114 59.3162 40.2205 59.1338 40.3506 58.9585L40.3999 58.9762C40.3911 59.1958 40.3612 59.4065 40.326 59.6154C40.2891 59.8243 40.2469 60.0314 40.1941 60.235L40.0446 59.9163C40.2785 59.9765 40.5054 60.042 40.727 60.1129C40.9486 60.1854 41.1685 60.2598 41.3901 60.3147C41.6117 60.3678 41.8333 60.4156 42.062 60.4475C42.2889 60.4776 42.5281 60.4687 42.748 60.3873C42.8042 60.3696 42.8553 60.3448 42.8904 60.3165C42.9238 60.2864 42.9362 60.258 42.9397 60.212C42.9414 60.1677 42.9291 60.1164 42.9151 60.058L42.8693 59.8738C42.8078 59.6278 42.7638 59.3746 42.7814 59.1232C42.799 58.8718 42.8412 58.6222 42.9168 58.3796C42.9889 58.1388 43.0892 57.9051 43.2369 57.6927L43.2862 57.7122Z" fill="#181818"/>
</g>
<defs>
<clipPath id="clip0_625_217">
<rect width="95" height="80" fill="white"/>
</clipPath>
</defs>
</svg>
