<svg width="81" height="80" viewBox="0 0 81 80" fill="none" xmlns="http://www.w3.org/2000/svg">
<g clip-path="url(#clip0_625_65)">
<path d="M11.9252 11.5325L11.9732 11.1799C12.0943 10.4996 12.7291 10.0515 13.4349 10.1469L13.8003 10.1946C14.5061 10.3129 14.9697 10.9227 14.8715 11.6051L14.8235 11.9577C14.7024 12.6401 14.0676 13.0861 13.3618 12.9927L12.9964 12.945C12.2906 12.8268 11.8271 12.1921 11.9252 11.5325Z" fill="#4FBA6F"/>
<path d="M51.39 78.5293L51.4381 78.1767C51.5592 77.4964 52.194 77.0484 52.8997 77.1438L53.2652 77.1915C53.9709 77.3097 54.4345 77.9195 54.3364 78.6019L54.2883 78.9545C54.1672 79.6369 53.5324 80.0829 52.8267 79.9896L52.4612 79.9419C51.7555 79.8236 51.2919 79.1889 51.39 78.5293Z" fill="#4FBA6F"/>
<path d="M5.66714 22.8245C6.08267 22.2811 6.4815 21.7086 6.8511 21.1091C7.42115 20.182 7.93065 19.261 8.33575 18.197C7.37104 18.7881 6.53997 19.4913 5.74022 20.2214C5.25369 20.7047 4.78387 21.2004 4.32239 21.7065C3.80245 21.3103 3.26999 20.9432 2.70828 20.5781C1.86886 20.0368 1.00647 19.5867 0 19.2382C0.469825 20.1446 1.11088 20.9162 1.78116 21.6547C2.22802 22.1462 2.6874 22.5963 3.16558 23.0319C2.63102 23.6936 2.12152 24.4071 1.65796 25.1601C1.08791 26.0852 0.578407 27.0082 0.173313 28.0723C1.13802 27.4811 1.96909 26.7779 2.76884 26.0458C3.40362 25.467 3.97368 24.8344 4.53329 24.1914C5.08873 24.6228 5.66296 25.0169 6.26852 25.409C7.10585 25.9524 7.96824 26.4025 8.97471 26.7489C8.47774 25.8757 7.86383 25.0709 7.19355 24.3325C6.70284 23.7932 6.19961 23.3016 5.66714 22.8245Z" fill="#4FBA6F"/>
<path d="M66.4096 69.4154C66.9985 69.0648 67.5832 68.679 68.149 68.258C69.024 67.6087 69.8404 66.9409 70.6172 66.1008C69.5021 66.2937 68.4664 66.6401 67.4495 67.0238C66.8168 67.2914 66.1946 67.5818 65.5786 67.8805C65.2445 67.3225 64.8874 66.7832 64.5011 66.2377C63.9248 65.4246 63.2942 64.6883 62.4882 63.9955C62.5842 65.0098 62.8933 65.9618 63.2399 66.8952C63.4717 67.5175 63.7285 68.1045 64.0104 68.6853C63.2649 69.1022 62.5278 69.5772 61.8158 70.1061C60.9409 70.7553 60.1244 71.4232 59.3477 72.2633C60.4627 72.0683 61.4984 71.724 62.5153 71.3402C63.3213 71.0353 64.0877 70.6599 64.8477 70.2679C65.2027 70.8735 65.5869 71.4522 66.0025 72.0392C66.5788 72.8523 67.2094 73.5887 68.0154 74.2815C67.8797 73.2858 67.6103 72.3151 67.2637 71.3817C67.0089 70.6972 66.725 70.0542 66.4096 69.4154Z" fill="#4FBA6F"/>
<path fill-rule="evenodd" clip-rule="evenodd" d="M2.8113 34.5065C39.0693 11.1965 70.4119 3.91608 79.8293 8.76972C81.2763 9.46251 81.3118 11.5989 80.3262 12.8953L46.4382 58.5444C45.1749 60.4153 44.1685 60.2867 42.7193 59.594L3.7259 37.7692C3.43565 37.6302 3.43565 37.6302 3.1454 37.4912C1.83824 36.5143 1.67537 35.3755 2.8113 34.5065Z" fill="#4FBA6F"/>
<path d="M56.0424 62.838C55.6227 65.242 53.4699 67.1627 51.2314 67.1275L24.1486 66.7022C21.9101 66.667 20.4338 64.6903 20.8535 62.2842L30.6781 5.88655C31.0978 3.48255 33.2507 1.56184 35.4891 1.5971L62.5719 2.02231C64.8104 2.05757 66.2867 4.03429 65.867 6.44036L56.0424 62.838Z" fill="white"/>
<path d="M56.0944 62.8463C55.9295 63.8564 55.4826 64.8334 54.7852 65.6071C54.0919 66.3766 53.1773 66.9823 52.1333 67.2167C52.0038 67.2457 51.8702 67.2623 51.7386 67.283C51.6071 67.3059 51.4713 67.3017 51.3377 67.3121C51.0725 67.3245 50.824 67.3162 50.5672 67.3204L49.0345 67.3245C48.0134 67.3307 46.9923 67.3204 45.9712 67.3162C41.8869 67.2934 37.8005 67.2913 33.714 67.254L27.5854 67.1959L24.5222 67.1565L24.14 67.1524L23.7099 67.1233C23.5679 67.1047 23.4259 67.0735 23.2839 67.0487C23.1419 67.0175 23.0062 66.9678 22.8663 66.9284C22.3171 66.7354 21.8139 66.4098 21.413 65.9887C20.6028 65.1425 20.254 63.956 20.323 62.8484C20.323 62.7073 20.3438 62.5704 20.3605 62.4335L20.3877 62.2261L20.419 62.0374L20.5506 61.2886L20.8137 59.7889C21.1603 57.7894 21.5299 55.794 21.889 53.7966L24.1212 41.8242L25.2405 35.8402L26.3305 29.8499C26.6813 27.8503 27.0446 25.8549 27.3829 23.8533L28.406 17.8527L28.9176 14.8513L29.4104 11.8478L30.3939 5.83886C30.5777 4.78309 31.0621 3.77917 31.7867 2.98475C32.5092 2.19241 33.4614 1.57014 34.5493 1.33576C34.685 1.30672 34.8228 1.29013 34.9606 1.26731C35.0984 1.24449 35.2383 1.24864 35.3783 1.23827C35.6539 1.2279 35.894 1.23827 36.155 1.2362L37.6877 1.24242L40.751 1.26731L53.0061 1.38347L59.1326 1.45399L62.1959 1.48925L62.578 1.4934L63.0144 1.52244C63.1606 1.54111 63.3047 1.57222 63.4488 1.59711C63.5928 1.62822 63.7327 1.678 63.8747 1.71949C64.4344 1.91446 64.9522 2.24841 65.3594 2.67777C65.7707 3.10713 66.0714 3.62983 66.2552 4.17949C66.4389 4.73123 66.5078 5.31201 66.4765 5.87827C66.4765 6.02139 66.4556 6.16036 66.4389 6.30141L66.4118 6.5109L66.3805 6.69965L66.251 7.44844L65.99 8.94809L64.9459 14.9467C62.1124 30.9347 59.2078 46.9081 56.0944 62.8463L55.9921 62.8276C58.4519 46.7774 61.1184 30.7625 63.8539 14.76L64.8979 8.76141L65.1589 7.26176L65.2905 6.51298L65.3218 6.32837L65.3427 6.16036C65.3573 6.04835 65.3761 5.93842 65.374 5.82641C65.4262 4.93865 65.161 4.03845 64.5722 3.41826C64.2819 3.10713 63.9207 2.87067 63.5177 2.72548C63.4153 2.69644 63.3151 2.65703 63.2107 2.63421C63.1042 2.61554 62.9998 2.59065 62.8912 2.57613L62.5655 2.55124L62.1834 2.54295L59.1201 2.48072L52.9936 2.35834L40.7405 2.0887L37.6773 2.01817L36.1467 1.97669C35.8961 1.97254 35.6267 1.95802 35.3908 1.96217C35.2759 1.96839 35.159 1.9601 35.0442 1.97669C34.9293 1.99328 34.8124 2.00365 34.6975 2.0244C33.7767 2.2007 32.9226 2.72133 32.2649 3.41204C31.6009 4.10482 31.1477 4.99466 30.9619 5.9322L29.8573 11.9204L29.306 14.9135L28.7735 17.9107L27.7065 23.9052C27.3474 25.9026 27.0154 27.9043 26.6708 29.9038L25.6706 35.9086L24.7017 41.9197L22.7535 53.9397C22.4173 55.9413 22.0895 57.9429 21.7387 59.9424L21.4798 61.4421L21.3503 62.1929L21.319 62.3796L21.2981 62.5497C21.2835 62.6638 21.2647 62.7779 21.2668 62.8919C21.2438 63.3462 21.296 63.8025 21.4317 64.2257C21.5696 64.6488 21.793 65.0408 22.0937 65.3602C22.3923 65.6797 22.766 65.9244 23.1816 66.0717C23.2881 66.1007 23.3904 66.1401 23.499 66.165C23.6076 66.1837 23.7161 66.2086 23.8268 66.2231L24.1609 66.248L24.543 66.2542L27.6063 66.3123L33.7328 66.4471C37.8172 66.5363 41.9015 66.6629 45.9859 66.7707C47.007 66.7997 48.028 66.8226 49.0491 66.8599L50.5797 66.9118C50.8324 66.918 51.0955 66.9346 51.3398 66.9325C51.4609 66.9263 51.5841 66.9346 51.7031 66.918C51.8242 66.9014 51.9453 66.891 52.0665 66.8703C53.0312 66.6919 53.9207 66.1547 54.6098 65.4432C55.303 64.7276 55.7896 63.8129 55.9963 62.8297L56.0944 62.8463Z" fill="#181818"/>
<path d="M36.1004 6.56343C36.3669 6.18664 36.326 5.70181 36.0089 5.48052C35.6919 5.25924 35.2188 5.38531 34.9523 5.7621C34.6858 6.13889 34.7267 6.62372 35.0438 6.845C35.3608 7.06628 35.8339 6.94022 36.1004 6.56343Z" fill="white"/>
<path d="M36.3147 6.18115C36.2917 6.28486 36.2875 6.39064 36.2813 6.51717C36.275 6.64162 36.2688 6.78889 36.2186 6.93201C36.1685 7.07098 36.0766 7.20373 35.943 7.28463C35.8115 7.36759 35.6444 7.40493 35.4794 7.38211C35.3145 7.36345 35.1558 7.27426 35.0409 7.1664C34.924 7.05646 34.8468 6.93409 34.7841 6.82208C34.6567 6.60014 34.5669 6.3782 34.5106 6.10026C34.4855 5.96336 34.4834 5.81194 34.521 5.66882C34.5565 5.5257 34.6317 5.39503 34.7256 5.27472C34.9073 5.03826 35.2017 4.82669 35.5692 4.81632C35.7488 4.81217 35.9388 4.85366 36.1017 4.95322C36.2646 5.05278 36.3752 5.22079 36.4149 5.38673C36.4567 5.55474 36.4316 5.71445 36.4003 5.84098C36.3669 5.97165 36.3335 6.07536 36.3147 6.18115ZM36.2124 6.16248C36.227 6.06914 36.1936 5.96751 36.1226 5.89906C36.0537 5.82853 35.9451 5.7995 35.8637 5.80987C35.7801 5.81816 35.7258 5.85965 35.7029 5.88039C35.6799 5.90113 35.6653 5.91358 35.6423 5.92395C35.6047 5.94262 35.5191 5.9281 35.4147 5.97373C35.3646 5.99654 35.3187 6.02766 35.2581 6.06085C35.1996 6.09611 35.1286 6.13552 35.0702 6.19567C34.9428 6.30975 34.9219 6.51924 35.0472 6.61673C35.1078 6.66444 35.1955 6.66859 35.2644 6.63747C35.3333 6.60844 35.3813 6.55036 35.4189 6.51717C35.4878 6.44043 35.5525 6.45287 35.7509 6.45909C35.8449 6.45909 35.9597 6.44457 36.0474 6.39272C36.1372 6.34294 36.1978 6.25789 36.2124 6.16248Z" fill="#181818"/>
<path d="M40.5213 6.63197C40.7878 6.25518 40.7469 5.77035 40.4299 5.54906C40.1128 5.32778 39.6397 5.45385 39.3732 5.83064C39.1067 6.20743 39.1476 6.69226 39.4647 6.91355C39.7817 7.13483 40.2548 7.00876 40.5213 6.63197Z" fill="white"/>
<path d="M40.7356 6.24963C40.7126 6.35334 40.7084 6.45913 40.7022 6.58565C40.6959 6.7101 40.6896 6.85737 40.6395 7.00049C40.5894 7.13946 40.4975 7.27221 40.3639 7.35311C40.2324 7.43608 40.0653 7.47341 39.9003 7.4506C39.7354 7.43193 39.5767 7.34274 39.4618 7.23488C39.3449 7.12495 39.2676 7.00257 39.205 6.89056C39.0776 6.66862 38.9878 6.44668 38.9315 6.16874C38.9064 6.03184 38.9043 5.88042 38.9419 5.7373C38.9774 5.59418 39.0526 5.46351 39.1465 5.3432C39.3282 5.10674 39.6226 4.89517 39.9901 4.8848C40.1697 4.88065 40.3597 4.92214 40.5226 5.0217C40.6855 5.12126 40.7961 5.28927 40.8358 5.45521C40.8776 5.62322 40.8525 5.78293 40.8212 5.90946C40.7878 6.04221 40.7544 6.14592 40.7356 6.24963ZM40.6312 6.23304C40.6458 6.1397 40.6124 6.03806 40.5414 5.96961C40.4725 5.89909 40.3639 5.87005 40.2825 5.88042C40.1989 5.88872 40.1447 5.9302 40.1217 5.95095C40.0987 5.97169 40.0841 5.98413 40.0611 5.9945C40.0235 6.01317 39.9379 5.99865 39.8335 6.04428C39.7834 6.0671 39.7375 6.09821 39.6769 6.1314C39.6184 6.16666 39.5475 6.20607 39.489 6.26622C39.3616 6.38031 39.3407 6.5898 39.466 6.68729C39.5266 6.73499 39.6143 6.73914 39.6832 6.70803C39.7521 6.67899 39.8001 6.62091 39.8377 6.58773C39.9045 6.51098 39.9713 6.52343 40.1697 6.52965C40.2637 6.52965 40.3785 6.51513 40.4662 6.46327C40.556 6.41142 40.6187 6.32638 40.6312 6.23304Z" fill="#181818"/>
<path d="M44.9442 6.70161C45.2107 6.32482 45.1697 5.83999 44.8527 5.61871C44.5356 5.39742 44.0626 5.52349 43.7961 5.90028C43.5295 6.27707 43.5705 6.7619 43.8875 6.98319C44.2046 7.20447 44.6776 7.07841 44.9442 6.70161Z" fill="white"/>
<path d="M45.1565 6.32012C45.1335 6.42384 45.1294 6.52962 45.1231 6.65615C45.1168 6.7806 45.1106 6.92787 45.0604 7.07099C45.0103 7.20996 44.9185 7.34271 44.7848 7.4236C44.6533 7.50657 44.4862 7.54391 44.3213 7.52109C44.1563 7.50242 43.9976 7.41323 43.8827 7.30537C43.7658 7.19544 43.6885 7.07306 43.6259 6.96105C43.4985 6.73911 43.4087 6.51717 43.3524 6.23923C43.3273 6.10233 43.3252 5.95092 43.3628 5.8078C43.3983 5.66468 43.4735 5.534 43.5674 5.4137C43.7491 5.17724 44.0435 4.96567 44.411 4.9553C44.5906 4.95115 44.7806 4.99263 44.9435 5.0922C45.1064 5.19176 45.2171 5.35977 45.2567 5.5257C45.2985 5.69372 45.2734 5.85343 45.2421 5.97996C45.2108 6.1127 45.1753 6.21434 45.1565 6.32012ZM45.0542 6.30146C45.0688 6.20812 45.0354 6.10648 44.9644 6.03803C44.8955 5.96751 44.7869 5.93847 44.7055 5.94884C44.6219 5.95714 44.5677 5.99862 44.5447 6.01937C44.5217 6.04011 44.5071 6.05255 44.4841 6.06292C44.4465 6.08159 44.3609 6.06707 44.2565 6.1127C44.2064 6.13552 44.1605 6.16663 44.0999 6.19982C44.0414 6.23508 43.9704 6.27449 43.912 6.33464C43.7846 6.44873 43.7637 6.65822 43.889 6.75571C43.9496 6.80341 44.0373 6.80756 44.1062 6.77645C44.1751 6.74741 44.2231 6.68933 44.2607 6.65615C44.3275 6.5794 44.3943 6.59185 44.5927 6.59807C44.6867 6.59807 44.8015 6.58355 44.8892 6.53169C44.979 6.48191 45.0417 6.39687 45.0542 6.30146Z" fill="#181818"/>
<path d="M48.9292 67.0217C48.474 69.6393 46.1291 71.7301 43.6922 71.6907L14.2143 71.2261C11.7775 71.1888 10.1717 69.0357 10.627 66.4181L21.3202 5.03201C21.7754 2.41436 24.1203 0.323565 26.5572 0.362975L56.0351 0.827597C58.4719 0.864932 60.0777 3.01796 59.6224 5.6356L48.9292 67.0217Z" fill="white"/>
<path d="M48.9813 67.03C48.8018 68.1293 48.3111 69.1892 47.551 70.0272C46.7972 70.8631 45.8011 71.5186 44.6694 71.7716C44.5274 71.8027 44.3854 71.8193 44.2413 71.8442C44.0993 71.8691 43.9532 71.865 43.807 71.8753C43.5188 71.8878 43.2474 71.8795 42.9676 71.8816L41.2992 71.8836L37.9645 71.8712C33.5189 71.8442 29.0712 71.8359 24.6235 71.7903L17.9541 71.7239L14.6194 71.6804L14.2017 71.6741L13.7382 71.643C13.5837 71.6223 13.4312 71.5912 13.2788 71.5621C13.1264 71.5289 12.9781 71.475 12.8278 71.4315C12.2368 71.224 11.6939 70.8735 11.2617 70.4192C10.8294 69.965 10.512 69.4153 10.3178 68.8325C10.1237 68.2475 10.0527 67.6336 10.0861 67.0321C10.0861 66.8806 10.109 66.7313 10.1278 66.582L10.1571 66.3579L10.1926 66.1526L10.3366 65.3374L10.6227 63.705C11.0007 61.5292 11.3995 59.3554 11.79 57.1817L14.2059 44.1494L15.417 37.6344L16.5989 31.1131C16.9789 28.9372 17.3757 26.7635 17.7432 24.5855L18.8582 18.0539L19.4158 14.787L19.9545 11.518L21.032 4.98016C21.2324 3.8352 21.7565 2.75039 22.5458 1.88752C23.3289 1.0288 24.3604 0.356754 25.5381 0.103701C25.6843 0.0725878 25.8346 0.0559942 25.9829 0.0311037C26.1311 0.00828745 26.2836 0.0103617 26.4339 -9.36745e-06C26.7304 -0.0103804 26.9956 -9.36765e-06 27.2775 -0.00208357L28.9459 0.00621325L32.2806 0.0352521L45.6195 0.168001L52.2889 0.246821L55.6236 0.286231L56.0413 0.290379L56.5132 0.321492C56.6698 0.342234 56.8264 0.375422 56.9809 0.402386C57.1354 0.437648 57.2879 0.489503 57.4403 0.535135C58.0437 0.746704 58.5992 1.10347 59.0377 1.56602C59.4783 2.02856 59.804 2.59067 60.0003 3.18389C60.1987 3.77919 60.2718 4.40353 60.2384 5.01542C60.2384 5.16891 60.2154 5.32033 60.1966 5.47174L60.1674 5.69783L60.1381 5.91147L59.9961 6.72664L59.7122 8.35904L58.5741 14.8866C55.49 32.2891 52.339 49.6772 48.9813 67.03L48.879 67.0113C51.5852 49.5465 54.4981 32.117 57.48 14.6999L58.618 8.17236L58.9041 6.53996L59.046 5.7248L59.0795 5.5236L59.1024 5.33899C59.117 5.21662 59.1379 5.09424 59.1358 4.97186C59.1609 4.48235 59.1066 3.99076 58.9583 3.53444C58.8101 3.07811 58.57 2.65705 58.2484 2.3148C57.9268 1.97256 57.5259 1.70914 57.0811 1.54942C56.9663 1.51831 56.8577 1.47475 56.7408 1.44779C56.6238 1.42704 56.5069 1.40008 56.3879 1.38349L56.0266 1.35652L55.609 1.34822L52.2743 1.28185L45.6049 1.15117L32.2681 0.864934L28.9375 0.788188L27.2712 0.746704C26.9977 0.742556 26.7054 0.725962 26.4485 0.730111C26.3211 0.736333 26.1938 0.730111 26.0685 0.746704C25.9432 0.765372 25.8158 0.777817 25.6884 0.800634C24.6778 0.995609 23.7465 1.56602 23.0261 2.3231C22.3015 3.08226 21.8066 4.05506 21.6041 5.08179L20.4076 11.5989L19.8104 14.8575L19.2299 18.1202L18.071 24.6457C17.6826 26.8195 17.3193 28.9994 16.9413 31.1753L15.8493 37.7111L14.7864 44.2531L12.6544 57.3352C12.2869 59.5131 11.9278 61.6931 11.5477 63.8689L11.2659 65.5013L11.1239 66.3185L11.0905 66.5218L11.0675 66.7085C11.0529 66.8329 11.032 66.9574 11.0341 67.0839C11.009 67.5838 11.0654 68.0837 11.2178 68.5504C11.3703 69.0171 11.6167 69.4485 11.9487 69.7991C12.2786 70.1517 12.692 70.4213 13.1472 70.5831C13.2642 70.6163 13.3769 70.6598 13.496 70.6868C13.6171 70.7076 13.7361 70.7345 13.8572 70.7511L14.2268 70.7781L14.6444 70.7864L17.9791 70.8486L24.6465 70.9917C29.0921 71.0871 33.5377 71.2199 37.9833 71.3319L41.318 71.4252L42.9843 71.4792C43.2599 71.4854 43.546 71.504 43.8133 71.4999C43.9448 71.4937 44.0785 71.502 44.2121 71.4833C44.3436 71.4646 44.4773 71.4543 44.6088 71.4294C45.6633 71.2323 46.6322 70.6453 47.3818 69.8675C48.1357 69.0855 48.666 68.0878 48.8874 67.0155L48.9813 67.03Z" fill="#181818"/>
<path d="M17.6895 51.8738C20.0052 52.8777 22.2729 53.9729 24.5218 55.0992C26.7748 56.2192 29.0028 57.3849 31.2162 58.5776C33.4296 59.7703 35.6284 60.992 37.8022 62.2572C39.978 63.5163 42.1371 64.8085 44.2482 66.192C41.9304 65.1881 39.6648 64.095 37.4138 62.9687C35.1607 61.8486 32.9327 60.6829 30.7193 59.4903C28.508 58.2955 26.3092 57.0759 24.1355 55.8106C21.9596 54.5474 19.7984 53.2552 17.6895 51.8738Z" fill="#181818"/>
<path d="M46.6618 52.3301C44.131 53.6452 41.5606 54.8648 38.9755 56.0513C37.6871 56.6528 36.382 57.2211 35.0874 57.806L31.1743 59.509L27.2403 61.16C25.9206 61.691 24.6093 62.2428 23.2833 62.7572C20.6377 63.8046 17.9774 64.8189 15.2754 65.7378C17.8062 64.4228 20.3767 63.2011 22.9617 62.0146C24.2501 61.411 25.5552 60.8448 26.8519 60.2598L30.765 58.559L34.699 56.91C36.0187 56.3769 37.33 55.8293 38.656 55.3129C41.3016 54.2633 43.9619 53.249 46.6618 52.3301Z" fill="#181818"/>
<path d="M49.6713 36.535L46.1069 36.591L44.3132 36.618L42.507 36.6346C40.0952 36.6553 37.6646 36.6657 35.2215 36.6616C34.0021 36.6636 32.7784 36.6574 31.5527 36.647C30.327 36.6346 29.1034 36.6346 27.8755 36.6118C25.422 36.5807 22.9643 36.5101 20.5191 36.4127L20.0723 36.394L20.1558 35.975L21.2917 30.2377L21.5757 28.8045L21.8472 27.367C22.0309 26.4108 22.2021 25.4505 22.3734 24.4922C22.5488 23.5339 22.7116 22.5736 22.8745 21.6132C23.0416 20.6528 23.1982 19.6925 23.3548 18.7301C23.6701 16.8073 23.9562 14.8783 24.2589 12.9534L24.2965 12.719L24.545 12.7169C26.9714 12.7045 29.3978 12.6858 31.8242 12.6879C34.2506 12.6921 36.6769 12.7107 39.1033 12.7315L46.3825 12.7937L50.0221 12.8476L53.6596 12.9244L54.2902 12.9368L54.1816 13.5487C53.8329 15.4964 53.4675 17.4399 53.1 19.3772C52.7366 21.3166 52.3524 23.2456 51.9786 25.1684L50.8302 30.8953L49.6713 36.535ZM49.6045 36.4562L50.4522 30.5758L51.3104 24.7847C51.6049 22.8681 51.8888 20.9578 52.1958 19.0578C52.4965 17.1557 52.7993 15.2599 53.1208 13.3682L53.6429 13.9947L50.0033 13.9573L46.3637 13.8972L39.0866 13.7292C36.6602 13.6732 34.2359 13.6151 31.8096 13.5446C29.3853 13.4699 26.9589 13.3745 24.5346 13.2853L24.8206 13.0488C24.4531 14.9633 24.071 16.8757 23.7181 18.7902C23.5406 19.7485 23.3631 20.7068 23.194 21.6671C23.0228 22.6254 22.8515 23.5858 22.6928 24.5461C22.53 25.5065 22.3671 26.4668 22.2168 27.4293L21.9871 28.8729L21.7699 30.3186L20.8992 36.1015L20.5337 35.6639C22.9413 35.6411 25.3343 35.6493 27.7336 35.6929C28.9321 35.7074 30.1328 35.7468 31.3335 35.7717C32.5341 35.7987 33.7369 35.8298 34.9417 35.8713C37.3514 35.9418 39.7715 36.0289 42.2125 36.1264L44.0459 36.199L45.8918 36.2841L49.6045 36.4562Z" fill="#181818"/>
<path d="M44.3836 66.1547C42.0428 66.2231 39.6477 66.2584 37.238 66.2874C34.8242 66.3102 32.3915 66.3227 29.9443 66.3102C27.4991 66.3019 25.0435 66.2791 22.5837 66.1962C20.1239 66.1111 17.6724 65.9887 15.2356 65.8871L14.96 65.8747L15.0122 65.6195C15.1312 65.0512 15.2398 64.4808 15.3484 63.9125C15.4569 63.3421 15.5697 62.7737 15.6699 62.2033L15.979 60.49L16.2713 58.7747C16.4676 57.6318 16.6492 56.4847 16.8267 55.3398L17.3446 51.8987L17.3801 51.6664L17.6307 51.6643C20.057 51.6394 22.4834 51.6083 24.9098 51.6145L32.189 51.6519C34.6154 51.6601 37.0418 51.6933 39.4661 51.741L43.1036 51.8282L46.7411 51.936L47.3007 51.9526L47.2004 52.4857C46.9812 53.6514 46.7473 54.8109 46.5176 55.9683L45.8139 59.4197L45.0935 62.8194L44.3836 66.1547ZM44.3168 66.0738L45.2689 59.0982L45.7596 55.6924C45.9288 54.564 46.0937 53.4398 46.2712 52.3197L46.7306 52.8694L43.091 52.8632L39.4514 52.8341C37.0251 52.803 34.6008 52.7615 32.1744 52.6931L24.8973 52.5023C22.473 52.4338 20.0466 52.3239 17.6223 52.2243L17.9084 51.9879L17.2318 55.402C17.0126 56.5407 16.7954 57.6816 16.5929 58.8224L16.288 60.5357L15.9998 62.251C15.9017 62.8235 15.8161 63.396 15.7242 63.9685C15.6344 64.5409 15.5446 65.1155 15.4632 65.6901L15.2439 65.4287C17.6599 65.4038 20.0591 65.3582 22.4521 65.3478C24.8451 65.3416 27.2402 65.3955 29.6457 65.4619C32.0512 65.5262 34.4692 65.6133 36.9081 65.7129C39.3491 65.8187 41.8068 65.9286 44.3168 66.0738Z" fill="#181818"/>
<path d="M38.3781 48.2128L17.6953 47.8872L18.8897 41.0319L39.5725 41.3555L38.3781 48.2128Z" fill="#4FBA6F"/>
<path d="M48.3383 48.3705L41.4434 48.2605L42.6378 41.4053L49.5306 41.5131L48.3383 48.3705Z" fill="#4FBA6F"/>
<path d="M27.4512 5.35348C27.4282 5.46549 27.4178 5.58164 27.4095 5.71439C27.399 5.84714 27.3865 6.00063 27.3301 6.14997C27.2737 6.29724 27.1735 6.43207 27.0336 6.51711C26.8937 6.60422 26.7183 6.64363 26.5429 6.62289C26.3696 6.60422 26.2025 6.51503 26.0772 6.40303C25.9519 6.28895 25.8684 6.16034 25.7974 6.04419C25.6596 5.80773 25.5677 5.56712 25.5134 5.27051C25.4905 5.12532 25.4905 4.9656 25.5322 4.81418C25.5719 4.66277 25.6533 4.52587 25.7536 4.39934C25.9478 4.15044 26.2589 3.93057 26.6452 3.91813C26.8331 3.91398 27.0336 3.95546 27.2048 4.05917C27.376 4.16081 27.4951 4.33712 27.541 4.50928C27.589 4.68558 27.5661 4.85359 27.5368 4.98842C27.5055 5.12739 27.4721 5.2394 27.4512 5.35348ZM27.3468 5.33481C27.3614 5.23317 27.3301 5.12324 27.257 5.0465C27.186 4.96768 27.0733 4.93034 26.9856 4.93241C26.8958 4.93241 26.8352 4.96975 26.8039 4.98634C26.7726 5.00294 26.7496 5.01331 26.7183 5.02575C26.664 5.04442 26.5596 5.04027 26.4447 5.09835C26.3884 5.12739 26.3362 5.1668 26.2735 5.20621C26.2109 5.24769 26.1378 5.29748 26.0772 5.36592C25.9478 5.4966 25.929 5.72684 26.0647 5.83677C26.1294 5.89277 26.2255 5.90314 26.3028 5.8741C26.38 5.84921 26.4385 5.79114 26.4823 5.75795C26.5283 5.72269 26.5659 5.69987 26.6243 5.6895C26.6807 5.67913 26.76 5.68328 26.8603 5.67705C26.9605 5.67083 27.0795 5.64802 27.1735 5.58994C27.2675 5.53186 27.3322 5.43852 27.3468 5.33481Z" fill="#181818"/>
<path d="M32.2618 5.42818C32.2388 5.54019 32.2283 5.65635 32.22 5.7891C32.2096 5.92184 32.197 6.07534 32.1406 6.22468C32.0843 6.37195 31.984 6.50677 31.8441 6.59181C31.7042 6.67893 31.5288 6.71834 31.3534 6.6976C31.1801 6.67893 31.0131 6.58974 30.8878 6.47773C30.7625 6.36365 30.679 6.23505 30.608 6.11889C30.4702 5.88243 30.3783 5.64183 30.324 5.34522C30.301 5.20002 30.301 5.04031 30.3428 4.88889C30.3825 4.73747 30.4639 4.60058 30.5641 4.47405C30.7583 4.22515 31.0694 4.00528 31.4557 3.99284C31.6437 3.98869 31.8441 4.03017 32.0154 4.13388C32.1866 4.23552 32.3056 4.41182 32.3515 4.58398C32.3996 4.76029 32.3766 4.9283 32.3474 5.06312C32.316 5.2021 32.2847 5.31618 32.2618 5.42818ZM32.1594 5.41159C32.1741 5.30995 32.1427 5.20002 32.0697 5.12328C31.9987 5.04446 31.8859 5.00712 31.7982 5.00919C31.7084 5.00919 31.6479 5.04653 31.6165 5.06312C31.5852 5.07972 31.5622 5.09009 31.5309 5.10253C31.4766 5.1212 31.3722 5.11705 31.2574 5.17513C31.201 5.20417 31.1488 5.24358 31.0861 5.28299C31.0235 5.32447 30.9504 5.37425 30.8899 5.4427C30.7604 5.57338 30.7416 5.80361 30.8773 5.91355C30.9421 5.96955 31.0381 5.97992 31.1154 5.95088C31.1926 5.92599 31.2511 5.86791 31.295 5.83473C31.3409 5.79947 31.3785 5.77665 31.437 5.76628C31.4933 5.75591 31.5727 5.76006 31.6729 5.75383C31.7731 5.74761 31.8922 5.72479 31.9861 5.66672C32.0801 5.60657 32.1448 5.51323 32.1594 5.41159Z" fill="#181818"/>
<path d="M37.0752 5.50491C37.0523 5.61691 37.0418 5.73307 37.0335 5.86582C37.023 5.99857 37.0105 6.15206 36.9541 6.3014C36.8977 6.44867 36.7975 6.58349 36.6576 6.66853C36.5177 6.75565 36.3423 6.79506 36.1669 6.77432C35.9936 6.75565 35.8265 6.66646 35.7013 6.55445C35.576 6.44037 35.4924 6.31177 35.4215 6.19561C35.2836 5.95916 35.1918 5.71855 35.1375 5.42194C35.1145 5.27674 35.1145 5.11703 35.1563 4.96561C35.1959 4.8142 35.2774 4.6773 35.3776 4.55077C35.5718 4.30187 35.8829 4.082 36.2692 4.06956C36.4572 4.06541 36.6576 4.10689 36.8288 4.2106C37.0001 4.31224 37.1191 4.48855 37.165 4.6607C37.2131 4.83701 37.1901 5.00502 37.1609 5.13985C37.1295 5.27882 37.0982 5.39082 37.0752 5.50491ZM36.9729 5.48624C36.9875 5.3846 36.9562 5.27467 36.8831 5.19792C36.8121 5.1191 36.6994 5.08177 36.6117 5.08384C36.5219 5.08384 36.4613 5.12118 36.43 5.13777C36.3987 5.15436 36.3757 5.16474 36.3444 5.17718C36.2901 5.19585 36.1857 5.1917 36.0709 5.24978C36.0145 5.27882 35.9623 5.31823 35.8996 5.35764C35.837 5.39912 35.7639 5.4489 35.7033 5.51735C35.5739 5.64803 35.5551 5.87826 35.6908 5.98819C35.7555 6.0442 35.8516 6.05457 35.9289 6.02553C36.0061 6.00064 36.0646 5.94256 36.1084 5.90937C36.1544 5.87411 36.192 5.8513 36.2504 5.84093C36.3068 5.83055 36.3862 5.8347 36.4864 5.82848C36.5866 5.82226 36.7056 5.79944 36.7996 5.74136C36.8936 5.68329 36.9583 5.58995 36.9729 5.48624Z" fill="#181818"/>
<path d="M48.7502 20.5906C48.6687 21.0324 48.5455 21.4659 48.3764 21.8953C48.2093 22.3226 47.9922 22.7478 47.6957 23.1315C47.3991 23.5111 47.0254 23.8492 46.5827 24.0815C46.1421 24.3138 45.6368 24.4507 45.1273 24.4507C44.6178 24.4507 44.1083 24.32 43.676 24.0753C43.2396 23.8326 42.8846 23.4904 42.6069 23.1087C42.0515 22.3413 41.8406 21.383 41.9032 20.4309C41.9429 19.9559 42.0515 19.4768 42.254 19.0329C42.4524 18.5869 42.7343 18.1783 43.0747 17.8174C43.4129 17.4565 43.8139 17.1454 44.2649 16.9089C44.7138 16.6704 45.2233 16.521 45.7495 16.492C46.2716 16.465 46.8145 16.5563 47.2947 16.7907C47.7771 17.023 48.1676 17.4088 48.4202 17.8465C48.6771 18.2862 48.7898 18.7695 48.8274 19.232C48.8608 19.6946 48.8274 20.1467 48.7502 20.5906ZM48.6458 20.572C48.7167 20.1405 48.6875 19.6904 48.5476 19.286C48.4098 18.8794 48.1634 18.5247 47.8669 18.2654C47.5725 18.002 47.2384 17.8257 46.8959 17.7137C46.5535 17.5996 46.1901 17.5602 45.8226 17.5955C45.0918 17.6598 44.3568 17.9875 43.7637 18.5144C43.4672 18.7778 43.2125 19.0868 42.9891 19.4229C42.7719 19.7609 42.5798 20.1281 42.4628 20.5263C42.3501 20.9246 42.3 21.3498 42.3668 21.7667C42.4253 22.1815 42.5965 22.586 42.87 22.9034C43.1394 23.2228 43.5111 23.4427 43.8974 23.5464C44.2858 23.6501 44.6846 23.648 45.0646 23.5858C45.8268 23.4634 46.5409 23.1336 47.2279 22.6586C47.5662 22.418 47.8899 22.1235 48.1425 21.7688C48.3952 21.4182 48.5727 21.0034 48.6458 20.572Z" fill="#181818"/>
<path d="M24.8174 9.19085C27.3106 9.01454 29.8017 8.94194 32.2928 8.90461C34.7839 8.86105 37.2751 8.86934 39.7641 8.90668C42.2531 8.94609 44.7443 9.01661 47.2333 9.13692C49.7223 9.251 52.2093 9.40449 54.6962 9.65962C52.203 9.83592 49.7119 9.91059 47.2208 9.94586C44.7296 9.98941 42.2385 9.98112 39.7495 9.94171C37.2605 9.90022 34.7693 9.8297 32.2824 9.7094C29.7934 9.59532 27.3043 9.4439 24.8174 9.19085Z" fill="#181818"/>
<path d="M40.4326 5.54847C41.6813 5.35349 42.9279 5.26223 44.1745 5.2C45.4211 5.144 46.6656 5.1274 47.9122 5.14607C49.1568 5.16474 50.4013 5.22074 51.6458 5.31615C52.8903 5.41572 54.1327 5.54639 55.3752 5.78285C54.1265 5.9799 52.8799 6.07116 51.6333 6.13132C50.3867 6.18732 49.1421 6.20391 47.8955 6.18317C46.651 6.16243 45.4065 6.1085 44.162 6.01309C42.9175 5.91353 41.675 5.78285 40.4326 5.54847Z" fill="#181818"/>
<path d="M21.6025 30.0283C22.2102 28.3192 23.0392 26.6909 23.9976 25.1415C24.2398 24.7557 24.4883 24.374 24.7452 23.9965C25.0062 23.6232 25.2734 23.2539 25.5491 22.891C26.0899 22.1608 26.6996 21.4432 27.4409 20.8416C27.8126 20.543 28.2156 20.2733 28.6562 20.0659C29.0968 19.8585 29.5645 19.7154 30.0531 19.6469C30.5397 19.5909 31.07 19.6158 31.5294 19.8813C31.757 20.0099 31.9512 20.2007 32.0828 20.4164C32.2185 20.6322 32.2916 20.8686 32.348 21.0988C32.4524 21.5655 32.4566 22.0219 32.4858 22.472C32.5129 22.9241 32.5171 23.3763 32.5275 23.8306C32.5338 24.737 32.5192 25.6455 32.4482 26.554C32.4148 27.0083 32.3689 27.4625 32.3083 27.9147L32.2603 28.2549L32.2352 28.4249C32.231 28.4706 32.2248 28.5141 32.2227 28.5598C32.2102 28.7423 32.2269 28.9352 32.2707 29.0908C32.2916 29.1675 32.325 29.2297 32.3521 29.2629C32.3814 29.2982 32.3835 29.2857 32.3689 29.2795C32.3689 29.2754 32.3668 29.2733 32.3647 29.2754C32.3668 29.2733 32.3709 29.2712 32.3751 29.2712C32.3814 29.2712 32.3814 29.2691 32.3981 29.2608C32.4294 29.2443 32.4962 29.1965 32.5839 29.1239C32.9222 28.8522 33.2563 28.5598 33.5967 28.2611C34.2795 27.6679 35.004 27.0394 35.9353 26.6225C36.3968 26.4192 36.8938 26.2802 37.4137 26.2367C37.9316 26.1931 38.4849 26.247 39.0007 26.4565C39.2555 26.5644 39.5039 26.7013 39.719 26.8755C39.9341 27.0456 40.1158 27.2364 40.2744 27.4314C40.5939 27.8234 40.8299 28.2051 41.0763 28.5971C41.5628 29.3811 41.9992 30.1922 42.373 31.0301C43.1185 32.7061 43.6426 34.4754 43.866 36.2737L43.7637 36.2965C43.4755 35.442 43.1623 34.6019 42.8115 33.7826C42.4565 32.9654 42.064 32.1668 41.6359 31.3931C41.4208 31.0052 41.1953 30.6257 40.9593 30.2523C40.7297 29.8748 40.4833 29.5097 40.2306 29.1488C39.9738 28.7941 39.7169 28.4187 39.4517 28.1221C39.1824 27.8193 38.9109 27.6056 38.5852 27.4832C37.9316 27.226 37.1026 27.3256 36.3634 27.6181C35.6242 27.9168 34.931 28.4519 34.2335 29.0099C33.8827 29.2899 33.5257 29.5823 33.1435 29.8541C33.0517 29.9184 32.9368 30.0076 32.7614 30.0822C32.6758 30.1175 32.5651 30.1507 32.4586 30.1548C32.4044 30.1569 32.3521 30.159 32.2979 30.1548C32.2415 30.1465 32.183 30.1362 32.1266 30.1216C31.8907 30.0532 31.7153 29.881 31.6255 29.7255C31.5315 29.5678 31.4835 29.4164 31.4563 29.2754C31.4021 28.9912 31.4062 28.7278 31.4459 28.4643C31.4543 28.398 31.471 28.3316 31.4856 28.2673L31.5273 28.1055L31.6067 27.7819C31.7111 27.3505 31.803 26.9149 31.8802 26.4773C32.0368 25.6019 32.1454 24.7121 32.1726 23.8202C32.1935 23.3743 32.1851 22.9262 32.1684 22.4803C32.1475 22.0343 32.1308 21.5842 32.0201 21.1735C31.9116 20.7628 31.6798 20.4061 31.329 20.2505C30.9782 20.0929 30.5501 20.1032 30.1555 20.2049C29.3432 20.4164 28.629 20.9018 28.013 21.4867C27.3887 22.0716 26.8416 22.752 26.282 23.4468C26.0043 23.7953 25.7328 24.1479 25.4655 24.5068C25.1962 24.8635 24.9289 25.2182 24.67 25.5833C24.4131 25.9483 24.1521 26.3113 23.8995 26.6805L23.1498 27.7944C22.657 28.5432 22.1809 29.3044 21.6944 30.0698L21.6025 30.0283Z" fill="#181818"/>
<path d="M50.5768 37.1677H47.6535C46.9623 37.1677 46.553 36.6097 46.741 35.9232L47.3089 33.849C47.4969 33.1624 48.211 32.6044 48.9022 32.6044H51.8255C52.5167 32.6044 52.926 33.1624 52.738 33.849L52.1701 35.9232C51.9821 36.6097 51.2701 37.1677 50.5768 37.1677Z" fill="#4FBA6F"/>
<path d="M50.5774 37.2195C50.1994 37.2175 49.8215 37.2444 49.4435 37.2984C49.0656 37.3523 48.6876 37.4332 48.3097 37.4975C48.1197 37.5265 47.9317 37.5618 47.7417 37.5804C47.6958 37.5867 47.6519 37.5908 47.5809 37.5929C47.5162 37.595 47.4515 37.595 47.3846 37.5867C47.2531 37.5722 47.1174 37.5369 46.9879 37.4809C46.729 37.3627 46.4951 37.1469 46.3761 36.8835C46.2508 36.6222 46.2257 36.3339 46.2738 36.0849C46.2842 36.0227 46.2967 35.9605 46.3176 35.9024L46.3468 35.8153L46.374 35.7489C46.4095 35.6618 46.4429 35.5726 46.4826 35.4855L46.7102 34.9628C46.8605 34.6143 47.0088 34.2638 47.1236 33.907C47.1508 33.822 47.1842 33.7183 47.2239 33.6229C47.2635 33.5275 47.3136 33.4362 47.3679 33.3491C47.4765 33.1748 47.6081 33.0172 47.7605 32.8762C48.0633 32.6003 48.4412 32.3721 48.909 32.3203C49.2869 32.2767 49.6649 32.2207 50.0428 32.1875C50.4207 32.1523 50.7987 32.1336 51.1766 32.1128L51.7446 32.0838C51.7905 32.0817 51.8344 32.0797 51.9096 32.0817C51.9764 32.0817 52.0453 32.0859 52.1163 32.0983C52.2562 32.1149 52.3982 32.1585 52.536 32.2166C52.8116 32.3389 53.0601 32.5692 53.1958 32.8471C53.3357 33.1251 53.3712 33.43 53.3357 33.6996C53.3274 33.7681 53.317 33.8344 53.3003 33.8987L53.2773 33.9941L53.2564 34.0626L53.1708 34.3322C53.1123 34.5106 53.0539 34.6911 52.9912 34.8674C52.8638 35.2221 52.7051 35.5685 52.5402 35.9128C52.5026 35.9895 52.4504 36.1036 52.3898 36.199C52.3314 36.2965 52.2645 36.3857 52.1915 36.4666C52.0474 36.6284 51.8803 36.7611 51.7091 36.869C51.3562 37.0847 50.972 37.2175 50.5774 37.2195ZM50.5774 37.1158C50.9428 37.1117 51.2915 36.9209 51.5212 36.6554C51.6381 36.5226 51.7258 36.3691 51.7822 36.2135C51.8114 36.1368 51.8302 36.058 51.8428 35.9792C51.8553 35.9024 51.8553 35.834 51.8657 35.7303C51.8991 35.3507 51.9388 34.9711 52.0098 34.6019C52.0453 34.4173 52.0871 34.2327 52.1267 34.0502L52.1894 33.7764L52.2061 33.7079L52.2123 33.6664C52.2186 33.6395 52.2207 33.6125 52.2207 33.5876C52.2291 33.4839 52.2123 33.403 52.1831 33.3428C52.1581 33.2785 52.1142 33.2391 52.0536 33.1956C52.0182 33.179 51.9806 33.1582 51.9325 33.1479C51.9096 33.1416 51.8845 33.1354 51.8574 33.1354C51.8386 33.1313 51.7885 33.1292 51.7404 33.1271L51.1725 33.0981C50.7945 33.0794 50.4166 33.0608 50.0386 33.0234C49.6607 32.9923 49.2827 32.9342 48.9048 32.8907C48.6104 32.845 48.2575 32.9405 47.9839 33.1458C47.7062 33.3532 47.5057 33.6457 47.4452 33.9962C47.3617 34.3634 47.3095 34.7388 47.2614 35.1142L47.1904 35.6784C47.18 35.7738 47.1633 35.8651 47.1487 35.9584L47.1382 36.0289L47.1362 36.0787C47.132 36.1119 47.1341 36.143 47.1341 36.1741C47.1362 36.2965 47.1654 36.3961 47.2092 36.4728C47.251 36.5496 47.3095 36.6035 47.3867 36.6533C47.4285 36.674 47.4723 36.701 47.5287 36.7134C47.5559 36.7238 47.583 36.7321 47.6143 36.7362C47.6373 36.7445 47.6895 36.7466 47.7375 36.7528C47.9275 36.7736 48.1155 36.8068 48.3055 36.8358C48.6834 36.9001 49.0614 36.981 49.4393 37.0349C49.8215 37.0909 50.1994 37.1179 50.5774 37.1158Z" fill="#181818"/>
<path d="M75.1908 52.857L69.601 58.4096C69.2752 58.7332 68.7469 58.7332 68.4191 58.4096L66.8634 56.8643C66.5377 56.5408 66.5377 56.016 66.8634 55.6903L72.4533 50.1377C72.7791 49.8141 73.3074 49.8141 73.6352 50.1377L75.1908 51.683C75.5166 52.0086 75.5166 52.5334 75.1908 52.857Z" fill="#181818"/>
<path d="M71.1189 48.2999L69.7867 41.3534L50.4717 33.7452L71.1189 48.2999ZM50.4717 33.7452L57.4648 52.6018L65.4581 54.255L71.1189 48.2999L50.4717 33.7452ZM62.2946 48.4659C60.6387 48.4659 59.2981 47.1322 59.2981 45.4894C59.2981 43.8445 60.6408 42.5129 62.2946 42.5129C63.9484 42.5129 65.291 43.8466 65.291 45.4894C65.291 47.1322 63.9484 48.4659 62.2946 48.4659Z" fill="white"/>
<path d="M71.1188 48.3C70.9496 47.7316 70.7951 47.1612 70.6427 46.5908L70.1979 44.8754L69.7803 43.1538L69.3836 41.4302L69.6362 41.733C66.3725 40.5735 63.1485 39.3207 59.9474 38.0057C58.3458 37.3502 56.7588 36.6616 55.1761 35.9626C53.5954 35.2553 52.023 34.5314 50.4736 33.7452C52.1441 34.2285 53.7896 34.772 55.4287 35.3341C57.0637 35.9024 58.6966 36.4811 60.3149 37.0951C63.5536 38.3168 66.7672 39.5987 69.9411 40.9759L70.1603 41.0713L70.1917 41.2788L70.461 43.0273L70.7095 44.78L70.9309 46.5369C70.9977 47.1239 71.0666 47.7109 71.1188 48.3Z" fill="#181818"/>
<path d="M50.4717 33.7452C51.1733 35.2739 51.8269 36.8192 52.4763 38.3645L53.4347 40.6897L54.3723 43.0232L55.289 45.3649C55.5938 46.1448 55.8987 46.9268 56.191 47.7109C56.782 49.279 57.3792 50.845 57.9471 52.4214L57.5713 52.0999L59.5675 52.523L61.5596 52.9648L63.5516 53.4108L65.5395 53.8775L65.1824 53.9895C65.6648 53.5041 66.1534 53.0229 66.6462 52.5458C67.1369 52.0688 67.6234 51.5855 68.1204 51.1126C68.6174 50.6396 69.1081 50.1605 69.6113 49.6938C70.1104 49.223 70.6157 48.7583 71.1231 48.2958C70.6867 48.8247 70.2482 49.3536 69.8034 49.8743C69.3628 50.399 68.9097 50.9134 68.4629 51.4341C68.0181 51.9547 67.5587 52.4629 67.1077 52.9793C66.6566 53.4937 66.2014 54.0061 65.74 54.5122L65.6021 54.6636L65.3829 54.6242L63.3741 54.2633L61.3695 53.8837L59.365 53.5L57.3604 53.0996L57.0868 53.0436L56.9845 52.7761C56.3852 51.21 55.8172 49.6336 55.243 48.0593C54.9528 47.2732 54.6751 46.4829 54.3973 45.6927L53.5642 43.3198L52.754 40.9407L51.9647 38.5532C51.4489 36.9561 50.9352 35.359 50.4717 33.7452Z" fill="#181818"/>
<path d="M62.2942 48.4658C61.5091 48.4679 60.7261 48.1775 60.1247 47.6444C59.5191 47.1176 59.1078 46.3377 59.0368 45.4893C59.0034 45.0662 59.0493 44.6285 59.1892 44.2116C59.3312 43.7968 59.5546 43.4027 59.8574 43.0687C60.4588 42.3988 61.3713 41.9901 62.2942 41.9943C63.2172 41.9901 64.1318 42.3967 64.7332 43.0667C65.0359 43.4006 65.2594 43.7968 65.4014 44.2095C65.5413 44.6265 65.5872 45.0662 65.5538 45.4893C65.4828 46.3397 65.0693 47.1196 64.4638 47.6444C63.8624 48.1775 63.0794 48.4679 62.2942 48.4658ZM62.2942 48.4658C63.0815 48.4679 63.8561 48.1194 64.3636 47.5428C64.6183 47.2565 64.8021 46.9185 64.919 46.5679C65.0318 46.2153 65.0652 45.844 65.0297 45.4893C64.9566 44.7758 64.6037 44.1328 64.0942 43.7014C63.5889 43.2637 62.9436 43.0293 62.2942 43.0293C61.6448 43.0293 60.9996 43.2616 60.4922 43.6993C59.9827 44.1307 59.6277 44.7737 59.5567 45.4893C59.5233 45.8461 59.5567 46.2153 59.6695 46.57C59.7864 46.9205 59.9702 47.2607 60.2249 47.5449C60.7302 48.1194 61.507 48.4679 62.2942 48.4658Z" fill="#181818"/>
<path d="M50.6387 33.9112C51.2818 34.4007 51.8957 34.9193 52.4992 35.4482C53.1047 35.975 53.6936 36.5205 54.2803 37.0681C54.8608 37.6219 55.4372 38.1799 55.9968 38.7545C56.5585 39.3269 57.1097 39.9119 57.6318 40.5258C56.9886 40.0363 56.3747 39.5178 55.7713 38.9888C55.1657 38.462 54.5769 37.9165 53.9922 37.3668C53.4117 36.813 52.8354 36.255 52.2758 35.6784C51.712 35.108 51.1607 34.5231 50.6387 33.9112Z" fill="#181818"/>
</g>
<defs>
<clipPath id="clip0_625_65">
<rect width="81" height="80" fill="white"/>
</clipPath>
</defs>
</svg>
