<svg width="83" height="80" viewBox="0 0 83 80" fill="none" xmlns="http://www.w3.org/2000/svg">
<g clip-path="url(#clip0_625_2)">
<path fill-rule="evenodd" clip-rule="evenodd" d="M18.7295 56.3552C40.7265 38.4182 51.6687 20.2586 50.5361 13.3535C50.397 12.3021 49.0623 11.8417 48.048 12.1909L12.5158 24.0421C11.0858 24.4488 10.96 25.1069 11.101 26.1583L16.8667 55.11C16.8953 55.3211 16.8953 55.3211 16.922 55.5302C17.2709 56.5528 17.9516 56.8886 18.7295 56.3552Z" fill="#4FBA6F"/>
<path d="M29.3336 6.71708L29.511 13.8984L29.5834 17.5342L29.6425 21.191L29.6883 24.8632L29.715 28.545C29.7321 31.0008 29.7245 33.4624 29.6959 35.9163L29.6921 36.3211L29.3012 36.3134L22.1037 36.1811L18.5039 36.112L14.9042 36.0698C12.5056 36.0564 10.1051 36.0564 7.70659 36.0775C5.30803 36.0909 2.90757 36.1446 0.509012 36.1772L0.251616 36.1811L0.247802 35.9144C0.209669 33.4835 0.150563 31.0546 0.12959 28.6237C0.100991 26.1928 0.0704844 23.7639 0.0590446 21.333L0.0113785 14.0423C-0.0057813 11.6114 -6.13734e-05 9.18248 -6.13734e-05 6.75161V6.23743L0.507106 6.24126C2.93617 6.25853 5.36714 6.26429 7.79048 6.2969L11.4245 6.34295L15.0453 6.40435L22.2352 6.55208L29.3336 6.71708ZM29.265 6.78423L21.9664 6.95115L14.7612 7.09888L11.1843 7.16027L7.62079 7.20632C5.24702 7.23894 2.87897 7.24469 0.509012 7.26196L1.01618 6.75161C1.01809 9.18248 1.0219 11.6114 1.00474 14.0423L0.957073 21.333C0.945634 23.7639 0.917034 26.1928 0.886528 28.6237C0.865555 31.0546 0.808355 33.4835 0.768316 35.9144L0.507106 35.6515C2.90566 35.6841 5.30613 35.7379 7.70468 35.7513C10.1032 35.7724 12.5037 35.7724 14.9023 35.759L18.502 35.7187L22.1017 35.6496L29.2993 35.5172L28.9027 35.9163C28.8741 33.5084 28.8646 31.1102 28.8837 28.7062L28.9104 25.0973L28.9561 21.4788L29.0152 17.845L29.0877 14.19L29.265 6.78423Z" fill="#181818"/>
<path d="M12.9979 11.2604H4.41797V19.8942H12.9979V11.2604Z" fill="white"/>
<path d="M13.0319 19.9267C12.3817 19.9958 11.6972 20.0533 10.9956 20.1032C10.6467 20.1301 10.292 20.155 9.93357 20.1761C9.57512 20.1972 9.21667 20.2222 8.85059 20.2356L7.75237 20.2836L6.6427 20.3104C5.90292 20.3315 5.15743 20.3219 4.41955 20.2932L4.00391 20.2759L4.02107 19.8922C4.05157 19.1727 4.10496 18.4532 4.15453 17.7337C4.20601 17.0143 4.24414 16.2948 4.26321 15.5753C4.28037 14.8558 4.27274 14.1364 4.25558 13.4169C4.24033 12.6974 4.19838 11.9779 4.15644 11.2585L4.14309 11.011L4.41765 10.9956C5.13264 10.9553 5.84763 10.9035 6.56262 10.8728C7.27761 10.8402 7.9926 10.8229 8.7076 10.8037C10.1376 10.7692 11.5676 10.7289 12.9975 10.7443L13.5123 10.75L13.5066 11.2565C13.499 12.0067 13.4818 12.7569 13.4513 13.5013C13.4246 14.2476 13.3884 14.9882 13.3446 15.7173C13.3026 16.4464 13.253 17.1678 13.1996 17.87C13.1482 18.576 13.0929 19.2648 13.0319 19.9267ZM12.9632 19.8596L12.7954 17.5975C12.7421 16.8608 12.6925 16.1413 12.6505 15.4333C12.6067 14.7235 12.5705 14.0251 12.5438 13.3325C12.5133 12.6379 12.4961 11.9511 12.4885 11.2604L12.9975 11.7726C11.5676 11.788 10.1376 11.7496 8.7076 11.7132C7.9926 11.6959 7.27761 11.6786 6.56262 11.6441C5.84763 11.6153 5.13264 11.5616 4.41765 11.5213L4.67886 11.2585C4.63691 11.9779 4.59497 12.6974 4.57971 13.4169C4.56255 14.1364 4.55493 14.8558 4.57209 15.5753C4.59306 16.2948 4.62929 17.0143 4.68076 17.7337C4.73224 18.4532 4.78372 19.1727 4.81423 19.8922L4.41765 19.4931C5.10976 19.4643 5.79234 19.4528 6.48445 19.4758L7.51976 19.5027L8.5665 19.5507C8.91542 19.5641 9.27196 19.589 9.6285 19.6101C9.98314 19.6293 10.3454 19.6562 10.7115 19.683C11.4398 19.7329 12.1853 19.7905 12.9632 19.8596Z" fill="#181818"/>
<path d="M62.5095 6.71709L62.6678 11.5117L62.7364 13.9483L62.7936 16.4041C62.8279 18.0464 62.8565 19.6984 62.8756 21.3522C62.887 23.0079 62.9118 24.6656 62.9004 26.3214L62.8985 26.7492H62.4752C61.4037 26.7511 60.3302 26.7339 59.2568 26.7204L56.0384 26.6456C53.8934 26.5996 51.7484 26.5305 49.6034 26.4979C47.4585 26.4595 45.3135 26.4653 43.1685 26.4749C41.0235 26.4902 38.8786 26.542 36.7336 26.5842L36.4781 26.59L36.4724 26.3233L36.3656 21.4308C36.3332 19.8 36.3141 18.1692 36.2989 16.5384L36.2569 11.646C36.2455 10.0152 36.2207 8.38435 36.2264 6.75354L36.2283 6.24127H36.7355L39.9997 6.24319L43.2619 6.27197C44.3487 6.27964 45.4336 6.29883 46.5166 6.3161L49.7598 6.37557C51.9181 6.41586 54.0593 6.47918 56.1871 6.5329C57.2529 6.55784 58.3149 6.58662 59.3655 6.62116L62.5095 6.71709ZM62.4409 6.78424L59.15 6.88017L55.8935 6.96842C53.7313 7.02406 51.5825 7.08546 49.4509 7.12575L46.2592 7.18522C45.1972 7.20249 44.1371 7.22168 43.0789 7.22935L39.9063 7.25813L36.7355 7.26005L37.2427 6.7497C37.2465 8.38051 37.2217 10.0113 37.2122 11.6421L37.1702 16.5346C37.155 18.1654 37.1359 19.7962 37.1035 21.427L36.9967 26.3194L36.7355 26.0566C38.8805 26.0988 41.0255 26.1487 43.1704 26.166C45.3154 26.1775 47.4604 26.1813 49.6054 26.1429C51.7503 26.1103 53.8953 26.0413 56.0403 25.9952L59.2587 25.9204C60.3302 25.907 61.4037 25.8897 62.4771 25.8916L62.0519 26.3194C62.0405 24.7136 62.0653 23.1096 62.0767 21.5038C62.0958 19.8979 62.1244 18.2863 62.1587 16.667L62.2159 14.2303L62.2845 11.7745L62.4409 6.78424Z" fill="#181818"/>
<path d="M5.92871 14.9939C6.14035 15.2184 6.33864 15.4486 6.5274 15.6865C6.71806 15.9225 6.90301 16.1604 7.08032 16.4041C7.43687 16.8895 7.77053 17.3883 8.08894 17.8968L7.34535 17.8526C7.63897 17.4094 7.94594 16.9778 8.26435 16.5518C8.57894 16.124 8.90879 15.7096 9.24627 15.299C9.58565 14.8903 9.93647 14.4893 10.3045 14.1018C10.6743 13.7142 11.0538 13.3362 11.4732 12.9871C11.2635 13.4917 11.0156 13.9694 10.7563 14.4375C10.4951 14.9057 10.2187 15.3604 9.92885 15.8074C9.63904 16.2525 9.3397 16.6919 9.02701 17.1197C8.71622 17.5495 8.394 17.9716 8.06034 18.3841L7.618 18.9309L7.31675 18.34C7.0441 17.8066 6.78861 17.2636 6.55218 16.7072C6.43206 16.431 6.32339 16.1489 6.21852 15.863C6.11175 15.581 6.01451 15.2913 5.92871 14.9939Z" fill="#181818"/>
<path d="M26.0574 43.3969H6.41895V68.1469H26.0574V43.3969Z" fill="white"/>
<path d="M26.0921 68.1795C25.3028 68.2102 24.5039 68.2371 23.6993 68.262L21.2817 68.3426C19.6591 68.3925 18.0194 68.4328 16.374 68.4712C14.7247 68.5 13.0697 68.5383 11.4071 68.5498C9.74646 68.5652 8.08196 68.5805 6.42128 68.5709L5.99609 68.569L5.998 68.145C6.00181 67.1128 6.01897 66.0825 6.03613 65.0522L6.11049 61.9594L6.18676 58.8666C6.21345 57.8344 6.24014 56.8041 6.25158 55.7739C6.284 53.7114 6.28018 51.6489 6.26684 49.5864C6.25158 47.5239 6.2001 45.4614 6.16007 43.3989L6.15434 43.1418L6.41937 43.136L11.329 43.0247C12.9649 42.9921 14.6027 42.9729 16.2386 42.9576L21.1482 42.9135C22.7841 42.8981 24.4219 42.8828 26.0578 42.8847L26.5631 42.8866L26.565 43.397C26.5745 45.4901 26.5497 47.5853 26.5306 49.6746C26.5039 51.764 26.4715 53.8514 26.4258 55.9254C26.3857 58.0014 26.3228 60.0581 26.2713 62.1052L26.2332 63.6382L26.1855 65.1597L26.0921 68.1795ZM26.0235 68.1124L25.93 64.9467L25.8824 63.3734L25.8442 61.8136C25.7928 59.7358 25.7279 57.6675 25.6898 55.6185C25.6441 53.5675 25.6097 51.528 25.5849 49.4943C25.5659 47.4606 25.5411 45.4288 25.5506 43.397L26.0597 43.9092C24.4238 43.9131 22.786 43.8958 21.1501 43.8804L16.2405 43.8363C14.6046 43.821 12.9668 43.8018 11.3309 43.7692L6.42128 43.6579L6.68248 43.395C6.64245 45.4575 6.59097 47.52 6.57571 49.5825C6.56237 51.645 6.55855 53.7075 6.59097 55.77C6.60241 56.8022 6.6291 57.8325 6.65579 58.8628L6.73206 61.9556L6.80642 65.0484C6.82358 66.0787 6.84074 67.1109 6.84455 68.1412L6.42128 67.7152C8.03239 67.7056 9.64159 67.7191 11.2546 67.7363C12.8657 67.7479 14.4845 67.7862 16.107 67.815L21.0185 67.9436L26.0235 68.1124Z" fill="#181818"/>
<path d="M73.7239 54.1411H40.167V68.1469H73.7239V54.1411Z" fill="white"/>
<path d="M73.7586 68.1795C71.0474 68.2677 68.2923 68.3445 65.5105 68.404L61.3216 68.4807L59.2186 68.5133L57.106 68.5325C54.2937 68.567 51.4585 68.5651 48.6271 68.5095L40.1693 68.3272L39.9862 68.3234L39.9881 68.1449L40.0129 66.3952L40.0206 64.6454C40.0301 63.4789 40.0167 62.3105 40.0167 61.144C40.0034 59.9775 39.9996 58.809 39.9729 57.6425L39.9081 54.1411L39.9023 53.884L40.1674 53.8782C42.9644 53.8168 45.7596 53.7478 48.5566 53.7228L56.9458 53.6499L59.0432 53.6326L61.1405 53.6288C62.538 53.6269 63.9375 53.625 65.3351 53.6384C68.1321 53.6518 70.9273 53.6844 73.7243 53.7266L74.1419 53.7324L74.1342 54.1391L74.0656 57.7058L73.9684 61.2437C73.936 62.4179 73.9054 63.5863 73.8635 64.7394L73.7586 68.1795ZM73.69 68.1123L73.4784 61.0404L73.3811 57.5754L73.3125 54.1391L73.7224 54.5516C70.9254 54.5939 68.1302 54.6265 65.3332 54.6399C63.9356 54.6533 62.5361 54.6533 61.1386 54.6495L59.0412 54.6457L56.9439 54.6284L48.5547 54.5555C45.7577 54.5286 42.9625 54.4596 40.1655 54.4001L40.4267 54.1372L40.3618 57.6387C40.3352 58.8052 40.3313 59.9736 40.318 61.1401C40.3161 62.3066 40.3027 63.4751 40.3142 64.6416L40.3218 66.3913L40.3466 68.1411L40.1655 67.9588L48.4861 67.7766C51.2469 67.7209 54.0058 67.719 56.7857 67.7536L58.8677 67.7727L60.9593 67.8054L65.1597 67.8821C67.972 67.9454 70.8091 68.0222 73.69 68.1123Z" fill="#181818"/>
<path d="M66.9542 0.516174V8.95803H65.7397L65.6196 11.8359L62.567 8.95803H54.9424V0.516174H66.9542Z" fill="white"/>
<path d="M66.9889 0.481611C67.0423 1.13585 67.0861 1.81504 67.1319 2.50574C67.1739 3.19835 67.2196 3.89864 67.2501 4.61428C67.2883 5.32608 67.313 6.0494 67.3359 6.77463C67.3645 7.49986 67.3664 8.23085 67.3779 8.958L67.3836 9.37625L66.9546 9.38393C66.5504 9.3916 66.1443 9.3916 65.7401 9.38968L66.169 8.97718C66.1462 9.45683 66.1138 9.93648 66.0813 10.4142C66.0508 10.8939 66.0032 11.3716 65.9631 11.8512L65.8983 12.6264L65.3854 12.0892L63.9345 10.5696C63.4502 10.0631 62.9564 9.56811 62.4606 9.07503L62.5674 9.11724C61.9325 9.10381 61.2976 9.10381 60.6607 9.10957C60.0258 9.11149 59.3909 9.12875 58.7541 9.14602C57.4843 9.18631 56.2125 9.25538 54.9427 9.31294L54.6091 9.32829L54.5938 8.96183C54.5328 7.5555 54.5099 6.14724 54.4832 4.74091C54.4584 3.33457 54.4298 1.92632 54.4317 0.519983V0.00579775H54.9427C55.9742 0.00387915 57.0076 0.0249838 58.0353 0.048007C59.0611 0.0806232 60.0868 0.109402 61.0974 0.157367C62.1098 0.199577 63.1108 0.253297 64.0946 0.307018C65.0804 0.356902 66.047 0.416379 66.9889 0.481611ZM66.9203 0.548762L63.8067 0.727192C62.7886 0.782832 61.7876 0.834634 60.798 0.876843C59.8066 0.924808 58.8304 0.953587 57.8542 0.986204C56.8799 1.01115 55.9113 1.03033 54.9408 1.02841L55.4537 0.512309C55.4556 1.91864 55.427 3.3269 55.4022 4.73323C55.3755 6.13957 55.3526 7.54782 55.2916 8.95416L54.9408 8.60114C56.2106 8.65678 57.4824 8.72585 58.7522 8.76806C59.3871 8.78532 60.022 8.80451 60.6588 8.80451C61.2938 8.81218 61.9287 8.81026 62.5655 8.79683L62.6227 8.79492L62.6704 8.83904C63.1909 9.30526 63.7171 9.76765 64.2491 10.2224L65.8525 11.5807L65.2748 11.8186C65.2748 11.339 65.2691 10.8574 65.2767 10.3778C65.2844 9.89811 65.2901 9.41654 65.3092 8.93689L65.3244 8.52439L65.7381 8.52247C66.1424 8.52056 66.5485 8.52247 66.9527 8.52823L66.5313 8.95224C66.5428 8.27306 66.5447 7.59771 66.5733 6.91469C66.5942 6.23358 66.6209 5.54864 66.6591 4.85411C66.6915 4.16149 66.7372 3.45544 66.7773 2.74172L66.9203 0.548762Z" fill="#181818"/>
<path d="M13.8553 72.9434V62.0687H12.5054L12.3719 58.362L8.98001 62.0687H0.508789V72.9434H13.8553Z" fill="white"/>
<path d="M13.8213 72.9089L13.6687 70.0981C13.6249 69.1811 13.5791 68.2736 13.5467 67.3776C13.5048 66.4797 13.4876 65.5971 13.4609 64.7126L13.4266 62.0688L13.8556 62.5005L12.5057 62.4947L12.0881 62.4928L12.0824 62.0841C12.0748 61.4664 12.0576 60.8486 12.0614 60.2289C12.0595 59.6111 12.0633 58.9914 12.0691 58.3717L12.5934 58.5674C12.0004 59.1583 11.4074 59.7511 10.8202 60.3497L9.94696 61.2534C9.65524 61.5527 9.37497 61.8654 9.08706 62.1705L9.0413 62.2184L8.97838 62.2165C8.27293 62.205 7.56747 62.2204 6.8601 62.2223C6.15465 62.2357 5.44919 62.2472 4.74182 62.2741C3.33091 62.3182 1.91808 62.3758 0.507167 62.4295L0.867523 62.0669C0.898029 62.9725 0.919002 63.88 0.936162 64.7855L0.980015 67.5042L1.01433 70.2229L1.01624 72.9415L0.507167 72.4312C1.59014 72.4484 2.67121 72.4542 3.75799 72.4868C4.84478 72.5137 5.93538 72.5501 7.03742 72.5942L10.3798 72.7401L13.8213 72.9089ZM13.8899 72.976L10.6562 73.1449C9.56182 73.1986 8.44834 73.2485 7.32532 73.2907C6.20231 73.3348 5.06977 73.3713 3.9315 73.3981C2.79323 73.4308 1.64925 73.4365 0.509074 73.4538L0 73.4615V72.9434L0.00190664 70.2248L0.0362262 67.5061L0.080079 64.7875C0.0972388 63.8819 0.118212 62.9744 0.148718 62.0688L0.162065 61.6947L0.509074 61.7081C1.91999 61.7618 3.33281 61.8194 4.74373 61.8635C5.44919 61.8923 6.15465 61.9019 6.86201 61.9153C7.56747 61.9172 8.27293 61.9326 8.98029 61.9211L8.87161 61.969C9.14998 61.6563 9.43598 61.3493 9.70863 61.0308L10.5323 60.0811C11.0757 59.4422 11.6134 58.7995 12.151 58.1568L12.6144 57.6023L12.6754 58.3525C12.7249 58.9683 12.7745 59.5861 12.8165 60.2039C12.8641 60.8217 12.8927 61.4376 12.9289 62.0554L12.5076 61.6448L13.8575 61.639L14.2922 61.6371L14.2865 62.0707L14.2522 64.8642C14.2255 65.7909 14.2083 66.7214 14.1664 67.6347C14.132 68.5517 14.0882 69.4573 14.0443 70.3514C13.9929 71.2416 13.9471 72.1242 13.8899 72.976Z" fill="#181818"/>
<path d="M82.4936 25.554H56.7539V49.3446H82.4936V25.554Z" fill="white"/>
<path d="M82.5283 49.3772L79.3843 49.4712L76.2059 49.5595L72.9989 49.6324C71.9274 49.6573 70.8501 49.6765 69.7691 49.6918C67.6127 49.7321 65.441 49.7475 63.2712 49.7647L60.0128 49.7667C58.926 49.7532 57.8411 49.7494 56.7562 49.7245L56.3711 49.7149L56.3787 49.3446L56.5084 43.3969C56.556 41.415 56.5942 39.4312 56.6037 37.4492C56.6171 35.4673 56.6113 33.4835 56.5904 31.5016C56.5751 29.5196 56.5255 27.5358 56.4931 25.5539L56.4893 25.2968L56.7543 25.291C58.8993 25.2488 61.0443 25.1951 63.1892 25.1644C65.3342 25.1318 67.4792 25.1145 69.6242 25.0992L76.0591 25.0493L79.2775 25.0435C80.349 25.0416 81.4225 25.0416 82.4959 25.0512L83.0012 25.0551L82.9974 25.5558C82.984 27.5684 82.9745 29.581 82.9402 31.5879C82.9154 33.5967 82.8753 35.5978 82.8353 37.5912L82.6904 43.5312L82.5283 49.3772ZM82.4597 49.31L82.1546 37.3073C82.1146 35.3349 82.0745 33.3722 82.0498 31.4152C82.0154 29.4583 82.0059 27.507 81.9926 25.552L82.494 26.0566C81.4225 26.0662 80.349 26.0662 79.2756 26.0642L76.0572 26.0585L69.6223 26.0086C67.4773 25.9933 65.3323 25.976 63.1873 25.9434C61.0424 25.9127 58.8974 25.8589 56.7524 25.8167L57.0136 25.5539C56.9831 27.5358 56.9316 29.5196 56.9164 31.5016C56.8954 33.4835 56.8916 35.4673 56.903 37.4492C56.9126 39.4312 56.9507 41.415 56.9984 43.3969L57.128 49.3446L56.7505 48.9647C57.8125 48.9378 58.8707 48.9359 59.9289 48.9225L63.1054 48.9244C65.2255 48.9417 67.3438 48.957 69.4774 48.9973C70.5413 49.0127 71.609 49.0318 72.6824 49.0568L75.9104 49.1297L82.4597 49.31Z" fill="#181818"/>
<path d="M62.2843 25.554C62.4807 27.5359 62.5855 29.5197 62.6542 31.5016C62.7304 33.4835 62.759 35.4674 62.7609 37.4493C62.7609 39.4312 62.7323 41.415 62.6561 43.397C62.5855 45.3789 62.4826 47.3627 62.2843 49.3446C62.086 47.3627 61.983 45.3789 61.9125 43.397C61.8362 41.415 61.8076 39.4312 61.8076 37.4493C61.8095 35.4674 61.8381 33.4835 61.9144 31.5016C61.9849 29.5178 62.0879 27.5359 62.2843 25.554Z" fill="#181818"/>
<path d="M45.3156 54.1411C45.512 55.3076 45.6149 56.4761 45.6893 57.6426C45.7599 58.8091 45.7923 59.9775 45.7923 61.144C45.7923 62.3105 45.7599 63.479 45.6912 64.6455C45.6169 65.812 45.5158 66.9804 45.3156 68.1469C45.1173 66.9804 45.0144 65.812 44.94 64.6455C44.8695 63.479 44.837 62.3105 44.8389 61.144C44.8389 59.9775 44.8714 58.8091 44.9419 57.6426C45.0163 56.4741 45.1192 55.3076 45.3156 54.1411Z" fill="#181818"/>
<path d="M36.8337 57.117C46.5741 57.117 54.4702 49.1713 54.4702 39.3699C54.4702 29.5684 46.5741 21.6228 36.8337 21.6228C27.0934 21.6228 19.1973 29.5684 19.1973 39.3699C19.1973 49.1713 27.0934 57.117 36.8337 57.117Z" fill="white"/>
<path d="M54.5169 39.3698C54.5207 40.5344 54.4101 41.699 54.1947 42.8444C53.9888 43.9917 53.6589 45.116 53.2414 46.2077C52.3967 48.3872 51.1364 50.419 49.5158 52.1304C48.7055 52.9842 47.8151 53.7689 46.8427 54.4404C46.5967 54.6035 46.3546 54.7724 46.1029 54.9297C45.8493 55.0793 45.5995 55.2386 45.3402 55.3825C45.0771 55.5168 44.8197 55.6626 44.5528 55.7892C44.284 55.912 44.0189 56.0444 43.7444 56.1557C41.5689 57.0862 39.1932 57.5409 36.8347 57.514C34.4743 57.4757 32.1291 56.9596 29.9841 56.0118C28.9107 55.5398 27.8849 54.9604 26.9278 54.287C25.9668 53.6193 25.0726 52.8595 24.2547 52.0249C22.6169 50.3577 21.2994 48.3796 20.3899 46.2211C19.9361 45.141 19.5834 44.0186 19.3355 42.8693C19.0896 41.7201 18.958 40.5459 18.937 39.366C18.8989 37.0099 19.3031 34.6289 20.1897 32.4283C21.0648 30.2238 22.3804 28.192 24.0468 26.4979C25.7094 24.8019 27.7076 23.4358 29.8945 22.5053C32.0814 21.5709 34.4609 21.1066 36.8347 21.1066C39.2066 21.1239 41.5841 21.594 43.7596 22.5398C45.9408 23.4723 47.9123 24.8748 49.5272 26.5919C51.1479 28.3071 52.4063 30.3428 53.2509 32.5223C53.6685 33.614 53.9964 34.7402 54.2023 35.8875C54.414 37.0406 54.5226 38.2052 54.5169 39.3698ZM54.4216 39.3698C54.412 38.211 54.2977 37.0541 54.0612 35.9202C53.8191 34.7901 53.4759 33.6812 53.0088 32.6278C52.0878 30.5135 50.7265 28.6141 49.083 27.0447C48.2593 26.26 47.3575 25.5635 46.408 24.9496C46.1658 24.8038 45.9294 24.6503 45.6834 24.5083C45.4356 24.374 45.1915 24.232 44.9398 24.1035C44.6863 23.9807 44.4384 23.8464 44.181 23.7313C43.9217 23.62 43.6681 23.4991 43.405 23.3974C42.3602 22.9811 41.2791 22.6569 40.177 22.4439C39.075 22.2309 37.952 22.1273 36.8309 22.1331C35.7098 22.1388 34.5887 22.2444 33.4885 22.4631C32.3884 22.6818 31.3112 23.0099 30.272 23.432C28.1938 24.28 26.2814 25.5482 24.6779 27.1387C23.0783 28.7312 21.776 30.6325 20.8856 32.7219C20.4414 33.7675 20.0963 34.8553 19.8522 35.9681C19.6101 37.0828 19.4785 38.2225 19.4556 39.3679C19.4232 41.6549 19.8179 43.9649 20.6854 46.0984C21.5415 48.2338 22.8418 50.1888 24.4701 51.8081C25.2862 52.6158 26.1842 53.3372 27.1432 53.9608C28.1042 54.5805 29.1242 55.1024 30.1843 55.5187C32.3026 56.3552 34.5753 56.7524 36.8328 56.7159C37.9615 56.7044 39.0864 56.5739 40.1923 56.3552C41.2962 56.1326 42.3773 55.7988 43.4222 55.3767C43.6834 55.2731 43.9389 55.1503 44.1963 55.0371C44.4517 54.9201 44.7015 54.7858 44.9532 54.6592C45.2049 54.5306 45.447 54.3867 45.6968 54.2524C45.9408 54.1104 46.1773 53.955 46.4194 53.8092C47.3651 53.1895 48.2669 52.4931 49.0906 51.7045C50.7341 50.1293 52.0936 48.228 53.0145 46.1137C53.4816 45.0604 53.8248 43.9495 54.065 42.8195C54.3015 41.6875 54.414 40.5286 54.4216 39.3698Z" fill="#181818"/>
<path d="M37.0607 46.5664C30.7059 46.4705 23.7371 41.4476 21.7523 39.9108C21.7237 39.8897 21.7123 39.8666 21.7104 39.8417C21.7084 39.8244 21.7123 39.7899 21.7485 39.7573C22.5645 39.0148 24.7705 37.0885 27.4818 35.3617C30.9004 33.186 33.89 32.0809 36.3667 32.0809C36.4563 32.0809 36.546 32.0828 36.6337 32.0848C42.4489 32.2862 49.6065 37.2381 51.6618 38.75C51.6923 38.773 51.7 38.8018 51.7019 38.8229C51.7038 38.8498 51.6942 38.8747 51.679 38.892C50.7505 39.8244 48.8152 41.6375 46.3099 43.2913C43.0152 45.4651 39.9493 46.5664 37.198 46.5664H37.0607Z" fill="white"/>
<path d="M36.3656 31.7932V32.3687C36.4514 32.3687 36.5372 32.3706 36.623 32.3726C42.2019 32.5663 49.0715 37.219 51.3137 38.8517C50.3394 39.8148 48.4976 41.5032 46.1524 43.0515C42.9054 45.1946 39.8929 46.2805 37.1988 46.2805C37.155 46.2805 37.1111 46.2805 37.0673 46.2805C30.9775 46.1904 24.2851 41.4859 22.1058 39.8225C23.8466 38.2627 30.7944 32.3707 36.3656 32.3707V31.7932ZM36.3656 31.7932C30.3997 31.7932 23.1697 38.0747 21.551 39.5481C21.3737 39.7189 21.3832 39.9933 21.5796 40.1391C23.2498 41.4322 30.436 46.7544 37.0597 46.8542C37.1073 46.8542 37.1531 46.8542 37.1988 46.8542C43.8149 46.8542 50.4023 40.5804 51.8819 39.0954C52.0363 38.94 52.0268 38.6637 51.8304 38.5179C50.1469 37.2784 42.6957 32.008 36.6421 31.797C36.5506 31.7951 36.4591 31.7932 36.3656 31.7932Z" fill="#181818"/>
<path d="M37.3635 47.0518C35.903 47.023 34.4445 46.7986 33.0316 46.388C32.6999 46.2863 32.3529 46.1808 31.9925 46.0522L30.9553 45.657C30.1736 45.327 29.5673 45.0392 29.0029 44.7284C28.8618 44.6555 28.7188 44.5787 28.5758 44.502C28.7188 44.5634 28.8637 44.6267 29.0086 44.6862C30.4901 45.2944 31.8343 45.7472 33.1174 46.0676L33.3825 46.1347L33.6513 46.1827L34.1546 46.2901C34.3148 46.3304 34.5055 46.3784 34.6904 46.4033L35.7353 46.5472C35.8897 46.5683 36.0422 46.5741 36.2043 46.5818L36.2939 46.5856L36.803 46.6163L37.0909 46.6259L37.3578 46.6105C38.1529 46.5894 38.845 46.5146 39.4666 46.3822C40.2025 46.2345 40.9213 46.01 41.5295 45.8124C42.7364 45.4057 44.012 44.809 45.4305 43.9859C46.5307 43.347 47.6708 42.5642 49.0207 41.5263C49.5527 41.1157 50.1056 40.6629 50.7062 40.1429C50.8454 40.0201 50.9789 39.9031 51.1123 39.788C51.2477 39.669 51.385 39.552 51.5223 39.4292L51.5299 39.4215L51.5204 39.4311C51.2897 39.669 51.0189 39.9472 50.7615 40.1986C50.1476 40.7876 49.6309 41.2519 49.139 41.6606C47.9206 42.687 46.7652 43.535 45.6079 44.2507C44.2923 45.0661 42.9672 45.7242 41.6706 46.2076C40.1968 46.7391 38.7477 47.025 37.3635 47.0518ZM28 34.6788C28.5396 34.3238 29.1783 33.919 29.8361 33.566C30.145 33.3933 30.4748 33.2264 30.8199 33.0633L31.3157 32.8407L31.8285 32.622C32.5111 32.3477 33.2109 32.1251 33.9011 31.9601C34.6351 31.7855 35.3635 31.6953 36.0708 31.6896L36.6276 31.6973L37.741 31.822C37.8211 31.8335 37.9088 31.8507 37.9946 31.868C38.0919 31.8872 38.1872 31.9064 38.2863 31.9198L38.3054 31.9236C38.6429 31.9908 38.9632 32.0541 39.2835 32.15C38.3054 31.9639 37.3197 31.8661 36.3797 31.8661C36.2939 31.8661 36.21 31.8661 36.1242 31.868C34.8734 31.939 33.5464 32.2441 31.9353 32.8254C30.7112 33.2935 29.4281 33.8979 28.0038 34.673C28.0038 34.6768 28.0019 34.6788 28 34.6788Z" fill="white"/>
<path d="M36.0651 31.4018C35.3101 31.4076 34.5512 31.5092 33.8324 31.68C33.1136 31.8507 32.4005 32.081 31.7142 32.3573L31.1956 32.5779L30.696 32.8024C30.3452 32.9674 30.0134 33.1381 29.7007 33.3127C29.0544 33.6581 28.4366 34.0475 27.8151 34.4562C26.5929 35.2601 25.4432 36.1599 24.3068 37.0828C23.7482 37.5471 23.1896 38.0095 22.6443 38.4968L21.8263 39.2258L21.6261 39.41L21.527 39.5021C21.5003 39.5347 21.4717 39.5674 21.4412 39.6172C21.3363 39.8053 21.3916 40.0528 21.5556 40.1717C22.139 40.6283 22.7262 41.0677 23.2982 41.484C23.8855 41.9234 24.4994 42.3301 25.0962 42.7311C26.3241 43.5446 27.5672 44.3025 28.8694 44.9797C29.5158 45.3366 30.1755 45.6378 30.8581 45.9256L31.8991 46.3228C32.2537 46.4513 32.595 46.5549 32.9554 46.6643C34.3796 47.0787 35.8478 47.3108 37.3674 47.3396C38.8812 47.3089 40.3741 46.9828 41.7736 46.4762C43.1788 45.9525 44.5058 45.2714 45.7604 44.4943C47.015 43.7173 48.2009 42.8271 49.3239 41.8812C49.8826 41.4169 50.4336 40.9123 50.9636 40.4039C51.2172 40.1564 51.4765 39.8897 51.7358 39.623L51.9227 39.4158L52.0218 39.3237L52.0714 39.2777C52.0943 39.2642 52.121 39.2316 52.1496 39.199C52.2544 39.0896 52.2945 38.9246 52.2773 38.7635C52.2735 38.6253 52.1953 38.4699 52.0867 38.3644C52.0542 38.3375 52.0237 38.3088 52.0047 38.3049L51.9551 38.2723L51.8407 38.186L51.6081 38.0306L51.1619 37.7236C50.8664 37.5125 50.5652 37.3207 50.2467 37.125C49.9283 36.9293 49.6271 36.7374 49.3087 36.5398C48.9903 36.3441 48.689 36.1523 48.3668 35.9738C47.1008 35.2294 45.8271 34.5214 44.5173 33.8806C44.1893 33.7214 43.8671 33.543 43.5334 33.401L42.5229 32.9539L41.5029 32.5434C41.1654 32.4206 40.8069 32.3112 40.4695 32.1884C40.378 32.1654 40.2922 32.1251 40.2006 32.1021L39.928 32.033L39.4056 31.8834C39.0471 31.774 38.6963 31.7049 38.3283 31.632C38.1415 31.6052 37.9603 31.5591 37.7735 31.5323L37.2091 31.4689L36.6447 31.4056L36.0651 31.4018ZM37.0909 46.3362L36.8221 46.3266L36.3073 46.2959C36.1166 46.2882 35.9431 46.2825 35.7753 46.2594L35.2529 46.1865L34.7305 46.1136C34.5627 46.0906 34.3796 46.0465 34.2157 46.0043L33.7009 45.8949L33.4416 45.8489L33.1861 45.7855C31.8038 45.4402 30.452 44.9644 29.1192 44.4176C26.4575 43.3048 23.9141 41.8697 21.6051 40.1046C21.4965 39.999 21.445 39.811 21.5098 39.6326C21.546 39.5635 21.6185 39.504 21.6909 39.4446L21.8911 39.2604C22.1638 39.0167 22.4364 38.7731 22.7224 38.5524C23.2944 38.1111 23.8721 37.6526 24.4594 37.2343C25.6548 36.3844 26.8865 35.6227 28.1411 34.9243C29.4147 34.2298 30.7094 33.6005 32.0326 33.094C33.3691 32.6105 34.7381 32.2325 36.1299 32.152C36.2138 32.15 36.2958 32.1501 36.3797 32.1501C37.682 32.1501 39.0338 32.3342 40.3284 32.6777C40.6697 32.7832 41.0148 32.8695 41.3561 32.975L42.3704 33.3262C43.0396 33.5909 43.7089 33.8557 44.3686 34.1569C45.6841 34.7785 46.9616 35.4673 48.1818 36.2405C48.8015 36.63 49.3964 37.031 49.9893 37.4511C50.2906 37.643 50.5804 37.8713 50.8759 38.0824L51.3183 38.4066L51.528 38.5754L51.6424 38.6618L51.692 38.6944C51.7053 38.7174 51.7053 38.7174 51.7053 38.7174C51.7511 38.7673 51.732 38.8421 51.7053 38.8728L51.3335 39.2086C51.0609 39.4522 50.792 39.6767 50.5194 39.9204C49.9779 40.3885 49.4193 40.8528 48.8473 41.2922C47.7014 42.1747 46.5288 43.0093 45.2876 43.7307C44.0692 44.4387 42.7689 45.0872 41.4419 45.5323C40.7688 45.7529 40.1015 45.9563 39.4094 46.0944C38.7363 46.2383 38.0442 46.2978 37.3445 46.317L37.0909 46.3362Z" fill="#181818"/>
<path d="M36.2828 33.6562C39.6938 33.4585 42.243 35.498 42.7368 38.3472C43.2344 41.179 40.3001 44.7668 37.5355 44.9318C33.5144 45.1716 30.9003 41.2865 30.8984 39.4158C30.8946 36.5322 33.5811 33.7962 36.2828 33.6562Z" fill="#181818"/>
<path d="M13.5297 51.4091C13.2933 51.4532 13.0569 51.5165 12.8243 51.5894C12.7194 51.4014 12.605 51.2172 12.483 51.0368C12.2256 50.655 11.911 50.2982 11.4744 49.9874C11.3752 50.515 11.4248 50.9812 11.4724 51.4474C11.5087 51.6623 11.5602 51.8695 11.6212 52.0748C11.339 52.2187 11.072 52.3779 10.8108 52.5487C10.3838 52.8614 9.99861 53.1914 9.66113 53.6404C10.2141 53.7286 10.7365 53.6538 11.2189 53.5636C11.5239 53.5061 11.8309 53.4178 12.1283 53.3161C12.2446 53.5291 12.3724 53.7382 12.5097 53.9435C12.7671 54.3253 13.0817 54.6822 13.5164 54.993C13.6155 54.4673 13.5659 54.0011 13.5183 53.5349C13.4744 53.2797 13.4096 53.0341 13.3352 52.7924C13.5412 52.6792 13.7414 52.5564 13.9377 52.4259C14.3648 52.1132 14.75 51.7832 15.0874 51.3342C14.5154 51.2863 14.0102 51.3189 13.5297 51.4091Z" fill="#4FBA6F"/>
<path d="M32.6661 74.5857C32.3095 74.6529 31.9511 74.7469 31.6003 74.8582C31.442 74.5742 31.2685 74.296 31.0836 74.0217C30.6946 73.4442 30.218 72.9031 29.5602 72.435C29.4095 73.2312 29.4839 73.9353 29.5583 74.6414C29.6135 74.9656 29.6917 75.2803 29.7832 75.5892C29.3581 75.806 28.9519 76.0458 28.5573 76.3067C27.9128 76.7787 27.3294 77.2775 26.8203 77.9567C27.6554 78.0891 28.4467 77.9778 29.1731 77.8397C29.6345 77.7514 30.0978 77.6191 30.5478 77.4636C30.7232 77.786 30.9158 78.1025 31.1255 78.4114C31.5145 78.9889 31.9911 79.53 32.6489 79.9962C32.7996 79.2 32.7252 78.4959 32.6508 77.7917C32.5841 77.408 32.4869 77.0358 32.3725 76.6713C32.6851 76.4986 32.9864 76.3144 33.2838 76.1168C33.9283 75.6448 34.5117 75.146 35.0208 74.4668C34.1571 74.3996 33.3944 74.4476 32.6661 74.5857Z" fill="#4FBA6F"/>
<path d="M19.2707 57.0018L19.3146 56.6757C19.4252 56.0464 20.0048 55.6319 20.6492 55.7202L20.9829 55.7643C21.6273 55.8737 22.0506 56.4378 21.961 57.069L21.9172 57.3951C21.8066 58.0264 21.2269 58.4389 20.5825 58.3525L20.2488 58.3084C19.6044 58.1971 19.1811 57.61 19.2707 57.0018Z" fill="#4FBA6F"/>
<path d="M49.7852 57.3068C51.4306 57.1092 53.076 57.0056 54.7215 56.9365C56.3669 56.8617 58.0123 56.8329 59.6578 56.8329C61.3032 56.8348 62.9486 56.8636 64.5941 56.9403C66.2395 57.0113 67.8849 57.1168 69.5304 57.3164C67.8849 57.5159 66.2395 57.6195 64.5941 57.6886C62.9486 57.7634 61.3032 57.7922 59.6578 57.7922C58.0123 57.7903 56.3669 57.7596 54.7215 57.6828C53.076 57.6099 51.4306 57.5063 49.7852 57.3068Z" fill="#181818"/>
<path d="M49.7852 59.6072C50.8815 59.4096 51.9797 59.306 53.076 59.2331C54.1723 59.164 55.2706 59.1314 56.3669 59.1314C57.4632 59.1314 58.5614 59.164 59.6577 59.235C60.7541 59.3098 61.8523 59.4134 62.9486 59.613C61.8523 59.8125 60.7541 59.9142 59.6577 59.989C58.5614 60.0581 57.4632 60.0907 56.3669 60.0907C55.2706 60.0888 54.1723 60.0562 53.076 59.9852C51.9778 59.9084 50.8815 59.8048 49.7852 59.6072Z" fill="#181818"/>
<path d="M49.7842 61.9076C51.4296 61.71 53.075 61.6064 54.7205 61.5373C56.3659 61.4625 58.0113 61.4337 59.6568 61.4337C61.3022 61.4356 62.9476 61.4644 64.5931 61.5412C66.2385 61.6121 67.8839 61.7177 69.5293 61.9172C67.8839 62.1167 66.2385 62.2203 64.5931 62.2894C62.9476 62.3642 61.3022 62.393 59.6568 62.393C58.0113 62.3911 56.3659 62.3604 54.7205 62.2836C53.075 62.2107 51.4296 62.1052 49.7842 61.9076Z" fill="#181818"/>
<path d="M49.7842 64.2061C50.5812 64.0085 51.38 63.9049 52.177 63.832C52.974 63.7629 53.7729 63.7303 54.5699 63.7303C55.3668 63.7303 56.1657 63.7629 56.9627 63.8339C57.7597 63.9087 58.5585 64.0123 59.3555 64.2119C58.5585 64.4114 57.7597 64.515 56.9627 64.5879C56.1657 64.657 55.3668 64.6896 54.5699 64.6896C53.7729 64.6896 52.974 64.6551 52.177 64.5841C51.3781 64.5092 50.5812 64.4056 49.7842 64.2061Z" fill="#181818"/>
</g>
<defs>
<clipPath id="clip0_625_2">
<rect width="83" height="80" fill="white"/>
</clipPath>
</defs>
</svg>
