<svg width="100" height="80" viewBox="0 0 100 80" fill="none" xmlns="http://www.w3.org/2000/svg">
<g clip-path="url(#clip0_625_129)">
<path fill-rule="evenodd" clip-rule="evenodd" d="M26.724 79.9874C52.9548 74.7033 70.0245 64.3792 72.0878 58.1292C72.4282 57.1928 71.5121 56.2227 70.512 56.069L35.6056 50.3388C34.2314 50.0505 33.8406 50.5429 33.4981 51.4794L25.7092 78.1313C25.6398 78.3186 25.6398 78.3186 25.5726 78.5059C25.4171 79.5097 25.8415 80.0905 26.724 79.9874Z" fill="#4FBA6F"/>
<path d="M0.61894 54.213C-0.101755 55.0294 -0.0576304 56.3131 0.434038 57.2853C0.925707 58.2576 1.77457 58.9899 2.60453 59.697C7.20184 63.6111 11.7971 67.5273 16.3944 71.4415C17.529 72.4074 18.7119 73.4007 20.147 73.7984C21.6788 74.2235 23.3092 73.9204 24.8662 73.5879C32.3589 71.9907 39.7255 69.8022 46.8757 67.0496C47.8255 66.6835 48.8193 66.2731 49.4412 65.4651C50.0632 64.657 50.1178 63.3228 49.29 62.7294" fill="white"/>
<path d="M0.616977 54.213C0.411065 54.4697 0.272389 54.7727 0.198848 55.0863C0.127409 55.4019 0.121106 55.7281 0.161028 56.0459C0.236669 56.6856 0.514021 57.2769 0.904835 57.782C1.29355 58.2891 1.77051 58.7247 2.26848 59.1393L3.79602 60.3746C5.83203 62.0286 7.86594 63.6869 9.88515 65.3619C11.9128 67.0265 13.9173 68.7184 15.9323 70.3977C16.9492 71.231 17.9052 72.1296 18.9705 72.7378C19.5021 73.045 20.0589 73.2702 20.6409 73.3796C21.223 73.4975 21.8386 73.5017 22.4563 73.4512C23.6918 73.348 24.9714 73.024 26.251 72.7567C27.5264 72.4747 28.7976 72.1738 30.0667 71.8624C32.607 71.25 35.1263 70.5513 37.6371 69.8211C40.1438 69.0804 42.64 68.2891 45.113 67.4348C45.7329 67.2264 46.3506 67.0076 46.9683 66.7908C47.5798 66.572 48.1807 66.3321 48.7018 65.9743C48.9602 65.7933 49.1998 65.5829 49.3889 65.3325C49.578 65.0863 49.7124 64.7917 49.7818 64.4823C49.8574 64.173 49.8679 63.8468 49.7902 63.5332C49.7208 63.2197 49.5401 62.9314 49.2838 62.7252C49.5549 62.9103 49.7671 63.1902 49.8658 63.5122C49.9709 63.8321 49.9898 64.1772 49.9373 64.5139C49.8868 64.8485 49.7629 65.1746 49.5717 65.4629C49.3826 65.7512 49.1388 65.9933 48.8741 66.2079C48.3404 66.633 47.7206 66.9129 47.1133 67.1717C46.5061 67.4221 45.8989 67.6746 45.2895 67.9188C44.0688 68.407 42.8396 68.8678 41.6062 69.3224C40.3707 69.7685 39.1269 70.1957 37.8767 70.6039C37.2526 70.8102 36.6244 71.008 35.9982 71.2079C35.37 71.3994 34.7396 71.5909 34.1093 71.7719C32.8465 72.1422 31.5795 72.4895 30.3062 72.8262C29.0329 73.1608 27.7533 73.4617 26.4716 73.7563C25.8287 73.8994 25.1899 74.0446 24.5407 74.1814C23.8914 74.3161 23.2232 74.4381 22.5383 74.497C21.8512 74.5475 21.141 74.5412 20.4371 74.396C19.7311 74.2571 19.0567 73.9773 18.4578 73.6237C17.8548 73.2723 17.3085 72.8598 16.7916 72.4347C16.2747 72.0076 15.7831 71.5804 15.2872 71.149C13.3079 69.4255 11.3181 67.7167 9.35356 65.9785C7.37848 64.2508 5.4181 62.5063 3.45983 60.7597L1.99743 59.4381C1.51417 58.9878 1.03511 58.508 0.665304 57.9419C0.289198 57.3842 0.0328576 56.7256 0.00134032 56.0522C-0.0133677 55.7155 0.0202507 55.3767 0.121106 55.0589C0.224062 54.7475 0.390053 54.4507 0.616977 54.213Z" fill="#181818"/>
<path d="M46.6236 65.7049L27.3981 70.7912C24.1035 71.6624 19.7415 70.9343 17.655 69.1645L1.846 55.747C-0.240443 53.9772 0.740793 51.835 4.0354 50.9638L23.2609 45.8775C26.5555 45.0063 30.9175 45.7344 33.0039 47.5042L48.813 60.9196C50.8973 62.6915 49.9182 64.8337 46.6236 65.7049Z" fill="white"/>
<path d="M46.6357 65.7555L43.152 66.6961C41.9943 67.0244 40.8344 67.3401 39.6788 67.681C37.3654 68.346 35.0605 69.0425 32.7513 69.7159C31.5957 70.0547 30.4442 70.3998 29.2844 70.7239L27.5488 71.2163C26.9437 71.3679 26.3239 71.5004 25.704 71.5551C24.4623 71.6982 23.2121 71.6246 21.985 71.4289C20.76 71.2142 19.5519 70.846 18.4404 70.221C17.8857 69.9158 17.3646 69.4739 16.9359 69.0846L15.5828 67.8872L12.8786 65.4924L10.1744 63.0976L7.45135 60.726C5.62546 59.1561 3.78905 57.5989 1.94004 56.0585C1.47779 55.6776 0.99242 55.2252 0.738181 54.6212C0.593202 54.3266 0.544875 53.9857 0.549078 53.6511C0.576392 53.487 0.578494 53.3123 0.643629 53.1566C0.670944 53.0766 0.696158 52.9966 0.725574 52.9188L0.843238 52.6999C1.17312 52.1212 1.6921 51.7066 2.2342 51.3931C2.7826 51.0795 3.36882 50.8607 3.96134 50.6818C6.27681 50.0231 8.58808 49.3518 10.9056 48.7058C13.2232 48.0556 15.5429 47.4221 17.8647 46.7887L21.3463 45.8396L23.0881 45.3662C23.6995 45.2125 24.3215 45.08 24.9455 45.0252C26.1957 44.8843 27.4522 44.9516 28.6877 45.1452C29.9189 45.3641 31.1439 45.7071 32.2764 46.3363C32.4214 46.4078 32.5538 46.5046 32.6925 46.5909L32.8984 46.7235L33.0959 46.875C33.3732 47.0812 33.5812 47.2748 33.8145 47.4705L35.1844 48.6469C36.0984 49.4318 37.0124 50.2146 37.9159 51.008L39.2775 52.1949L40.6285 53.3923C41.532 54.1877 42.4229 54.9979 43.3201 55.8018C45.1124 57.4095 46.8941 59.032 48.6948 60.6292C49.1445 61.0269 49.6046 61.4857 49.8378 62.0749C49.9702 62.3632 50.0038 62.6873 49.9912 63.003C49.9597 63.1566 49.9555 63.3186 49.8862 63.4638L49.8021 63.6848L49.6845 63.8868C49.3567 64.4192 48.8587 64.8106 48.325 65.0989C47.7934 65.3956 47.2198 65.5955 46.6357 65.7555ZM46.6084 65.6545C47.182 65.4903 47.7472 65.2841 48.2662 64.9937C48.781 64.7033 49.2642 64.3224 49.5521 63.8131L49.655 63.6216L49.7244 63.4175C49.7832 63.2849 49.779 63.1376 49.8063 62.9966C49.8063 62.7125 49.7685 62.4242 49.6403 62.1654C49.6088 62.1002 49.5878 62.0328 49.55 61.9697L49.4323 61.7866C49.3609 61.6604 49.2579 61.5551 49.1634 61.4457C49.0751 61.3321 48.9554 61.2416 48.8503 61.1427C48.7452 61.0438 48.6276 60.9491 48.5099 60.8544C46.6399 59.3371 44.751 57.843 42.8725 56.3363C41.9333 55.5829 40.9878 54.8359 40.057 54.0741L38.6555 52.9356L37.2625 51.7866C36.3317 51.0227 35.4092 50.2483 34.4889 49.4739L33.1043 48.3144C32.6273 47.904 32.2302 47.5926 31.7343 47.3232C30.7552 46.7887 29.6353 46.4562 28.5028 46.2563C27.9334 46.1721 27.3576 46.0964 26.7798 46.0816C26.492 46.0627 26.202 46.0753 25.9142 46.069C25.6263 46.0859 25.3363 46.0859 25.0527 46.1195C24.477 46.1616 23.9181 46.2731 23.3613 46.4036L21.6131 46.8518L18.1168 47.7483C15.7866 48.3481 13.4543 48.9436 11.12 49.5244C8.78558 50.1073 6.4449 50.6671 4.10842 51.2416C3.54532 51.3889 2.99271 51.5762 2.48424 51.8434C1.97996 52.1107 1.51561 52.4663 1.23195 52.9314L1.12899 53.1061L1.05756 53.2933C0.996622 53.4154 0.998724 53.5501 0.967206 53.6806C0.960903 53.9436 0.981914 54.2172 1.09748 54.4697C1.12479 54.5328 1.1437 54.6002 1.17942 54.6591L1.28868 54.838C1.35382 54.9621 1.45467 55.0673 1.54082 55.1789C1.62487 55.2946 1.73833 55.3872 1.83918 55.4882C1.93794 55.5892 2.0535 55.6881 2.16906 55.7849C3.99076 57.359 5.82506 58.9183 7.66987 60.4651L10.4518 62.7673L13.2547 65.0463L16.0556 67.3253L17.457 68.4659C17.934 68.8679 18.3584 69.1835 18.8627 69.455C19.8628 69.9937 20.9996 70.3009 22.1384 70.5051C22.712 70.5892 23.2919 70.6629 23.8739 70.6734C24.1639 70.6923 24.4539 70.6797 24.7459 70.6839C25.0359 70.6671 25.3258 70.6671 25.6137 70.6334C26.1936 70.5913 26.7567 70.4777 27.3198 70.3472L29.0722 69.9158C30.2383 69.6233 31.4129 69.354 32.5832 69.0783C34.9239 68.5206 37.273 67.9861 39.6115 67.4221C40.784 67.1465 41.948 66.8477 43.1163 66.5594L46.6084 65.6545Z" fill="#181818"/>
<path d="M93.9239 26.4247C93.552 26.9129 93.2095 27.439 92.8902 27.9756C92.3712 27.8009 91.8396 27.6494 91.2996 27.5168C90.1629 27.2369 88.9526 27.1023 87.6016 27.2643C88.3096 28.4301 89.1963 29.2256 90.083 30.0231C90.518 30.3641 90.9697 30.6692 91.4341 30.9533C91.1441 31.7087 90.9046 32.4663 90.7029 33.2407C90.4255 34.5623 90.2553 35.8481 90.3814 37.2748C91.5811 36.492 92.4468 35.4566 93.2053 34.4592C93.6865 33.8257 94.1172 33.1334 94.508 32.4305C95.0922 32.6347 95.6889 32.8093 96.3003 32.9609C97.437 33.2407 98.6473 33.3754 99.9983 33.2134C99.2902 32.0476 98.4036 31.2521 97.5169 30.4545C97 30.0484 96.46 29.6949 95.9053 29.3687C96.1028 28.7984 96.273 28.226 96.4243 27.6431C96.7016 26.3215 96.8718 25.0358 96.7458 23.609C95.5859 24.5013 94.6803 25.4272 93.9239 26.4247Z" fill="#4FBA6F"/>
<path d="M80.8374 46.7151L80.8857 46.3573C81.0076 45.6671 81.6463 45.2126 82.3565 45.3094L82.7242 45.3578C83.4344 45.4777 83.9009 46.0964 83.8021 46.7887L83.7538 47.1465C83.6319 47.8388 82.9932 48.2913 82.283 48.1966L81.9153 48.1482C81.2051 48.0261 80.7386 47.3822 80.8374 46.7151Z" fill="#4FBA6F"/>
<path d="M75.349 8.27442C66.9528 -0.858576 52.7154 -1.21211 45.1092 5.80178C37.5031 12.8157 39.7849 21.8203 48.1811 30.9533C56.5773 40.0863 69.5498 41.8056 77.156 34.7917C84.7642 27.7799 83.7452 17.4095 75.349 8.27442Z" fill="white"/>
<path d="M75.3124 8.31016C74.4278 7.36529 73.4676 6.49198 72.4338 5.71336C71.3958 4.94526 70.3012 4.24871 69.1413 3.68474C66.828 2.54206 64.3234 1.82657 61.7894 1.51302C59.2512 1.20368 56.6752 1.31942 54.1916 1.82447C51.7123 2.34425 49.3149 3.2828 47.2137 4.69273C46.1631 5.39349 45.1882 6.2121 44.3099 7.13171C43.4359 8.05132 42.6542 9.06353 42.0596 10.1852C41.465 11.3047 41.0342 12.5147 40.8241 13.7731C40.6266 15.0315 40.6308 16.3257 40.822 17.5947C41.2254 20.1368 42.2865 22.5421 43.6397 24.7306C44.3162 25.8291 45.0726 26.8771 45.8816 27.883C46.6884 28.8889 47.5436 29.859 48.4303 30.7954C50.2079 32.6494 52.2502 34.234 54.4564 35.5092C56.6752 36.7677 59.0789 37.6873 61.5646 38.1839C64.0481 38.6763 66.622 38.7247 69.0867 38.226C70.318 37.9756 71.5198 37.601 72.6628 37.0875C73.8059 36.5762 74.8796 35.9217 75.8671 35.1515C77.8317 33.6027 79.5 31.6203 80.5548 29.3497C80.6829 29.0635 80.8195 28.7815 80.9246 28.4848L81.0927 28.045L81.2355 27.5968C81.4351 27.0012 81.5738 26.3868 81.6915 25.7702C81.9142 24.5307 81.9688 23.2576 81.8785 21.9907C81.6936 19.4528 80.9225 16.9465 79.7605 14.6464C79.1848 13.4911 78.4998 12.3905 77.7581 11.3299C77.0017 10.2756 76.1781 9.27186 75.3124 8.31016ZM75.388 8.23861C76.2705 9.19189 77.1005 10.1936 77.8758 11.2395C78.6574 12.279 79.3655 13.3754 80.0064 14.5139C81.2734 16.7908 82.2294 19.2866 82.5593 21.9255C82.7231 23.2386 82.7505 24.5854 82.5593 25.9112C82.4605 26.5719 82.3386 27.2327 82.1516 27.8788L82.0109 28.3628L81.8428 28.8384C81.7377 29.1582 81.599 29.4634 81.4709 29.7748C81.3448 30.0863 81.1809 30.3809 81.038 30.6839C80.8825 30.9827 80.7102 31.2689 80.5443 31.5614C80.3594 31.8413 80.1808 32.1254 79.9896 32.4011C79.7878 32.6683 79.5987 32.9461 79.3865 33.2049C78.5482 34.2508 77.6068 35.1999 76.5563 36.0416C74.4467 37.7083 71.9211 38.8257 69.2926 39.3118C66.6641 39.8043 63.9536 39.7138 61.3629 39.1624C58.7679 38.6153 56.2907 37.5947 54.032 36.2373C51.7711 34.8758 49.754 33.1439 48.0038 31.1932C46.2682 29.2466 44.6776 27.1633 43.3329 24.9242C42.0029 22.6852 40.9271 20.2525 40.4837 17.6557C40.2694 16.3594 40.2295 15.0294 40.3955 13.7184C40.5615 12.4053 40.9607 11.1216 41.5385 9.92632C42.1163 8.72893 42.8938 7.63676 43.7678 6.64349C44.6461 5.65444 45.6295 4.74745 46.7179 3.98146C48.8925 2.44736 51.4118 1.42885 54.0088 0.928004C54.6581 0.799637 55.3137 0.707045 55.9713 0.6376C56.3012 0.614452 56.629 0.576573 56.961 0.566052C57.2908 0.557634 57.6207 0.538695 57.9506 0.53659C59.2701 0.519755 60.5896 0.646018 61.8839 0.869082C64.4768 1.31311 66.975 2.20747 69.2653 3.45536C70.4083 4.08667 71.5009 4.80216 72.52 5.61024C73.5453 6.40149 74.5076 7.28112 75.388 8.23861Z" fill="#181818"/>
<path d="M43.2119 6.80763C42.2916 9.75586 42.6635 13.0829 44.2099 15.7554C44.9054 16.9591 45.8509 18.0934 46.0211 19.4739C46.2165 21.0585 45.3487 22.5505 44.8487 24.0677C44.4158 25.3767 44.2498 26.7719 44.3654 28.146C44.4557 29.2361 45.0609 30.5808 46.1493 30.484C47.3217 30.3788 47.9458 28.6048 49.1119 28.771C49.7065 28.8552 50.1078 29.457 50.2045 30.0505C50.3032 30.6439 50.1772 31.2479 50.1436 31.8476C50.0532 33.4448 50.6878 35.1283 51.9821 36.0669C53.2764 37.0054 55.2431 37.0139 56.3966 35.907C57.153 35.1809 57.4787 34.1266 58.0187 33.226C58.5587 32.3253 59.542 31.5025 60.5569 31.7634C61.2902 31.9507 61.7881 32.6683 61.9604 33.407C62.1327 34.1456 62.0403 34.9158 61.9772 35.6713C61.7545 38.4006 61.931 41.1616 62.5046 43.8384C62.6076 44.316 62.7462 44.8295 63.135 45.122C63.6855 45.5387 64.5322 45.303 64.9861 44.7811C65.4399 44.2592 65.5891 43.5437 65.6711 42.8577C65.9526 40.4882 65.6248 38.0934 65.463 35.7134C65.4063 34.8758 65.3727 34.013 65.6605 33.2239C65.9484 32.4368 66.6334 31.7361 67.4675 31.6835C68.8648 31.5951 69.7494 33.2533 69.7431 34.6548C69.741 35.2104 69.6737 35.8207 70.0015 36.2689C70.6382 37.1422 72.1573 36.5088 72.5208 35.4924C72.8843 34.4739 72.5586 33.3586 72.4473 32.2832C72.3359 31.2079 72.588 29.9053 73.5798 29.4802C74.956 28.8931 76.2356 30.4229 77.6098 31.0185C79.0344 31.6372 80.8645 31.1069 81.7385 29.8211C82.2785 29.0277 82.455 28.0492 82.5916 27.098C82.8206 25.4945 82.9635 23.8636 82.7492 22.2601C82.3752 19.4676 80.9464 16.9465 79.547 14.5033C77.261 10.5155 74.83 6.37202 70.9659 3.88886C69.5162 2.95662 67.9067 2.29163 66.2636 1.77396C61.7146 0.336668 56.8231 -0.00213655 52.1186 0.791214C50.1709 1.1195 48.2252 1.6519 46.5338 2.67674C44.8424 3.70157 43.4178 5.26301 42.8589 7.16116" fill="white"/>
<path d="M43.2616 6.82449C42.8077 8.47432 42.7363 10.2146 43.0326 11.8813C43.1817 12.7146 43.4297 13.5269 43.7617 14.3013C44.0957 15.0779 44.5181 15.7933 44.9992 16.5046C45.4699 17.2222 45.9658 17.9714 46.2242 18.8678C46.3524 19.314 46.3965 19.7917 46.3692 20.2525C46.3419 20.7155 46.2494 21.1637 46.1255 21.5951C45.8775 22.4558 45.5203 23.247 45.2598 24.0383C44.9971 24.8253 44.829 25.6397 44.7681 26.4625C44.7366 26.875 44.7303 27.2875 44.7513 27.6999C44.7597 27.904 44.7786 28.1187 44.8017 28.2997C44.8311 28.4891 44.8753 28.6763 44.932 28.8594C44.9929 29.0404 45.0665 29.213 45.1505 29.375C45.2409 29.5328 45.3438 29.6738 45.4573 29.7875C45.6884 30.0168 45.9448 30.0779 46.2221 30.0168C46.4953 29.9495 46.7873 29.7159 47.0815 29.4255C47.2307 29.2824 47.3819 29.1267 47.5542 28.971C47.7223 28.8152 47.9177 28.6553 48.1552 28.5227C48.3863 28.3859 48.6973 28.2933 49.0019 28.306C49.3087 28.3039 49.6239 28.4259 49.8592 28.6027C50.3341 28.9667 50.5694 29.4739 50.6597 29.9979C50.7396 30.505 50.6849 30.9785 50.6471 31.4015C50.603 31.8287 50.5883 32.2033 50.624 32.5989C50.6933 33.3796 50.9476 34.1498 51.3825 34.7853C51.5989 35.1031 51.8616 35.3851 52.16 35.6187C52.4562 35.8481 52.7861 36.0269 53.1475 36.1427C53.864 36.3784 54.675 36.3615 55.3558 36.0732C55.6983 35.928 55.9945 35.7197 56.2509 35.444C56.5072 35.1683 56.7173 34.8274 56.917 34.4655C57.1145 34.1014 57.2994 33.71 57.52 33.3186C57.6271 33.125 57.7469 32.9251 57.8898 32.7357C58.0306 32.5484 58.1818 32.3674 58.3541 32.2033C58.6945 31.8771 59.1021 31.5909 59.5959 31.452C60.0834 31.3047 60.657 31.3657 61.1024 31.633C61.9996 32.178 62.3337 33.2197 62.3442 34.1119C62.3568 34.5665 62.3127 35.0084 62.2707 35.4356C62.2266 35.8628 62.1929 36.2837 62.1656 36.7108C62.1173 37.561 62.1047 38.4154 62.1299 39.2677C62.1593 40.1199 62.2329 40.9722 62.3421 41.8182C62.3988 42.2412 62.4598 42.6641 62.5375 43.085C62.6153 43.5017 62.6825 43.9352 62.8065 44.3203C62.8716 44.5118 62.9557 44.6906 63.0733 44.8337C63.191 44.9789 63.3444 45.0779 63.5188 45.1326C63.8718 45.2336 64.2836 45.1284 64.603 44.9074C64.9202 44.6885 65.1387 44.3308 65.2774 43.9499C65.4161 43.5648 65.4791 43.1481 65.5233 42.7252C65.7061 41.0311 65.5884 39.3161 65.4329 37.6073C65.3594 36.7487 65.269 35.8986 65.2312 35.0252C65.2165 34.5875 65.2249 34.1414 65.311 33.6953C65.393 33.2534 65.559 32.803 65.8342 32.4263C66.1053 32.0497 66.4751 31.7214 66.9352 31.5509C67.1643 31.4667 67.4143 31.4247 67.6601 31.4373C67.7841 31.431 67.906 31.4667 68.0278 31.4836C68.1434 31.5257 68.2695 31.5488 68.3766 31.6077C68.8284 31.8161 69.1751 32.1717 69.423 32.5652C69.673 32.9587 69.8495 33.3922 69.9441 33.8447C69.9903 34.0699 70.0281 34.2992 70.0344 34.5349C70.047 34.7706 70.0344 34.9811 70.0407 35.1873C70.0428 35.5955 70.1143 35.9596 70.3328 36.1595C70.5366 36.3573 70.8707 36.3994 71.2027 36.2816C71.5346 36.1742 71.8393 35.9385 72.0326 35.6566C72.2112 35.3893 72.2911 35.0021 72.3058 34.6191C72.3226 34.2319 72.2679 33.8257 72.2049 33.4091C72.1419 32.9882 72.062 32.5673 72.0263 32.0981C71.999 31.6309 72.0263 31.1574 72.1503 30.686C72.2763 30.221 72.5075 29.7306 72.9361 29.3792C73.1462 29.2066 73.3963 29.0741 73.6547 29.0004C73.7808 28.9541 73.9215 28.9457 74.056 28.9204C74.1905 28.9204 74.3292 28.9078 74.4594 28.9268C74.991 28.9857 75.4386 29.2003 75.8357 29.4234C76.2307 29.6507 76.59 29.8969 76.943 30.1178C77.2939 30.3388 77.6469 30.5408 77.9852 30.6545C78.3277 30.7723 78.7017 30.8144 79.0694 30.7891C79.8069 30.7365 80.5423 30.4188 81.0423 29.8927C81.5445 29.3792 81.8072 28.6279 81.9563 27.8304C82.032 27.4305 82.0866 27.0097 82.1412 26.5867C82.1938 26.1658 82.2379 25.747 82.2715 25.3283C82.3366 24.4928 82.3493 23.6595 82.2736 22.8409C82.198 22.0244 82.0257 21.2205 81.7798 20.4314C81.2798 18.8531 80.5086 17.3485 79.6745 15.8628C78.8298 14.3771 77.9768 12.8809 77.0775 11.4415C76.6299 10.7197 76.1635 10.0105 75.6697 9.32449C75.1801 8.63636 74.6612 7.97348 74.1064 7.34638C73.8354 7.02651 73.5412 6.7298 73.2513 6.42677C72.9487 6.14057 72.6546 5.84385 72.3352 5.5787C72.0263 5.29882 71.6922 5.05261 71.3666 4.79377C71.0241 4.56018 70.6921 4.30976 70.337 4.09722C68.9208 3.22811 67.3513 2.59259 65.7355 2.09596C64.1218 1.59091 62.4619 1.23317 60.7831 1.008C59.9447 0.892256 59.0979 0.831229 58.2533 0.776516C57.4065 0.732324 56.5577 0.728115 55.7088 0.749159C54.0153 0.81229 52.3133 0.993266 50.6555 1.35311C49.0061 1.71928 47.3819 2.28114 45.9847 3.23864C45.2913 3.71843 44.6589 4.29293 44.1252 4.9516C43.5978 5.61237 43.1691 6.36153 42.9065 7.17382L42.8056 7.14436C43.0326 6.30682 43.4255 5.51347 43.9424 4.81061C44.4613 4.10985 45.0896 3.48906 45.7872 2.96507C47.1907 1.91288 48.8506 1.25421 50.5337 0.835438C53.9081 0.0231487 57.4233 -0.20202 60.8839 0.191499C62.6132 0.38931 64.3277 0.726011 66.0002 1.21633C67.6727 1.69823 69.3263 2.32744 70.8602 3.22811C71.2447 3.44907 71.6082 3.70791 71.978 3.95412C72.331 4.22348 72.6924 4.48232 73.0223 4.77694C73.3668 5.05682 73.6799 5.36827 74.0035 5.6713C74.3103 5.98695 74.6233 6.2984 74.9112 6.63089C75.4995 7.28535 76.0479 7.97348 76.5606 8.68055C77.0775 9.38552 77.5628 10.1094 78.0272 10.8439C78.4957 11.5762 78.9328 12.3232 79.3677 13.0682C79.8006 13.8152 80.2271 14.5581 80.6515 15.3135C81.4962 16.8224 82.3093 18.3944 82.8262 20.1073C83.0826 20.9617 83.2654 21.8497 83.3389 22.7483C83.4124 23.6448 83.3872 24.537 83.3095 25.4125C83.2717 25.8502 83.2191 26.2858 83.1603 26.7193C83.0994 27.1507 83.0405 27.58 82.9523 28.024C82.8619 28.4659 82.7443 28.9162 82.5552 29.3582C82.3682 29.7959 82.1013 30.2252 81.7504 30.5829C81.0507 31.2921 80.0989 31.6898 79.1282 31.7487C78.6428 31.7782 78.1449 31.7172 77.6763 31.5509C77.2035 31.3826 76.8127 31.1364 76.4408 30.8986C76.071 30.6566 75.7264 30.4103 75.3797 30.2041C75.0352 29.9979 74.6885 29.8422 74.3628 29.8001C74.2808 29.7832 74.2031 29.7959 74.1233 29.7896C74.0476 29.8085 73.9678 29.8022 73.8942 29.8337C73.7388 29.8737 73.6001 29.9453 73.4782 30.0421C73.2324 30.2336 73.058 30.5513 72.955 30.907C72.8521 31.2647 72.8184 31.6582 72.8353 32.0497C72.8584 32.439 72.9277 32.8662 72.9844 33.2954C73.0391 33.7289 73.0895 34.1814 73.058 34.6549C73.0244 35.1241 72.9319 35.6145 72.623 36.0627C72.3163 36.4794 71.896 36.7803 71.4065 36.9297C71.1627 37.0055 70.8959 37.037 70.6206 36.9928C70.3475 36.9507 70.0722 36.8182 69.8747 36.6119C69.6709 36.4099 69.5554 36.149 69.4965 35.9007C69.4377 35.6502 69.4293 35.4103 69.4314 35.1852C69.444 34.7264 69.465 34.3539 69.3831 33.9583C69.3116 33.5669 69.1667 33.1881 68.9628 32.8535C68.7632 32.5168 68.488 32.2306 68.1581 32.0707C68.0783 32.0202 67.9879 32.0076 67.9039 31.9718C67.8135 31.9613 67.7274 31.9276 67.6349 31.9318C67.4521 31.915 67.2693 31.9423 67.0949 32.0013C66.744 32.1212 66.431 32.3758 66.1956 32.6894C65.7124 33.3186 65.6052 34.1772 65.6199 35.0126C65.6451 35.8565 65.725 36.7193 65.7859 37.5757C65.912 39.2887 66.038 41.0269 65.8384 42.7567C65.7922 43.1881 65.7229 43.6279 65.5737 44.053C65.4224 44.4739 65.1808 44.8927 64.7879 45.1704C64.4054 45.4356 63.9117 45.5787 63.4263 45.4482C63.1889 45.3788 62.9683 45.2336 62.8128 45.0463C62.6573 44.859 62.5543 44.6422 62.4808 44.4276C62.4073 44.213 62.3589 43.9941 62.3148 43.7837C62.2707 43.5711 62.2224 43.3607 62.1824 43.1481C62.0963 42.7231 62.0269 42.2959 61.9618 41.8687C61.8336 41.0122 61.7517 40.1494 61.6971 39.2845C61.6445 38.4196 61.6319 37.5526 61.655 36.6835C61.6698 36.25 61.6929 35.8144 61.7244 35.3851C61.7559 34.9579 61.7811 34.5391 61.758 34.133C61.7328 33.7268 61.6571 33.3417 61.4912 33.0029C61.3252 32.6641 61.0751 32.3695 60.7747 32.2033C60.4742 32.0412 60.1233 32.0097 59.7913 32.1191C59.4551 32.2222 59.14 32.4474 58.871 32.721C58.7344 32.8577 58.6147 33.0114 58.5012 33.1692C58.3899 33.327 58.2932 33.4975 58.1965 33.6827C58.0053 34.0467 57.833 34.4381 57.6313 34.8358C57.4296 35.2315 57.2006 35.6376 56.8812 36.0038C56.5661 36.3699 56.1521 36.6772 55.7046 36.8708C54.8053 37.2643 53.7925 37.2938 52.8743 37.0118C52.4163 36.8708 51.973 36.6498 51.5905 36.351C51.2102 36.0564 50.8825 35.7008 50.6135 35.3114C50.0735 34.5286 49.773 33.6111 49.6869 32.6831C49.6407 32.2222 49.6659 31.734 49.7142 31.3068C49.7583 30.8775 49.7983 30.4861 49.7436 30.141C49.6974 29.8232 49.5272 29.5013 49.3129 29.3413C49.2036 29.2635 49.1007 29.2193 48.9746 29.2214C48.8527 29.2151 48.7309 29.2403 48.5922 29.3224C48.4535 29.3981 48.3106 29.5076 48.1636 29.6422C48.0165 29.7727 47.8673 29.9242 47.7055 30.0779C47.5479 30.2315 47.3672 30.3893 47.1655 30.5345C46.9638 30.6818 46.7138 30.8102 46.4364 30.8817C46.1549 30.9512 45.8502 30.9449 45.5644 30.8565C45.2808 30.7681 45.0308 30.6018 44.8459 30.4103C44.4676 30.0231 44.2617 29.5686 44.1168 29.1141C44.0495 28.8847 43.9991 28.6532 43.9655 28.4175C43.9361 28.1734 43.9234 27.9587 43.9171 27.7336C43.9003 27.2853 43.9171 26.8392 43.9571 26.3931C44.039 25.505 44.2302 24.6233 44.5349 23.7858C44.8332 22.9524 45.203 22.178 45.451 21.391C45.701 20.6061 45.8019 19.8022 45.6044 19.0341C45.4111 18.2597 44.974 17.5337 44.5265 16.8056C44.0705 16.0795 43.6314 15.2988 43.3267 14.476C43.0158 13.6553 42.7951 12.803 42.6796 11.936C42.4463 10.2062 42.5976 8.42803 43.1607 6.79082L43.2616 6.82449Z" fill="#181818"/>
<path d="M69.9894 20.2589C68.1005 22.6011 63.7952 22.2538 60.3725 19.4845C56.9497 16.7151 55.5041 13.8931 57.393 11.5531C59.282 9.2109 63.8856 9.10357 67.3083 11.8729C70.7311 14.6423 71.8783 17.9167 69.9894 20.2589Z" fill="white"/>
<path d="M70.0316 20.2926C69.4832 20.9617 68.731 21.4436 67.9052 21.7319C67.0774 22.016 66.1823 22.1255 65.2956 22.0686C63.5159 21.9613 61.8014 21.2101 60.444 20.0863C59.7611 19.5287 59.1518 18.9184 58.5845 18.2534C58.4374 18.0935 58.3093 17.9146 58.1706 17.7484C58.0298 17.5821 57.9058 17.4032 57.7798 17.2265C57.6495 17.0539 57.5297 16.8708 57.4142 16.6857C57.2902 16.5068 57.1914 16.3111 57.0864 16.1217C56.9729 15.9365 56.8952 15.7303 56.7985 15.5325C56.7481 15.4357 56.7145 15.3304 56.6788 15.2252L56.5674 14.9138C56.456 14.4887 56.3678 14.0468 56.393 13.5964C56.3846 13.3713 56.4371 13.1503 56.4729 12.9272C56.4876 12.8157 56.5338 12.7105 56.5632 12.6011C56.601 12.4958 56.6199 12.3801 56.6746 12.2812C56.7754 12.0792 56.8574 11.8645 56.9876 11.6814L57.1704 11.3952C57.2377 11.3048 57.3154 11.2206 57.3869 11.1322C57.9794 10.4357 58.7862 9.9285 59.6498 9.64441C60.5155 9.35611 61.4337 9.27193 62.333 9.32454C63.2344 9.37715 64.121 9.57496 64.9678 9.88431C65.8188 10.1852 66.6109 10.6377 67.3274 11.1806C67.6951 11.4479 68.0145 11.7425 68.3422 12.0413L68.8129 12.5085C68.9663 12.6684 69.1071 12.841 69.2562 13.0051C69.8257 13.6869 70.3068 14.455 70.6346 15.2905C70.9561 16.1238 71.1305 17.0308 71.0317 17.9104C70.9309 18.8006 70.5737 19.6234 70.0316 20.2926ZM69.9496 20.2252C70.4749 19.5665 70.767 18.7311 70.7439 17.9062C70.7523 17.8031 70.727 17.7 70.7207 17.599C70.7081 17.4979 70.7018 17.3948 70.6829 17.2938L70.6094 16.995C70.5863 16.8961 70.5632 16.7972 70.5232 16.7025C70.4497 16.511 70.393 16.3174 70.2921 16.1385C70.2039 15.9554 70.1156 15.7745 70.0042 15.6019C69.5903 14.9032 69.0629 14.2803 68.4977 13.6953C67.9388 13.1103 67.3064 12.5611 66.6571 12.0897C65.3733 11.1343 63.8437 10.5009 62.2552 10.322C61.461 10.2378 60.6541 10.2757 59.8851 10.4609C59.1203 10.6482 58.3807 10.9849 57.8071 11.532C57.2356 12.075 56.7901 12.8094 56.7481 13.6217C56.6956 14.0236 56.7817 14.4319 56.8742 14.8296C56.9981 15.221 57.1599 15.604 57.3784 15.9575C57.8092 16.6688 58.3786 17.2938 58.9984 17.8515C59.6162 18.407 60.2927 18.9226 60.9672 19.3877C61.6396 19.8527 62.3456 20.2694 63.0831 20.6061C63.8206 20.9428 64.5854 21.2311 65.3817 21.4058C66.176 21.5804 67.0164 21.6457 67.8296 21.4731C68.6427 21.309 69.418 20.8818 69.9496 20.2252Z" fill="#181818"/>
<path d="M48.9121 23.6911C49.9081 24.6233 50.9586 25.4293 52.0848 26.109C53.2069 26.793 54.3898 27.3611 55.6106 27.8409C56.8334 28.3207 58.0962 28.7143 59.38 29.072C60.6638 29.4361 61.9708 29.7475 63.2798 30.1368C61.9161 30.1852 60.5567 30.0884 59.2056 29.8801C57.8567 29.6675 56.5162 29.3266 55.2282 28.8195C53.9402 28.3144 52.711 27.6389 51.6163 26.7866C50.53 25.9323 49.5656 24.8969 48.9121 23.6911Z" fill="#181818"/>
<path d="M42.8412 18.1229C43.1059 18.2239 43.2719 18.3775 43.398 18.5458C43.5199 18.7163 43.5976 18.9036 43.6291 19.0993C43.6627 19.295 43.6501 19.497 43.5892 19.6969C43.5241 19.8969 43.4169 20.0968 43.1963 20.2777C42.9799 20.0926 42.8601 19.9263 42.7655 19.7622C42.6752 19.598 42.6185 19.436 42.5932 19.2719C42.5659 19.1056 42.568 18.9352 42.5995 18.7521C42.6374 18.5627 42.6962 18.367 42.8412 18.1229Z" fill="#181818"/>
<path d="M47.616 11.7845C47.8135 12.0181 47.9248 12.218 48.0152 12.4116C48.1013 12.6053 48.1602 12.7904 48.1959 12.9798C48.2316 13.1692 48.2442 13.3628 48.2316 13.5754C48.2169 13.7879 48.1833 14.0152 48.0803 14.3035C47.7883 14.2046 47.595 14.0278 47.4458 13.8321C47.3008 13.6322 47.2041 13.407 47.1621 13.1713C47.118 12.9356 47.1264 12.6915 47.1936 12.4537C47.263 12.2138 47.3806 11.9824 47.616 11.7845Z" fill="#181818"/>
<path d="M45.3583 12.8641C45.1292 12.338 45.0578 11.7698 45.0746 11.2079C45.0935 10.6461 45.2112 10.0884 45.4087 9.56021C45.6062 9.03411 45.8899 8.53748 46.2471 8.10398C46.6063 7.67258 47.035 7.29379 47.5561 7.05389C47.3586 7.59051 47.1463 8.06399 46.9509 8.53748C46.7534 9.00676 46.5685 9.46972 46.392 9.93479C46.2155 10.3999 46.0495 10.8691 45.8857 11.351C45.7176 11.835 45.5642 12.3296 45.3583 12.8641Z" fill="#181818"/>
<path d="M49.9259 6.96122C50.1864 6.92544 50.3692 6.96122 50.5289 7.01593C50.6844 7.07485 50.8105 7.16113 50.9092 7.27056C51.008 7.37999 51.0815 7.51467 51.1215 7.6767C51.1593 7.84085 51.174 8.02813 51.111 8.28487C50.8483 8.32064 50.6655 8.28697 50.5079 8.23016C50.3524 8.17123 50.2264 8.08495 50.1276 7.97342C50.0289 7.86399 49.9574 7.72931 49.9154 7.56728C49.8776 7.40313 49.8629 7.21795 49.9259 6.96122Z" fill="#181818"/>
<path d="M51.6861 13.5859C51.6293 13.2808 51.6798 13.024 51.7701 12.7925C51.8626 12.5632 52.0012 12.3611 52.1756 12.197C52.3479 12.0308 52.5538 11.9024 52.7892 11.8203C53.0245 11.7425 53.2829 11.7046 53.5855 11.7782C53.5099 12.0792 53.4048 12.2896 53.2914 12.479C53.1758 12.6642 53.0476 12.822 52.9005 12.9609C52.7556 13.0998 52.5917 13.2197 52.4005 13.3271C52.203 13.4302 51.9886 13.5249 51.6861 13.5859Z" fill="#181818"/>
<path d="M48.8047 18.7668C49.0904 18.5859 49.351 18.4975 49.6031 18.428C49.8553 18.3649 50.1011 18.3312 50.349 18.327C50.5949 18.3207 50.8428 18.3417 51.097 18.3923C51.3534 18.447 51.616 18.5248 51.9102 18.6953C51.6938 18.9583 51.4395 19.1077 51.179 19.2151C50.9163 19.3203 50.6453 19.3729 50.37 19.3771C50.0969 19.3834 49.8216 19.3413 49.5548 19.2508C49.2922 19.154 49.0337 19.0173 48.8047 18.7668Z" fill="#181818"/>
<path d="M54.1511 18.024C54.4117 18.0471 54.5819 18.1208 54.7247 18.2092C54.8634 18.2997 54.9664 18.4112 55.0378 18.5396C55.1092 18.6679 55.1492 18.8131 55.1534 18.9794C55.1534 19.1477 55.1261 19.3308 55.0063 19.5665C54.7436 19.5455 54.5735 19.4718 54.4306 19.3813C54.2919 19.2908 54.189 19.1793 54.1175 19.0509C54.0461 18.9226 54.0062 18.7752 54.002 18.609C54.0062 18.4407 54.0335 18.2576 54.1511 18.024Z" fill="#181818"/>
<path d="M51.8268 22.176C52.0832 22.197 52.247 22.2665 52.3836 22.3506C52.516 22.4369 52.6126 22.5421 52.6778 22.6642C52.7429 22.7862 52.7765 22.9251 52.7723 23.083C52.766 23.2429 52.7303 23.4175 52.6 23.6427C52.3416 23.6238 52.1777 23.5543 52.0411 23.4702C51.9088 23.3839 51.8121 23.2787 51.7491 23.1566C51.6839 23.0345 51.6524 22.8957 51.6566 22.7357C51.6629 22.5758 51.6986 22.4011 51.8268 22.176Z" fill="#181818"/>
<path d="M60.2912 22.7946C60.4719 22.9651 60.5769 23.0598 60.6568 23.146C60.7345 23.2302 60.7808 23.2955 60.7997 23.3691C60.8207 23.4428 60.8102 23.5227 60.7829 23.6322C60.7534 23.7458 60.7051 23.8805 60.6274 24.1162C60.3857 24.1793 60.1987 24.1204 60.0558 24.0257C59.9151 23.9268 59.8205 23.7837 59.7827 23.6279C59.7428 23.4722 59.7596 23.3018 59.8352 23.1482C59.913 22.9945 60.0495 22.8535 60.2912 22.7946Z" fill="#181818"/>
<path d="M57.7656 26.0395C57.9547 25.848 58.1417 25.7681 58.3245 25.726C58.5073 25.6881 58.6838 25.6986 58.8477 25.7512C59.0116 25.8018 59.1629 25.8943 59.2889 26.0311C59.415 26.17 59.5222 26.3426 59.5642 26.6098C59.3247 26.734 59.144 26.7782 58.978 26.7971C58.812 26.8139 58.667 26.7992 58.5304 26.755C58.3939 26.7108 58.2657 26.6393 58.1396 26.5299C58.0115 26.4162 57.8896 26.2773 57.7656 26.0395Z" fill="#181818"/>
<path d="M64.9355 26.6204C65.0049 26.271 65.1751 26.0017 65.3789 25.7702C65.5848 25.5429 65.8348 25.3619 66.1059 25.2294C66.3769 25.0968 66.6753 25.0168 66.9821 24.9979C67.2888 24.9832 67.6061 25.0189 67.9213 25.1831C67.688 25.4503 67.4632 25.625 67.2384 25.7828C67.0136 25.9364 66.793 26.0669 66.5597 26.1763C66.3286 26.2879 66.0891 26.3805 65.8285 26.4583C65.5638 26.5362 65.2885 26.6014 64.9355 26.6204Z" fill="#181818"/>
<path d="M69.9511 23.388C70.1171 23.4027 70.2327 23.4322 70.3251 23.4701C70.4176 23.5079 70.4827 23.5542 70.5352 23.6069C70.6319 23.7121 70.6634 23.8383 70.6193 23.9899L70.1822 23.6805C70.0982 23.7016 70.0309 23.7584 70.0141 23.8131C69.9952 23.8657 70.0099 23.9078 70.0373 23.9372C70.0604 23.9646 70.1108 23.9835 70.1528 23.9835C70.2011 23.9835 70.2579 23.9562 70.281 23.8867C70.3461 23.8531 70.4281 23.8762 70.4827 23.9288C70.531 23.9814 70.5752 24.0551 70.5815 24.1329C70.5899 24.2108 70.5752 24.3013 70.5163 24.3897C70.4596 24.4781 70.3398 24.5601 70.2032 24.5812L70.1759 24.5854L69.7662 24.2718C69.6422 24.175 69.5918 24.0551 69.6086 23.9141C69.6191 23.8425 69.6464 23.7647 69.6969 23.6805C69.7494 23.59 69.8229 23.4974 69.9511 23.388Z" fill="#181818"/>
<path d="M68.3926 28.67C68.6783 28.5206 68.9053 28.4427 69.1217 28.3754C69.3381 28.3123 69.5377 28.2681 69.7415 28.2428C69.9432 28.2155 70.1491 28.207 70.374 28.2134C70.6009 28.2218 70.8404 28.2428 71.1556 28.3144C71.0568 28.6237 70.8593 28.8384 70.6345 28.9983C70.4076 29.1561 70.1449 29.2529 69.876 29.2866C69.607 29.3224 69.3297 29.2929 69.0691 29.2003C68.8128 29.0993 68.567 28.9415 68.3926 28.67Z" fill="#181818"/>
<path d="M74.1217 23.8783C74.3969 23.8594 74.5944 23.9099 74.7667 23.9835C74.9369 24.0593 75.0777 24.1603 75.1911 24.2866C75.3046 24.4128 75.3908 24.5623 75.4475 24.7411C75.5 24.9221 75.5294 25.1241 75.479 25.3956C75.2038 25.4145 75.0062 25.364 74.8319 25.2925C74.6617 25.2167 74.5209 25.1157 74.4095 24.9873C74.2961 24.8611 74.2099 24.7096 74.1553 24.5328C74.1007 24.3518 74.0712 24.1498 74.1217 23.8783Z" fill="#181818"/>
<path d="M76.8547 20.6461C77.0963 20.6819 77.2392 20.7661 77.3484 20.865C77.4535 20.966 77.5144 21.0817 77.5333 21.2059C77.5543 21.33 77.5333 21.4605 77.4661 21.5889C77.3946 21.7172 77.2854 21.8435 77.0669 21.9529C76.8483 21.8414 76.7307 21.7467 76.6424 21.652C76.5584 21.5594 76.5101 21.4689 76.4954 21.3742C76.4806 21.2795 76.4975 21.1785 76.5479 21.0628C76.6025 20.947 76.6845 20.8208 76.8547 20.6461Z" fill="#181818"/>
<path d="M77.5977 27.7019C77.7489 27.4115 77.9023 27.2137 78.0578 27.0307C78.2133 26.8518 78.3709 26.7003 78.5411 26.5656C78.7092 26.4288 78.892 26.3089 79.1 26.1952C79.3101 26.0837 79.5391 25.9785 79.8543 25.8943C79.9026 26.2205 79.8291 26.5025 79.7093 26.7529C79.5874 27.0012 79.4109 27.2179 79.1966 27.3863C78.9844 27.5567 78.7365 27.6809 78.4654 27.7461C78.1944 27.8093 77.9044 27.8198 77.5977 27.7019Z" fill="#181818"/>
<path d="M76.1548 16.4394C76.1359 16.1827 76.18 16.0123 76.241 15.8671C76.3061 15.724 76.3922 15.6145 76.5036 15.5367C76.6129 15.4567 76.7431 15.4062 76.8986 15.3894C77.0562 15.3746 77.2327 15.3873 77.4701 15.4841C77.489 15.7408 77.447 15.9134 77.384 16.0586C77.3188 16.2017 77.2306 16.309 77.1213 16.3889C77.0121 16.4689 76.8818 16.5194 76.7263 16.5362C76.5687 16.5468 76.3922 16.5362 76.1548 16.4394Z" fill="#181818"/>
<path d="M73.6671 13.2281C73.7953 13.4448 73.8709 13.5711 73.9297 13.6805C73.9844 13.7879 74.0138 13.8678 74.0159 13.952C74.0201 14.0341 73.9949 14.1182 73.9487 14.2277C73.8982 14.3392 73.8289 14.4697 73.7133 14.6969C73.4591 14.7075 73.2805 14.6022 73.1565 14.4697C73.0347 14.3329 72.9695 14.1603 72.9653 13.9878C72.959 13.8152 73.0137 13.6384 73.1271 13.4953C73.2448 13.3501 73.415 13.2344 73.6671 13.2281Z" fill="#181818"/>
<path d="M67.7949 8.44697C68.0555 8.35858 68.2719 8.37331 68.4652 8.42592C68.6564 8.48064 68.8224 8.57954 68.9569 8.71001C69.0913 8.84048 69.1943 9.00463 69.2531 9.19402C69.3099 9.38552 69.3288 9.60227 69.2447 9.86742C68.9695 9.85059 68.7825 9.79587 68.6207 9.72853C68.461 9.65909 68.3307 9.57281 68.2236 9.46338C68.1143 9.35606 68.0261 9.22769 67.9525 9.06986C67.8769 8.90572 67.818 8.72054 67.7949 8.44697Z" fill="#181818"/>
<path d="M61.3547 4.48441C61.6384 4.46547 61.8464 4.51808 62.0313 4.59384C62.2141 4.6717 62.3675 4.77902 62.4957 4.90949C62.6238 5.03997 62.7247 5.19779 62.7961 5.38298C62.8655 5.57027 62.9117 5.78071 62.8802 6.0648C62.5965 6.08584 62.3864 6.03323 62.2015 5.95748C62.0187 5.87961 61.8653 5.77229 61.7392 5.63971C61.6111 5.50714 61.5102 5.35141 61.4388 5.16623C61.3715 4.97683 61.3253 4.7664 61.3547 4.48441Z" fill="#181818"/>
<path d="M57.7818 7.35693C57.5464 7.23908 57.4246 7.07705 57.3489 6.9087C57.2775 6.74035 57.2586 6.56147 57.2901 6.39102C57.3195 6.22056 57.3994 6.06063 57.5275 5.92805C57.6578 5.79758 57.8301 5.69026 58.0927 5.6629C58.2167 5.89438 58.2734 6.05432 58.3092 6.19952C58.3407 6.34262 58.347 6.46467 58.3239 6.58041C58.3028 6.69826 58.2545 6.80979 58.1726 6.93184C58.0864 7.056 57.9793 7.18437 57.7818 7.35693Z" fill="#181818"/>
<path d="M53.1136 8.79423C52.8909 8.68691 52.7817 8.54802 52.7144 8.40492C52.6514 8.26182 52.6409 8.11241 52.6766 7.97563C52.7102 7.83884 52.7922 7.71258 52.9161 7.61788C53.0443 7.52529 53.2082 7.45584 53.454 7.47268C53.5801 7.68522 53.6389 7.82201 53.6746 7.94196C53.7083 8.0598 53.7146 8.1545 53.6914 8.24078C53.6683 8.32706 53.6179 8.40702 53.5297 8.4933C53.4435 8.57748 53.3258 8.66797 53.1136 8.79423Z" fill="#181818"/>
<path d="M55.0137 2.66625C55.0473 2.42635 55.1124 2.28747 55.1881 2.18014C55.2637 2.07492 55.352 2.00969 55.4507 1.97812C55.5495 1.94656 55.6587 1.94866 55.7827 1.99285C55.9067 2.03915 56.039 2.11701 56.2029 2.29378C56.1693 2.53368 56.1042 2.67257 56.0285 2.78199C55.9529 2.88721 55.8646 2.95245 55.7638 2.98191C55.665 3.01348 55.5537 3.00927 55.4318 2.96718C55.3099 2.91878 55.1776 2.84302 55.0137 2.66625Z" fill="#181818"/>
<path d="M40.4895 43.992C37.7244 46.1174 35.4572 48.8847 33.9192 52.016C33.5767 52.7147 33.293 53.628 33.8141 54.2067C34.2217 54.6612 34.9403 54.6612 35.5245 54.4823C37.5374 53.8637 38.6594 51.7277 39.2435 49.7033C39.8276 47.6789 40.1323 45.4861 41.4077 43.8111C41.2795 43.5922 41.0127 43.4638 40.7626 43.5017" fill="white"/>
<path d="M40.5217 44.0341C39.7464 44.8821 38.9732 45.6923 38.2483 46.5446C37.8848 46.9676 37.5276 47.3969 37.183 47.8304L36.1556 49.1435C35.8068 49.577 35.4622 50.0189 35.1218 50.4672C34.96 50.6965 34.7856 50.9196 34.6364 51.1574C34.4788 51.391 34.3297 51.6309 34.1931 51.8771C34.0481 52.1233 33.9262 52.3653 33.8359 52.6242C33.7476 52.8809 33.6888 53.1481 33.6972 53.4049C33.7056 53.6616 33.7939 53.8952 33.9557 54.0614C34.1195 54.2235 34.3423 54.3077 34.5839 54.3182C34.8234 54.3308 35.0756 54.2866 35.3109 54.2024C35.5441 54.1141 35.7837 53.9941 35.998 53.8594C36.435 53.5922 36.8111 53.2365 37.1389 52.8346C37.7987 52.0244 38.221 51.0185 38.5614 49.9937C38.8955 48.9646 39.1707 47.8514 39.5531 46.7571C39.9355 45.6671 40.4629 44.5623 41.2824 43.7121L41.2719 43.8889C41.2088 43.7142 41.005 43.5564 40.7718 43.5522L40.755 43.4491C41.0239 43.3691 41.3538 43.4659 41.545 43.729L41.5954 43.7984L41.5345 43.9057C40.9756 44.8737 40.6751 45.928 40.4272 47.0118C40.173 48.0955 40.0007 49.2172 39.633 50.3493C39.4481 50.9133 39.2106 51.4625 38.9186 51.9907C38.6286 52.5189 38.2777 53.0219 37.8596 53.4722C37.4394 53.9205 36.9372 54.314 36.3615 54.5623C36.0715 54.6843 35.7816 54.7748 35.4685 54.838C35.1554 54.8927 34.8297 54.899 34.5083 54.8295C34.191 54.7601 33.8632 54.5981 33.6552 54.3266C33.5501 54.194 33.4724 54.0425 33.4241 53.8847C33.3736 53.7268 33.3652 53.5648 33.3652 53.4091C33.3841 52.7841 33.6342 52.2348 33.8737 51.7151C34.3423 50.6713 34.8003 49.6002 35.4265 48.6237C35.7353 48.1334 36.0925 47.6747 36.4686 47.2348C36.8468 46.7971 37.2461 46.3763 37.6684 45.9806C38.0907 45.5871 38.532 45.2125 39.0005 44.8737C39.4607 44.5286 39.9502 44.2193 40.4587 43.9478L40.5217 44.0341Z" fill="#181818"/>
<path d="M55.2108 45.3872C53.366 46.3994 51.8195 47.9461 50.8047 49.7916C51.662 50.4103 52.8554 49.9242 53.7568 49.3707C54.6792 48.8026 55.6857 47.8535 55.3453 46.8223C55.2402 46.5046 55.0175 46.2415 54.8872 45.9343C54.759 45.6271 54.7548 45.2167 55.0217 45.0168" fill="white"/>
<path d="M55.2359 45.4335C54.8598 45.8375 54.4837 46.191 54.116 46.5488C53.7483 46.9044 53.3869 47.2559 53.0318 47.6136C52.6725 47.9671 52.2586 48.2744 51.8741 48.6279C51.4896 48.9815 51.1765 49.4065 50.9538 49.8737L50.9055 49.6549C51.1723 49.819 51.4896 49.8548 51.7879 49.7895C52.0884 49.7327 52.3721 49.5896 52.6515 49.4444C52.931 49.2971 53.2104 49.1309 53.4773 48.9415C53.7399 48.7542 53.9815 48.5479 54.2043 48.3396C54.4249 48.1313 54.614 47.9103 54.7548 47.6936C54.8829 47.4726 54.9586 47.2643 54.9397 47.0307C54.9439 46.8034 54.7632 46.5025 54.6455 46.1069C54.5846 45.9006 54.5678 45.6755 54.6182 45.4671C54.6623 45.2588 54.801 45.0505 54.9922 44.9768L55.0552 45.061C54.9607 45.1999 54.9628 45.3493 54.9922 45.4861C55.0258 45.6271 55.0909 45.7512 55.1771 45.8628L55.4923 46.2542C55.6078 46.3994 55.7297 46.5909 55.8032 46.816C55.9713 47.2622 55.8957 47.7841 55.7129 48.1839C55.528 48.5858 55.2569 48.9078 54.9649 49.1708C54.6707 49.4339 54.345 49.6422 54.0131 49.8211C53.6832 49.9937 53.3428 50.1578 52.9709 50.263C52.599 50.364 52.2019 50.4166 51.8005 50.3703C51.4013 50.3325 51.0126 50.1725 50.708 49.9326L50.584 49.8337L50.6596 49.7138C50.9433 49.2592 51.2059 48.8005 51.4539 48.3123C51.7018 47.8261 51.9791 47.3379 52.3658 46.9465C52.7524 46.5593 53.1873 46.2184 53.6622 45.9427C54.1349 45.667 54.6434 45.4482 55.1897 45.3451L55.2359 45.4335Z" fill="#181818"/>
<path d="M34.9637 32.6199C34.7767 32.9671 34.6107 33.3038 34.4762 33.6468C34.3439 33.9898 34.243 34.3371 34.1695 34.6822C34.098 35.0252 34.0581 35.385 34.0518 35.7175C34.0518 35.8754 34.0728 35.9953 34.1043 36.0711C34.1338 36.1447 34.1821 36.2121 34.2745 36.2794C34.367 36.3467 34.4951 36.4015 34.6338 36.4246C34.7746 36.452 34.9175 36.4499 35.0835 36.4099C35.407 36.3341 35.7348 36.1363 36.029 35.8964C36.6278 35.4124 37.1657 34.8547 37.6742 34.2676C38.1869 33.6721 38.71 33.1334 39.0231 32.5526C39.1009 32.4095 39.1576 32.2643 39.1912 32.1275C39.2311 31.9907 39.2374 31.8644 39.2227 31.7508C39.2227 31.6919 39.1975 31.6414 39.1891 31.5845C39.1639 31.534 39.1513 31.4751 39.1219 31.433C39.0714 31.3404 39.0021 31.2605 38.9118 31.1868C38.7311 31.0374 38.4495 30.9448 38.1574 30.9132C38.0104 30.8985 37.8591 30.9069 37.712 30.9322C37.5691 30.9532 37.4136 30.9995 37.2603 31.0648C36.9535 31.1931 36.653 31.3888 36.3547 31.614C36.0584 31.8413 35.7663 32.098 35.4575 32.3442L35.3755 32.279C35.5415 31.9191 35.7306 31.5719 35.9681 31.2415C36.2034 30.9111 36.4912 30.5955 36.8547 30.343C37.0354 30.2209 37.235 30.1073 37.4641 30.0273C37.6889 29.9515 37.9221 29.9031 38.1595 29.8926C38.6323 29.8695 39.1387 29.9684 39.5799 30.2819C39.7963 30.4377 39.9896 30.6523 40.1199 30.9006C40.1893 31.0248 40.225 31.1531 40.2691 31.2836C40.2964 31.4183 40.3237 31.553 40.3216 31.6877C40.33 31.9591 40.2796 32.2201 40.1956 32.4473C40.1136 32.6788 40.0002 32.8829 39.8741 33.066C39.6261 33.4385 39.332 33.7373 39.0189 34.0025C38.7016 34.2697 38.3739 34.4696 38.0587 34.6969C37.4178 35.1367 36.8064 35.6081 36.2559 36.1489C35.9744 36.4162 35.6991 36.7213 35.3104 36.9444C35.1213 37.0559 34.8818 37.1422 34.638 37.1674C34.3943 37.1927 34.1359 37.1653 33.8816 37.058C33.6316 36.9528 33.3857 36.7424 33.2534 36.4625C33.121 36.1868 33.1084 35.9111 33.121 35.686C33.1483 35.2462 33.2408 34.84 33.3899 34.4444C33.5391 34.053 33.7387 33.6826 33.9972 33.3606C34.2472 33.0345 34.5498 32.7525 34.8923 32.5399L34.9637 32.6199Z" fill="#181818"/>
<path d="M70.0168 20.3534C68.1278 22.6956 63.8226 22.3484 60.3998 19.579C56.977 16.8096 55.5314 13.9877 57.4204 11.6476C59.3093 9.30753 63.9129 9.19811 67.3357 11.9675C70.7564 14.7368 71.9057 18.0112 70.0168 20.3534Z" fill="white"/>
<path d="M70.0569 20.3872C69.5085 21.0563 68.7563 21.5383 67.9306 21.8266C67.1027 22.1106 66.2076 22.2201 65.321 22.1633C63.5413 22.0559 61.8267 21.3047 60.4694 20.1809C59.7865 19.6233 59.1772 19.013 58.6099 18.348C58.4628 18.1881 58.3346 18.0092 58.196 17.843C58.0552 17.6767 57.9312 17.4978 57.8052 17.3211C57.6749 17.1485 57.5551 16.9654 57.4396 16.7803C57.3156 16.6014 57.2168 16.4057 57.1118 16.2163C56.9983 16.0311 56.9206 15.8249 56.8239 15.6271C56.7735 15.5303 56.7399 15.425 56.7042 15.3198L56.5928 15.0084C56.4814 14.5833 56.3932 14.1414 56.4184 13.691C56.41 13.4659 56.4625 13.2449 56.4982 13.0218C56.513 12.9103 56.5592 12.8051 56.5886 12.6957C56.6264 12.5904 56.6453 12.4747 56.7 12.3758C56.8008 12.1738 56.8828 11.9591 57.013 11.776L57.1958 11.4899C57.2631 11.3994 57.3408 11.3152 57.4122 11.2268C58.0048 10.5303 58.8116 10.0231 59.6752 9.73901C60.5408 9.45071 61.4591 9.36654 62.3583 9.41915C63.2597 9.47176 64.1464 9.66957 64.9932 9.97891C65.8441 10.2798 66.6363 10.7323 67.3528 11.2752C67.7205 11.5425 68.0398 11.8371 68.3676 12.1359L68.8383 12.6031C68.9917 12.763 69.1324 12.9356 69.2816 13.0997C69.851 13.7815 70.3322 14.5496 70.66 15.3851C70.9814 16.2184 71.1558 17.1254 71.0571 18.005C70.9562 18.8952 70.599 19.718 70.0569 20.3872ZM69.975 20.3198C70.5003 19.6611 70.7923 18.8257 70.7692 18.0008C70.7776 17.8977 70.7524 17.7946 70.7461 17.6936C70.7335 17.5925 70.7272 17.4894 70.7083 17.3884L70.6348 17.0896C70.6116 16.9907 70.5885 16.8918 70.5486 16.7971C70.4751 16.6056 70.4183 16.412 70.3175 16.2331C70.2292 16.05 70.141 15.8691 70.0296 15.6965C69.6157 14.9978 69.0883 14.375 68.5231 13.7899C67.9642 13.2049 67.3318 12.6557 66.6825 12.1843C65.3987 11.2289 63.8691 10.5955 62.2806 10.4166C61.4864 10.3324 60.6795 10.3703 59.9105 10.5555C59.1457 10.7428 58.4061 11.0795 57.8325 11.6266C57.261 12.1696 56.8155 12.904 56.7735 13.7163C56.721 14.1182 56.8071 14.5265 56.8996 14.9242C57.0235 15.3156 57.1853 15.6986 57.4038 16.0521C57.8346 16.7634 58.404 17.3884 59.0238 17.9461C59.6416 18.5016 60.3181 19.0172 60.9926 19.4823C61.665 19.9473 62.3709 20.364 63.1084 20.7007C63.846 21.0374 64.6108 21.3257 65.4071 21.5004C66.2013 21.675 67.0418 21.7403 67.8549 21.5677C68.6702 21.4036 69.4455 20.9764 69.975 20.3198Z" fill="#181818"/>
<path d="M56.4785 13.8573C57.6341 13.1881 59.0734 13.0072 60.4287 13.205C61.7902 13.4028 63.0929 13.9436 64.2276 14.7159C65.3517 15.4861 66.3518 16.4499 67.0956 17.6073C67.4633 18.186 67.7617 18.8173 67.9361 19.4823C68.1042 20.1473 68.1609 20.8439 68.0222 21.4983C67.8415 20.1768 67.2154 19.0572 66.4254 18.0913C65.6311 17.1254 64.6688 16.2942 63.635 15.585C62.6076 14.8843 61.4708 14.335 60.2648 14.013C59.0587 13.6869 57.7812 13.6048 56.4785 13.8573Z" fill="#181818"/>
<path d="M23.9361 62.0286L18.9543 57.6073C17.2818 56.1237 18.8724 53.9099 21.0744 54.6549L28.7478 55.4124C30.2249 55.9133 30.7901 57.4852 29.8341 58.4343L27.1404 62.098C26.3503 62.8872 24.8669 62.8535 23.9361 62.0286Z" fill="#4FBA6F"/>
<path d="M23.9027 62.0686C23.1589 61.3973 22.3583 60.7912 21.5347 60.2104C20.7131 59.6275 19.8937 59.0425 19.1331 58.3901L18.8473 58.146L18.7065 58.0218L18.6351 57.9587L18.5574 57.8787C18.3472 57.6725 18.156 57.4263 18.03 57.1401C17.7631 56.574 17.7841 55.8417 18.1266 55.3261C18.4544 54.8042 18.9881 54.476 19.5323 54.3623C20.0828 54.2508 20.6333 54.3244 21.1292 54.5033L21.0913 54.4949C21.7301 54.5707 22.3688 54.6275 23.0118 54.6675C23.6526 54.7116 24.2977 54.7285 24.9406 54.7474C25.5836 54.7664 26.2286 54.7748 26.8716 54.8063C27.5146 54.8337 28.1554 54.8779 28.7963 54.9221L28.8425 54.9242L28.9076 54.9452C29.269 55.061 29.6178 55.2398 29.9246 55.4882C30.2292 55.7386 30.4898 56.0584 30.66 56.4372C30.8323 56.8139 30.91 57.2579 30.8344 57.6957C30.7671 58.1355 30.5318 58.5437 30.2313 58.8383L30.2881 58.7731C29.83 59.3771 29.372 59.981 28.8929 60.5681C28.6534 60.8627 28.4012 61.1468 28.1533 61.4351L27.3843 62.2811L27.3549 62.3169C27.088 62.5357 26.777 62.6746 26.464 62.7462C26.1509 62.8156 25.8357 62.8324 25.529 62.7925C24.9217 62.7146 24.3502 62.4663 23.9027 62.0686ZM23.972 61.9886C24.1884 62.1759 24.4406 62.3211 24.7095 62.4158C24.9785 62.5084 25.2621 62.5526 25.5416 62.542C25.8189 62.5273 26.0942 62.4705 26.3358 62.3547C26.5774 62.2411 26.7855 62.0812 26.9346 61.8855L26.9052 61.9212L27.483 60.9343C27.6847 60.6123 27.8802 60.2861 28.0903 59.9684C28.5084 59.335 28.9475 58.7163 29.3867 58.0997L29.4098 58.066L29.4434 58.0324C29.601 57.8766 29.6934 57.6935 29.7313 57.4936C29.767 57.2958 29.7439 57.077 29.6619 56.8623C29.4938 56.4309 29.0862 56.069 28.5966 55.8775L28.7059 55.9006C28.0693 55.8186 27.4305 55.7365 26.7939 55.6376C26.1572 55.5429 25.5227 55.425 24.8881 55.3177C24.2536 55.2104 23.619 55.101 22.9803 55.0189C22.3436 54.9326 21.7049 54.8632 21.064 54.8127L21.0493 54.8106L21.0262 54.8042C20.5724 54.6696 20.0849 54.6569 19.6668 54.8148C19.2465 54.9663 18.9209 55.2946 18.7717 55.6544C18.7465 55.6965 18.7402 55.747 18.7275 55.7933C18.717 55.8396 18.7002 55.8838 18.6918 55.9301L18.6834 56.069L18.6771 56.1384L18.6876 56.2079L18.7023 56.3425C18.7128 56.3867 18.7296 56.4309 18.7402 56.4751C18.7549 56.5656 18.8074 56.6456 18.8473 56.7297C18.9398 56.8918 19.0637 57.0475 19.215 57.1864L19.2675 57.2411L19.3369 57.3021L19.4777 57.4263L19.755 57.6809C20.4925 58.3585 21.1733 59.1035 21.8478 59.8505C22.5201 60.606 23.2177 61.3299 23.972 61.9886Z" fill="#181818"/>
<path d="M10.1504 46.7319C9.98442 45.8523 9.90668 44.9558 9.91929 44.0551C9.9382 43.1545 10.0538 42.2559 10.2534 41.3742C10.4509 40.4924 10.7555 39.6317 11.1359 38.8089C11.5141 37.984 11.9931 37.1991 12.5625 36.4815C13.134 35.7639 13.819 35.1284 14.6028 34.6233C15.3823 34.1183 16.2858 33.7668 17.2292 33.6553C18.1684 33.5354 19.1412 33.6553 20.0342 34.0109C20.9314 34.3666 21.7362 34.9916 22.2488 35.8691C22.4947 36.3068 22.6607 36.7992 22.6817 37.3296C22.6922 37.5947 22.6649 37.8662 22.585 38.1334C22.5052 38.4007 22.3686 38.6532 22.1837 38.87C21.8181 39.3203 21.2634 39.556 20.736 39.6233C20.4692 39.6528 20.2044 39.6465 19.9439 39.6086C19.6833 39.5665 19.4312 39.4886 19.1896 39.3834C18.9479 39.2761 18.7189 39.1288 18.513 38.9562C18.3134 38.79 18.1411 38.5964 17.9877 38.3923C17.6809 37.984 17.4666 37.5253 17.3174 37.0602C17.0212 36.1258 16.9539 35.1789 16.9813 34.2403C17.0569 32.3569 17.6704 30.5177 18.6874 28.9415C19.198 28.1545 19.8115 27.4306 20.5175 26.8077C20.6898 26.6456 20.8768 26.5025 21.0638 26.3594C21.2466 26.2142 21.4441 26.0732 21.6479 25.947C22.0555 25.6902 22.4884 25.4714 22.9527 25.3072C23.4171 25.1452 23.9129 25.0421 24.4298 25.0337C24.9446 25.021 25.4846 25.1326 25.9637 25.3746C26.0813 25.4272 26.2053 25.5093 26.3272 25.5955L26.4175 25.6608L26.4953 25.7365L26.6507 25.8881C26.7432 25.9954 26.8293 26.1111 26.9071 26.2269C26.9722 26.3489 27.05 26.4668 27.0962 26.5951C27.3084 27.1023 27.3777 27.6473 27.2979 28.1923C27.2454 28.4638 27.1739 28.7395 27.0184 28.9962C26.8819 29.2572 26.6507 29.4886 26.386 29.6612C26.2452 29.7327 26.1044 29.8169 25.9532 29.8443L25.7283 29.899C25.6527 29.9074 25.5771 29.9158 25.5014 29.92C25.1967 29.9285 24.8984 29.8611 24.6336 29.7454C24.1041 29.5097 23.6986 29.1056 23.4318 28.6237C23.1607 28.1229 23.0809 27.5863 23.0977 27.0707C23.1166 26.5572 23.2343 26.0711 23.394 25.6145C23.5578 25.162 23.7617 24.7285 24.0075 24.3161C24.4992 23.4975 25.1547 22.7673 25.9532 22.2201C26.7453 21.6751 27.7013 21.311 28.6847 21.2732C29.6596 21.2332 30.645 21.4689 31.4834 21.9802C31.9015 22.237 32.2818 22.5652 32.5886 22.9567C32.8975 23.3418 33.1433 23.8152 33.2252 24.3392C33.2673 24.6023 33.261 24.8864 33.1832 25.1663C33.1013 25.444 32.9395 25.7071 32.7147 25.9007C32.4877 26.0922 32.2188 26.2079 31.9498 26.2605C31.6788 26.3131 31.4077 26.3026 31.1493 26.25C30.8909 26.1953 30.6366 26.0964 30.4139 25.9428C30.1996 25.7976 30.0126 25.6187 29.8529 25.4251C29.5377 25.0337 29.3318 24.5897 29.1805 24.1477C28.9053 23.2576 28.7456 22.3359 28.7666 21.412C28.8296 19.5707 29.4285 17.7652 30.4895 16.2879C31.0127 15.5492 31.6326 14.8737 32.3575 14.335C33.0782 13.7942 33.8787 13.367 34.7276 13.085C33.0676 13.7521 31.6599 14.9579 30.7312 16.452C29.7752 17.9293 29.2688 19.6822 29.2835 21.4141C29.294 22.2812 29.4726 23.1355 29.7499 23.9436C29.9012 24.3392 30.0945 24.7138 30.3509 25.0105C30.479 25.1578 30.624 25.2862 30.7816 25.3851C30.9308 25.4819 31.1031 25.5408 31.2817 25.5724C31.6389 25.6376 32.015 25.5535 32.2398 25.3514C32.3512 25.2504 32.4289 25.1157 32.4709 24.9642C32.5087 24.8106 32.5129 24.6381 32.4814 24.4613C32.4142 24.1014 32.2356 23.7542 31.9793 23.4512C31.7271 23.1439 31.4161 22.8872 31.0674 22.6852C30.3719 22.2812 29.5398 22.1002 28.7351 22.1549C27.9303 22.2012 27.1529 22.5042 26.4826 22.9777C25.8124 23.4512 25.2535 24.0888 24.8374 24.8064C24.4277 25.5219 24.1168 26.3384 24.0957 27.1002C24.0852 27.4769 24.1588 27.8535 24.3185 28.1376C24.4824 28.4365 24.7492 28.689 25.0392 28.8131C25.1841 28.8763 25.3312 28.9057 25.4741 28.9015L25.5792 28.891C25.6128 28.8805 25.6443 28.87 25.6779 28.8636C25.7493 28.8573 25.7977 28.811 25.8586 28.7879C26.075 28.6553 26.2326 28.3712 26.2872 28.0324C26.3356 27.6936 26.2851 27.319 26.1507 27.0034C26.1234 26.9192 26.0708 26.854 26.0351 26.7782C25.9868 26.7109 25.9385 26.6456 25.888 26.5846L25.8019 26.5025L25.7599 26.4604L25.7115 26.4289C25.6485 26.3868 25.5918 26.3405 25.5035 26.3026C24.8669 25.9743 24.0579 26.0333 23.3036 26.2963C22.9254 26.4289 22.5556 26.612 22.2068 26.8308C22.0303 26.9381 21.8643 27.056 21.6962 27.1886C21.5281 27.3169 21.36 27.4432 21.2067 27.5884C20.5721 28.1439 20.0153 28.7921 19.551 29.5013C18.6201 30.9217 18.0675 32.5905 17.9772 34.2845C17.9394 35.1284 17.994 35.9933 18.2314 36.7698C18.3491 37.1591 18.5172 37.5211 18.7441 37.8304C18.8576 37.984 18.9815 38.1292 19.1244 38.2513C19.261 38.367 19.406 38.4659 19.5741 38.5438C19.7401 38.6174 19.9166 38.6742 20.0973 38.7079C20.278 38.7374 20.4608 38.7437 20.6394 38.7269C20.9923 38.6848 21.3159 38.5438 21.5239 38.2976C21.9757 37.8136 21.9148 36.9402 21.5407 36.2605C21.4483 36.0859 21.3453 35.9259 21.2109 35.7765C21.0848 35.6187 20.9398 35.4798 20.7885 35.3451C20.4839 35.0779 20.1288 34.8674 19.7527 34.7054C18.9963 34.3855 18.1432 34.2551 17.309 34.335C16.4749 34.4066 15.6596 34.6907 14.9263 35.1326C14.193 35.5703 13.5333 36.1469 12.966 36.8077C11.825 38.1271 11.0266 39.7475 10.5433 41.4436C10.058 43.1503 9.91929 44.9579 10.1504 46.7319Z" fill="#181818"/>
</g>
<defs>
<clipPath id="clip0_625_129">
<rect width="100" height="80" fill="white"/>
</clipPath>
</defs>
</svg>
