<svg width="163" height="48" viewBox="0 0 163 48" fill="none" xmlns="http://www.w3.org/2000/svg">
<path d="M73.584 14.064V27H70.44L70.392 25.416C69.928 26.024 69.352 26.48 68.664 26.784C67.976 27.088 67.224 27.24 66.408 27.24C65.672 27.24 65 27.12 64.392 26.88C63.8 26.64 63.288 26.296 62.856 25.848C62.424 25.4 62.088 24.872 61.848 24.264C61.608 23.64 61.488 22.944 61.488 22.176V14.064H64.752V21.672C64.752 22.504 65.008 23.176 65.52 23.688C66.032 24.184 66.712 24.432 67.56 24.432C68.392 24.432 69.056 24.184 69.552 23.688C70.064 23.176 70.32 22.504 70.32 21.672V14.064H73.584ZM85.2424 27L82.2424 22.752L79.2424 27H75.3544L80.2984 20.376L75.6424 14.064H79.5304L82.2424 17.976L84.9544 14.064H88.8424L84.1864 20.376L89.1304 27H85.2424ZM159.147 27.24C158.555 27.24 158.043 27.032 157.611 26.616C157.195 26.2 156.987 25.696 156.987 25.104C156.987 24.512 157.195 24.008 157.611 23.592C158.043 23.176 158.555 22.968 159.147 22.968C159.723 22.968 160.219 23.176 160.635 23.592C161.051 24.008 161.259 24.512 161.259 25.104C161.259 25.696 161.051 26.2 160.635 26.616C160.219 27.032 159.723 27.24 159.147 27.24Z" fill="#181818"/>
<path d="M103.915 8.28V27H100.771L100.699 25.032C100.251 25.72 99.6666 26.264 98.9466 26.664C98.2266 27.048 97.3626 27.24 96.3546 27.24C95.4746 27.24 94.6586 27.08 93.9066 26.76C93.1546 26.44 92.4986 25.992 91.9386 25.416C91.3946 24.824 90.9626 24.12 90.6426 23.304C90.3226 22.488 90.1626 21.584 90.1626 20.592C90.1626 19.584 90.3226 18.664 90.6426 17.832C90.9626 17 91.3946 16.288 91.9386 15.696C92.4986 15.104 93.1546 14.648 93.9066 14.328C94.6586 13.992 95.4746 13.824 96.3546 13.824C97.3466 13.824 98.1946 14.016 98.8986 14.4C99.6026 14.768 100.187 15.288 100.651 15.96V8.28H103.915ZM97.0746 24.432C98.1466 24.432 99.0106 24.08 99.6666 23.376C100.323 22.656 100.651 21.704 100.651 20.52C100.651 19.352 100.323 18.408 99.6666 17.688C99.0106 16.968 98.1466 16.608 97.0746 16.608C96.0186 16.608 95.1626 16.968 94.5066 17.688C93.8506 18.408 93.5226 19.36 93.5226 20.544C93.5226 21.712 93.8506 22.656 94.5066 23.376C95.1626 24.08 96.0186 24.432 97.0746 24.432ZM107.219 14.064H110.483V27H107.219V14.064ZM108.851 11.952C108.291 11.952 107.827 11.776 107.459 11.424C107.091 11.056 106.907 10.592 106.907 10.032C106.907 9.472 107.091 9.008 107.459 8.64C107.827 8.272 108.291 8.088 108.851 8.088C109.411 8.088 109.867 8.272 110.219 8.64C110.587 9.008 110.771 9.472 110.771 10.032C110.771 10.592 110.587 11.056 110.219 11.424C109.867 11.776 109.411 11.952 108.851 11.952ZM121.22 13.824C121.988 13.824 122.692 13.944 123.332 14.184C123.972 14.424 124.516 14.768 124.964 15.216C125.412 15.648 125.756 16.176 125.996 16.8C126.252 17.424 126.38 18.112 126.38 18.864V27H123.116V19.392C123.116 18.544 122.836 17.872 122.276 17.376C121.732 16.864 121.004 16.608 120.092 16.608C119.18 16.608 118.444 16.864 117.884 17.376C117.34 17.872 117.068 18.544 117.068 19.392V27H113.804V14.064H116.948L116.996 15.696C117.492 15.088 118.1 14.624 118.82 14.304C119.556 13.984 120.356 13.824 121.22 13.824ZM135.723 27.24C134.683 27.24 133.739 27.08 132.891 26.76C132.043 26.44 131.315 25.984 130.707 25.392C130.099 24.8 129.627 24.096 129.291 23.28C128.955 22.448 128.787 21.528 128.787 20.52C128.787 19.512 128.955 18.6 129.291 17.784C129.627 16.968 130.099 16.264 130.707 15.672C131.315 15.08 132.043 14.624 132.891 14.304C133.739 13.984 134.683 13.824 135.723 13.824C136.763 13.824 137.707 13.984 138.555 14.304C139.403 14.624 140.123 15.08 140.715 15.672C141.323 16.264 141.795 16.968 142.131 17.784C142.467 18.6 142.635 19.512 142.635 20.52C142.635 21.528 142.467 22.448 142.131 23.28C141.795 24.096 141.323 24.8 140.715 25.392C140.123 25.984 139.403 26.44 138.555 26.76C137.707 27.08 136.763 27.24 135.723 27.24ZM135.723 24.432C136.779 24.432 137.627 24.08 138.267 23.376C138.923 22.656 139.251 21.704 139.251 20.52C139.251 19.336 138.923 18.392 138.267 17.688C137.627 16.968 136.779 16.608 135.723 16.608C134.651 16.608 133.787 16.968 133.131 17.688C132.491 18.392 132.171 19.336 132.171 20.52C132.171 21.704 132.491 22.656 133.131 23.376C133.787 24.08 134.651 24.432 135.723 24.432ZM149.531 27.24C148.539 27.24 147.619 27.112 146.771 26.856C145.939 26.6 145.219 26.216 144.611 25.704L145.859 23.736C146.467 24.104 147.075 24.36 147.683 24.504C148.307 24.632 148.939 24.696 149.579 24.696C150.187 24.696 150.675 24.584 151.043 24.36C151.411 24.12 151.595 23.8 151.595 23.4C151.595 23 151.387 22.688 150.971 22.464C150.571 22.224 150.043 22.016 149.387 21.84L148.307 21.552C147.763 21.408 147.259 21.248 146.795 21.072C146.347 20.88 145.963 20.648 145.643 20.376C145.323 20.104 145.067 19.784 144.875 19.416C144.699 19.048 144.611 18.608 144.611 18.096C144.611 17.456 144.731 16.872 144.971 16.344C145.227 15.816 145.571 15.368 146.003 15C146.451 14.632 146.987 14.344 147.611 14.136C148.235 13.928 148.931 13.824 149.699 13.824C151.699 13.824 153.331 14.248 154.595 15.096L153.227 17.232C152.203 16.672 151.107 16.392 149.939 16.392C149.331 16.392 148.843 16.496 148.475 16.704C148.123 16.912 147.947 17.2 147.947 17.568C147.947 17.952 148.131 18.248 148.499 18.456C148.867 18.664 149.331 18.84 149.891 18.984L150.947 19.296C151.507 19.44 152.027 19.616 152.507 19.824C152.987 20.032 153.403 20.288 153.755 20.592C154.123 20.896 154.403 21.256 154.595 21.672C154.803 22.088 154.907 22.584 154.907 23.16C154.907 23.768 154.779 24.328 154.523 24.84C154.267 25.336 153.899 25.768 153.419 26.136C152.955 26.488 152.395 26.76 151.739 26.952C151.083 27.144 150.347 27.24 149.531 27.24Z" fill="#4FBA6F"/>
<path d="M63.92 37.08C64.352 37.08 64.7467 37.152 65.104 37.296C65.4613 37.4347 65.7653 37.6347 66.016 37.896C66.2667 38.1573 66.4613 38.4693 66.6 38.832C66.7387 39.1947 66.808 39.6 66.808 40.048C66.808 40.4907 66.7387 40.8933 66.6 41.256C66.4613 41.6187 66.2667 41.9307 66.016 42.192C65.7653 42.448 65.4613 42.648 65.104 42.792C64.7467 42.9307 64.352 43 63.92 43H61.76V37.08H63.92ZM63.888 42.296C64.192 42.296 64.4693 42.2427 64.72 42.136C64.9707 42.024 65.184 41.872 65.36 41.68C65.5413 41.4827 65.68 41.2453 65.776 40.968C65.8773 40.6907 65.928 40.384 65.928 40.048C65.928 39.7067 65.8773 39.3973 65.776 39.12C65.68 38.8427 65.5413 38.6053 65.36 38.408C65.184 38.2107 64.9707 38.0587 64.72 37.952C64.4693 37.84 64.192 37.784 63.888 37.784H62.616V42.296H63.888ZM74.4111 42.296V43H70.5231V37.08H74.3471V37.784H71.3791V39.64H74.1231V40.344H71.3791V42.296H74.4111ZM79.9129 43.08C79.5182 43.08 79.1449 43.0213 78.7929 42.904C78.4409 42.7867 78.1449 42.608 77.9049 42.368L78.2329 41.784C78.4729 41.9973 78.7315 42.1493 79.0089 42.24C79.2862 42.3307 79.5689 42.376 79.8569 42.376C80.2835 42.376 80.6169 42.296 80.8569 42.136C81.1022 41.976 81.2249 41.7573 81.2249 41.48C81.2249 41.336 81.1902 41.2107 81.1209 41.104C81.0569 40.992 80.9635 40.896 80.8409 40.816C80.7182 40.7307 80.5715 40.656 80.4009 40.592C80.2302 40.5227 80.0409 40.4587 79.8329 40.4L79.4569 40.296C79.2329 40.232 79.0222 40.16 78.8249 40.08C78.6329 39.9947 78.4622 39.8907 78.3129 39.768C78.1689 39.64 78.0542 39.4907 77.9689 39.32C77.8889 39.1493 77.8489 38.944 77.8489 38.704C77.8489 38.448 77.8969 38.216 77.9929 38.008C78.0942 37.7947 78.2355 37.616 78.4169 37.472C78.6035 37.3227 78.8249 37.208 79.0809 37.128C79.3422 37.0427 79.6329 37 79.9529 37C80.7155 37 81.3529 37.2267 81.8649 37.68L81.4729 38.272C81.2595 38.0853 81.0275 37.944 80.7769 37.848C80.5315 37.752 80.2569 37.704 79.9529 37.704C79.5795 37.704 79.2809 37.784 79.0569 37.944C78.8382 38.104 78.7289 38.3147 78.7289 38.576C78.7289 38.72 78.7582 38.8427 78.8169 38.944C78.8809 39.04 78.9635 39.1253 79.0649 39.2C79.1715 39.2693 79.2915 39.3307 79.4249 39.384C79.5635 39.4373 79.7102 39.4853 79.8649 39.528L80.2489 39.632C80.4675 39.696 80.6862 39.776 80.9049 39.872C81.1289 39.9627 81.3289 40.0773 81.5049 40.216C81.6862 40.3547 81.8329 40.52 81.9449 40.712C82.0569 40.904 82.1129 41.1333 82.1129 41.4C82.1129 41.6507 82.0595 41.88 81.9529 42.088C81.8462 42.296 81.6969 42.4747 81.5049 42.624C81.3129 42.768 81.0809 42.88 80.8089 42.96C80.5422 43.04 80.2435 43.08 79.9129 43.08ZM85.7916 37.08H86.6476V43H85.7916V37.08ZM96.1666 39.768C96.1719 39.8107 96.1746 39.856 96.1746 39.904C96.1746 39.952 96.1746 39.9973 96.1746 40.04C96.1746 40.4987 96.1079 40.9173 95.9746 41.296C95.8412 41.6693 95.6492 41.9893 95.3986 42.256C95.1532 42.5173 94.8546 42.72 94.5026 42.864C94.1559 43.008 93.7639 43.08 93.3266 43.08C92.8786 43.08 92.4732 43.008 92.1106 42.864C91.7479 42.7147 91.4359 42.5093 91.1746 42.248C90.9132 41.9813 90.7106 41.6613 90.5666 41.288C90.4279 40.9093 90.3586 40.4933 90.3586 40.04C90.3586 39.5813 90.4279 39.1653 90.5666 38.792C90.7106 38.4187 90.9106 38.1013 91.1666 37.84C91.4279 37.5733 91.7399 37.368 92.1026 37.224C92.4706 37.0747 92.8786 37 93.3266 37C93.7372 37 94.1079 37.0507 94.4386 37.152C94.7692 37.248 95.0759 37.408 95.3586 37.632L94.7986 38.168C94.6119 38.008 94.3959 37.8907 94.1506 37.816C93.9106 37.7413 93.6386 37.704 93.3346 37.704C93.0199 37.704 92.7346 37.76 92.4786 37.872C92.2226 37.984 92.0012 38.144 91.8146 38.352C91.6332 38.5547 91.4919 38.8 91.3906 39.088C91.2892 39.3707 91.2386 39.688 91.2386 40.04C91.2386 40.392 91.2892 40.712 91.3906 41C91.4919 41.2827 91.6332 41.528 91.8146 41.736C92.0012 41.9387 92.2226 42.096 92.4786 42.208C92.7346 42.32 93.0199 42.376 93.3346 42.376C93.6172 42.376 93.8732 42.3307 94.1026 42.24C94.3372 42.1493 94.5372 42.0213 94.7026 41.856C94.8732 41.6907 95.0092 41.4907 95.1106 41.256C95.2119 41.0213 95.2706 40.76 95.2866 40.472H93.5666V39.768H96.1666ZM99.7397 37.08H100.276L104.212 41.544L104.188 37.08H105.044V43H104.508L100.58 38.536L100.596 43H99.7397V37.08ZM117.415 41.624H114.471L113.887 43H112.975L115.543 37.08H116.335L118.895 43H117.991L117.415 41.624ZM117.119 40.92L115.943 38.128L114.767 40.92H117.119ZM127.664 39.768C127.67 39.8107 127.672 39.856 127.672 39.904C127.672 39.952 127.672 39.9973 127.672 40.04C127.672 40.4987 127.606 40.9173 127.472 41.296C127.339 41.6693 127.147 41.9893 126.896 42.256C126.651 42.5173 126.352 42.72 126 42.864C125.654 43.008 125.262 43.08 124.824 43.08C124.376 43.08 123.971 43.008 123.608 42.864C123.246 42.7147 122.934 42.5093 122.672 42.248C122.411 41.9813 122.208 41.6613 122.064 41.288C121.926 40.9093 121.856 40.4933 121.856 40.04C121.856 39.5813 121.926 39.1653 122.064 38.792C122.208 38.4187 122.408 38.1013 122.664 37.84C122.926 37.5733 123.238 37.368 123.6 37.224C123.968 37.0747 124.376 37 124.824 37C125.235 37 125.606 37.0507 125.936 37.152C126.267 37.248 126.574 37.408 126.856 37.632L126.296 38.168C126.11 38.008 125.894 37.8907 125.648 37.816C125.408 37.7413 125.136 37.704 124.832 37.704C124.518 37.704 124.232 37.76 123.976 37.872C123.72 37.984 123.499 38.144 123.312 38.352C123.131 38.5547 122.99 38.8 122.888 39.088C122.787 39.3707 122.736 39.688 122.736 40.04C122.736 40.392 122.787 40.712 122.888 41C122.99 41.2827 123.131 41.528 123.312 41.736C123.499 41.9387 123.72 42.096 123.976 42.208C124.232 42.32 124.518 42.376 124.832 42.376C125.115 42.376 125.371 42.3307 125.6 42.24C125.835 42.1493 126.035 42.0213 126.2 41.856C126.371 41.6907 126.507 41.4907 126.608 41.256C126.71 41.0213 126.768 40.76 126.784 40.472H125.064V39.768H127.664ZM135.126 42.296V43H131.238V37.08H135.062V37.784H132.094V39.64H134.838V40.344H132.094V42.296H135.126ZM138.891 37.08H139.427L143.363 41.544L143.339 37.08H144.195V43H143.659L139.731 38.536L139.747 43H138.891V37.08ZM150.96 43.08C150.501 43.08 150.082 43.008 149.704 42.864C149.33 42.7147 149.008 42.5067 148.736 42.24C148.469 41.9733 148.261 41.6533 148.112 41.28C147.968 40.9013 147.896 40.4827 147.896 40.024C147.896 39.5707 147.968 39.1573 148.112 38.784C148.261 38.4107 148.469 38.0933 148.736 37.832C149.002 37.5653 149.322 37.36 149.696 37.216C150.074 37.072 150.493 37 150.952 37C151.437 37 151.866 37.0827 152.24 37.248C152.618 37.4133 152.949 37.6507 153.232 37.96L152.696 38.504C152.509 38.2693 152.272 38.0773 151.984 37.928C151.696 37.7787 151.36 37.704 150.976 37.704C150.645 37.704 150.344 37.76 150.072 37.872C149.805 37.984 149.576 38.1413 149.384 38.344C149.192 38.5467 149.042 38.792 148.936 39.08C148.834 39.3627 148.784 39.6773 148.784 40.024C148.784 40.376 148.834 40.696 148.936 40.984C149.042 41.272 149.192 41.52 149.384 41.728C149.576 41.936 149.805 42.096 150.072 42.208C150.344 42.32 150.642 42.376 150.968 42.376C151.394 42.376 151.76 42.288 152.064 42.112C152.373 41.9307 152.629 41.688 152.832 41.384L153.416 41.912C153.138 42.28 152.792 42.568 152.376 42.776C151.965 42.9787 151.493 43.08 150.96 43.08ZM161.383 37.08L159.223 40.704V43H158.375V40.704L156.215 37.08H157.135L158.807 39.944L160.463 37.08H161.383Z" fill="#181818"/>
<g clip-path="url(#clip0_155_562)">
<path fill-rule="evenodd" clip-rule="evenodd" d="M2.72266 48H32.0854C32.5937 48.0015 33.0745 47.7694 33.3895 47.3705C33.7045 46.9715 33.8187 46.4499 33.6992 45.9559C33.3545 44.4878 32.5014 43.1891 31.2909 42.2897C31.6398 41.6134 31.8026 40.8565 31.7627 40.0966C31.742 39.6977 31.661 39.3043 31.5227 38.9297C34.4854 32.5159 28.9654 27.3104 28.9654 27.3104H35.5861C38.5961 27.311 41.2278 25.2812 41.9916 22.3697C41.7853 22.3073 41.6088 22.172 41.4951 21.989L40.2206 19.8621L39.724 19.0345H44.6896C45.2659 19.021 45.7932 18.7071 46.0799 18.2069C46.2055 18.0008 46.2819 17.7686 46.3033 17.5283C46.3282 17.2055 46.3447 16.8828 46.3447 16.5517C46.3411 10.6114 41.5264 5.79675 35.5861 5.7931H25.6551C17.885 5.7931 11.5861 12.092 11.5861 19.8621V31.8621C11.5855 34.7872 10.48 37.6042 8.49093 39.749L6.54611 41.8428L2.11852 46.6097C1.89508 46.8506 1.83533 47.2009 1.96629 47.5023C2.09724 47.8036 2.39408 47.999 2.72266 48Z" fill="#4FBA6F"/>
<path fill-rule="evenodd" clip-rule="evenodd" d="M31.5231 39.7573C31.7894 39.7572 32.0394 39.6291 32.1948 39.4129C32.3503 39.1967 32.3923 38.919 32.3076 38.6665C31.5446 36.3964 29.3531 34.7826 27.5565 34.032C25.8991 33.3577 24.1216 33.0288 22.3327 33.0654C21.8757 33.0688 21.5079 33.4421 21.5114 33.8992C21.5148 34.3562 21.8881 34.724 22.3451 34.7206C22.4155 34.7255 22.4834 34.7206 22.5512 34.7206C24.0461 34.7057 25.5288 34.9905 26.9118 35.5581C28.312 36.1457 30.1509 37.4499 30.7385 39.1995C30.8539 39.534 31.1692 39.7582 31.5231 39.7573Z" fill="#33907C"/>
<path fill-rule="evenodd" clip-rule="evenodd" d="M17.3791 41.3876C17.4205 44.4662 17.8177 46.6593 19.3322 48H25.7129C20.0356 48 19.1005 46.4276 19.0343 41.371C19.0297 40.9172 18.6605 40.5517 18.2067 40.5517H18.1984C17.9789 40.5539 17.7693 40.6432 17.6156 40.8C17.462 40.9567 17.3769 41.1681 17.3791 41.3876Z" fill="#33907C"/>
<path fill-rule="evenodd" clip-rule="evenodd" d="M31.2905 43.1173C31.6467 43.1173 31.963 42.8893 32.0756 42.5514C32.1883 42.2134 32.0721 41.8413 31.7871 41.6276C29.9909 40.371 27.8476 39.7056 25.6555 39.7241C25.1984 39.7241 24.8279 40.0947 24.8279 40.5517C24.8279 41.0088 25.1984 41.3793 25.6555 41.3793C27.4899 41.3546 29.2861 41.9044 30.7923 42.9517C30.9358 43.0599 31.1108 43.118 31.2905 43.1173Z" fill="#33907C"/>
<path fill-rule="evenodd" clip-rule="evenodd" d="M4.70073 37.2993L6.54625 41.8428L8.49108 39.749C10.4802 37.6042 11.5857 34.7872 11.5863 31.8621V19.8621C11.5863 16.1307 13.0685 12.5523 15.707 9.91381C18.3454 7.27536 21.9239 5.7931 25.6552 5.7931H26.2842V5.69379L23.9256 0.976551C23.6251 0.379187 23.0135 0.00223351 22.3449 0.00223351C21.6762 0.00223351 21.0646 0.379187 20.7642 0.976551L19.7462 3.01241C19.3431 3.82287 18.3908 4.19519 17.5449 3.8731L14.8056 2.8469C14.2623 2.64362 13.654 2.71922 13.177 3.04929C12.7001 3.37936 12.415 3.92205 12.4138 4.50207V7.00965C12.4163 7.90186 11.7518 8.65523 10.8663 8.76414L8.54901 9.05379C7.96942 9.1255 7.47052 9.49733 7.23617 10.0323C7.00182 10.5672 7.06672 11.186 7.40694 11.6607L8.79729 13.5972C9.08498 14.0056 9.18787 14.516 9.08084 15.0039C8.97382 15.4918 8.66672 15.9123 8.23453 16.1628L6.14901 17.3545C5.66866 17.6272 5.34358 18.109 5.27047 18.6565C5.19736 19.204 5.38463 19.7542 5.7766 20.1434L8.29246 22.6593C8.68246 23.0494 8.8684 23.599 8.79539 24.1458C8.72237 24.6926 8.39874 25.1741 7.92004 25.4483L5.8759 26.6152C5.44776 26.8607 5.15106 27.284 5.06629 27.7702C4.98152 28.2564 5.11749 28.7551 5.43728 29.131L7.62211 31.68C7.97786 32.0921 8.12348 32.6453 8.01672 33.1791C7.90996 33.7129 7.56277 34.1675 7.0759 34.411L5.50349 35.1972C4.73382 35.586 4.38614 36.4965 4.70073 37.2993Z" fill="#33907C"/>
<path fill-rule="evenodd" clip-rule="evenodd" d="M20.7656 31.6899C20.9503 31.6896 21.1348 31.676 21.3176 31.6494C22.8075 31.429 24.0179 30.333 24.3847 28.8723C24.7516 27.4116 24.2025 25.8738 22.9935 24.9757L19.6732 22.5103C19.4382 22.312 19.1126 22.2603 18.8277 22.3761C18.5428 22.4919 18.3457 22.7561 18.3157 23.0622C18.2858 23.3682 18.428 23.6657 18.685 23.8345L22.007 26.3015C22.9254 26.9828 23.1178 28.2796 22.4365 29.1981C21.7552 30.1165 20.4584 30.3088 19.5399 29.6276L16.2213 27.1581C15.8543 26.8838 15.3345 26.959 15.0602 27.3261C14.786 27.6931 14.8612 28.2129 15.2282 28.4872L18.5526 30.9517C19.1912 31.4303 19.9676 31.6893 20.7656 31.6899Z" fill="#33907C"/>
<path d="M28.5513 16.5517C26.4945 16.5517 24.8271 14.8844 24.8271 12.8276C24.8271 10.7708 26.4945 9.10345 28.5513 9.10345C30.608 9.10345 32.2754 10.7708 32.2754 12.8276C32.2754 14.8844 30.608 16.5517 28.5513 16.5517Z" fill="#ECF0F1"/>
<path d="M28.9654 14.069C28.5083 14.069 28.1378 13.6984 28.1378 13.2414C28.1378 12.7843 28.5083 12.4138 28.9654 12.4138C29.4224 12.4138 29.793 12.7843 29.793 13.2414C29.793 13.6984 29.4224 14.069 28.9654 14.069Z" fill="#35495E"/>
<path fill-rule="evenodd" clip-rule="evenodd" d="M30.6208 19.0345C30.6208 19.4915 30.9913 19.8621 31.4484 19.8621H40.2208L39.7242 19.0345H44.6897C45.2661 19.021 45.7934 18.7071 46.0801 18.2069H31.4484C30.9913 18.2069 30.6208 18.5774 30.6208 19.0345Z" fill="#4C8056"/>
<path fill-rule="evenodd" clip-rule="evenodd" d="M39.7236 19.0345L37.9501 21.9898C37.8005 22.2387 37.5313 22.3909 37.2409 22.3909C36.9505 22.3909 36.6813 22.2387 36.5316 21.9898L34.7581 19.0345H39.7236Z" fill="#ECF0F1"/>
<path fill-rule="evenodd" clip-rule="evenodd" d="M39.7239 19.0345L41.495 21.989C41.6087 22.172 41.7852 22.3073 41.9915 22.3697C42.3506 22.4605 42.7269 22.306 42.9184 21.989L44.6895 19.0345H39.7239Z" fill="#ECF0F1"/>
<path fill-rule="evenodd" clip-rule="evenodd" d="M41.3794 16.5517C41.8365 16.5517 42.207 16.1812 42.207 15.7241V14.069C42.207 13.6119 41.8365 13.2414 41.3794 13.2414C40.9224 13.2414 40.5519 13.6119 40.5519 14.069V15.7241C40.5519 16.1812 40.9224 16.5517 41.3794 16.5517Z" fill="#4C8056"/>
<path fill-rule="evenodd" clip-rule="evenodd" d="M38.0689 16.5517C38.526 16.5517 38.8965 16.1812 38.8965 15.7241V14.069C38.8965 13.6119 38.526 13.2414 38.0689 13.2414C37.6118 13.2414 37.2413 13.6119 37.2413 14.069V15.7241C37.2413 16.1812 37.6118 16.5517 38.0689 16.5517Z" fill="#4C8056"/>
<path fill-rule="evenodd" clip-rule="evenodd" d="M26.4826 28.1379H28.9654C29.4224 28.1379 29.793 27.7674 29.793 27.3103C29.793 26.8533 29.4224 26.4828 28.9654 26.4828H26.4826C26.0256 26.4828 25.655 26.8533 25.655 27.3103C25.655 27.7674 26.0256 28.1379 26.4826 28.1379Z" fill="#33907C"/>
</g>
<defs>
<clipPath id="clip0_155_562">
<rect width="48" height="48" fill="white" transform="matrix(-1 0 0 1 48 0)"/>
</clipPath>
</defs>
</svg>
